<svg width="631" height="631" viewBox="0 0 631 631" fill="none" xmlns="http://www.w3.org/2000/svg">
<path fill-rule="evenodd" clip-rule="evenodd" d="M421.131 311.178C434.247 336.138 439.262 348.462 431.581 377.472C431.091 379.328 425.139 395.879 423.287 395.954C420.667 395.154 418.976 388.591 417.756 386.061C415.539 386.598 416.879 386.31 415.546 387.193L414.373 388.118C414.264 388.204 414.107 388.339 413.998 388.428L367.116 419.121C357.527 424.902 347.934 439.881 346.789 450.918C343.347 484.068 376.167 504.785 406.547 496.579C426.235 491.262 442.885 472.837 457.91 459.679C467.421 449.977 482.922 427.17 487.924 414.928L492.158 405.451C494.878 398.882 494.608 397.554 497.301 396.9L496.972 198.338C496.795 198.072 400.201 149.702 396.054 193.448C408.697 192.621 459.676 222.934 461.373 243.278C447.856 243.278 430.671 244.354 424.724 248.309C424.669 247.027 425.677 244.952 426.665 244.176C427.304 243.676 422.156 243.512 415.767 248.693C383.283 270.761 404.804 289.317 421.131 311.178Z" fill="#D65E39"/>
<path fill-rule="evenodd" clip-rule="evenodd" d="M426.376 83.9664C426.145 83.7355 426.124 83.7143 426.376 83.9664V83.9664ZM330.941 154.526C330.941 154.526 336.612 117.695 350.71 113.932C350.699 113.951 352.68 133.876 348.869 146.48C348.656 147.182 387.691 98.679 406.76 85.9072C406.198 91.0523 366.903 142.928 372.986 155.61C382.484 127.207 448.278 75.1284 482.211 75.1284C465.599 82.1964 411.397 146.829 405.938 162.214C428.643 152.533 499.593 163.588 512.338 185.872C512.338 295.337 509.517 518.497 509.517 518.497C491.487 642.036 178.674 634.62 164.932 514.509C164.932 514.509 164.316 301.028 164.316 269.059C142.462 249.618 109.571 203.241 126.747 165.613C130.919 167.624 136.018 169.99 136.018 169.99C128.494 152.815 144.434 110.882 145.912 93.0936C151.138 95.8587 148.343 101.163 154.535 105.309C151.346 77.2691 179.678 19.6574 205.555 19.0795C194.367 67.0995 211.03 127.599 244.28 163.742C251.511 159.742 309.38 149.023 330.941 154.526ZM115.829 147.449C90.2523 197.987 125.78 250.275 152.147 276.177C152.169 281.858 150.941 525.822 150.941 525.822C181.902 661.197 476.923 667.535 524.008 532.096L523.487 176.387C489.419 156.374 473.214 150.217 429.266 148.622C500.141 51.882 518.765 63.5603 518.859 59.3201C471.827 59.3201 449.643 79.9847 428.317 82.3147C430.919 78.4301 438.355 70.7328 438.355 70.7328C403.101 72.4415 373.139 99.0244 362.025 107.796C360.24 106.701 361.172 99.0618 372.267 91.6566C349.285 91.2057 331.118 113.888 324.741 133.953L321.967 144.113C282.279 143.349 249.116 152.374 249.116 152.374C193.638 87.3347 219.461 0 219.461 0C124.564 27.7482 124.293 130.727 115.829 147.449Z" fill="#E6A037"/>
<path fill-rule="evenodd" clip-rule="evenodd" d="M209.972 446.638C210.193 442.036 214.527 440.148 219.629 437.019C228.361 431.664 250.296 419.991 259.429 419.949C266.627 419.915 271.158 420.018 277.255 418.396C284.908 416.361 294.151 414.492 301.414 410.95L305.419 409.143C312.587 406.585 313.366 404.059 319.595 403.844C317.142 408.744 317.36 406.55 313.82 409.99C313.934 411.823 306.033 416.177 304.306 417.481C292.959 425.134 249.978 441.599 249.389 443.685C252.482 444.025 250.719 443.8 251.622 444.483C245.971 450.185 229.14 461.944 219.882 472.13C204.961 488.548 197.548 505.085 197.206 517.077C197.944 516.709 216.33 476.208 238.187 464.899C255.393 450.398 265.241 445.278 283.881 440.889C282.938 482.973 248.97 569.406 335.808 593.532C349.368 596.224 375.191 592.221 388.723 588.234C389.17 587.698 386.561 587.997 385.921 587.654C353.883 588.977 297.888 543.623 293.429 511.191C292.413 503.809 291.731 495.962 293.117 488.877L294.092 491.256C294.676 494.333 288.487 496.42 292.346 496.6C292.346 490.157 295.26 494.87 294.65 489.764C294.38 487.511 294.66 482.919 294.66 480.412C295.66 479.797 294.638 479.823 296.098 480.313C298.541 476.138 294.204 473.155 299.476 462.932C305.641 450.977 312.581 439.69 323.342 430.776C325.176 429.257 324.328 429.428 326.278 428.715C327.14 429.722 326.963 427.171 327.112 430.829C338.815 415.903 346.913 407.207 362.337 396.489C364.501 395.222 363.497 396.19 365.376 394.181C365.415 391.572 367.737 388.097 369.202 386.057C369.287 385.941 369.406 385.765 369.494 385.653C369.828 385.226 369.89 385.187 370.508 384.562C373.577 381.454 373.925 380.023 376.533 376.104L381.532 370.871C381.603 370.609 381.826 370.606 381.968 370.468C381.459 363.083 383.083 358.16 382.006 351.433C380.132 339.708 377.32 342.551 380.395 341.402C383.716 340.163 382.713 341.933 383.325 340.539C383.435 340.29 383.738 340.411 383.911 340.287C383.276 337.517 380.771 334.157 379.118 332.035L376.398 329.618C370.059 325.31 372.618 327.283 367.711 324.647C365.021 323.202 362.564 318.686 356.458 318.072C358.374 322.6 358.812 312.671 364.651 338.562C368.328 354.865 356.244 372.899 351.428 368.08C351.12 368.163 346.041 370.73 345.027 371.258C343.857 371.867 342.116 372.303 340.728 372.65C337.62 373.426 333.928 373.541 329.974 373.29C330.894 371.022 330.464 372.64 332.905 370.629C342.07 363.079 346.477 350.064 340.184 339.998L337.861 335.212C330.303 319.038 310.799 303.168 292.504 302.921C293.827 302.963 351.9 333.239 329.591 360.128C313.115 379.995 275.072 364.78 263.761 373.342C263.761 373.342 305.247 399.93 237.892 399.93C237.165 408.635 249.345 410.909 250.826 416.458C232.922 424.345 180.456 453.045 179.199 469.166C179.199 469.166 179.48 470.974 179.711 470.632C184.947 462.93 197.885 451.795 209.972 446.638Z" fill="#D65E39"/>
<path fill-rule="evenodd" clip-rule="evenodd" d="M257.182 241.841C259.954 260.484 310.256 299.613 319.967 297.831C317.871 295.025 323.404 291.424 323.404 291.424C327.583 294.223 326.274 298.143 337.305 306.984C347.807 315.399 381.652 330.432 383.911 340.287C383.738 340.411 383.435 340.291 383.325 340.539C382.713 341.933 383.716 340.163 380.395 341.402C377.32 342.551 378.311 339.448 380.185 351.172C383.33 370.824 379.28 372.111 369.202 386.057C367.737 388.097 365.414 391.572 365.376 394.181C368.399 393.305 372.89 390.427 374.582 387.873L377.713 383.1C379.048 381.104 379.607 379.36 380.171 376.935C382.91 378.941 383.685 382.56 383.333 384.586C383.333 384.586 392.748 377.203 392.975 376.744C393.299 374.018 400.891 355.533 400.224 346.803C399.689 339.804 389.631 318.361 390.516 311.334C395.588 310.766 390.181 312.717 399.187 313.364C401.851 305.175 393.005 298.176 393.635 289.987C394.616 280.404 383.889 274.069 390.142 260.435C391.212 257.35 393.539 254.182 393.873 251.183C394.029 249.984 393.818 250.549 394.318 249.463L398.213 244.788C400.653 241.505 400.032 240.819 405.606 240.889C404.694 243.291 404.98 242.886 403.459 245.002C401.462 247.781 401.76 246.257 401.32 250.165C402.829 249.627 403.377 249.345 405.323 249.083C408.248 246.975 414.769 241.516 418.158 241.122C418.654 236.366 423.192 236.056 423.842 231.062C422.88 229.822 422.085 229.499 421.85 227.888C417.029 227.695 416.254 226.351 413.038 226.321C409.437 226.368 408.28 227.069 404.808 226.328C401.833 225.692 399.039 224.066 396.712 223.301C393.695 226.592 388.848 228.836 383.855 231.887L373.717 240.447C367.386 245.762 365.551 244.824 359.799 246.7C351.916 249.27 347.957 252.628 346.398 253.058C344.871 257.063 333.85 268.642 333.85 268.642C333.85 268.642 349.849 263.354 359.766 260.221C362.318 259.415 365.287 257.88 367.833 256.723L392.402 236.882C392.211 240.565 383.25 250.564 380.171 254.063C376.075 259.517 372.086 266.55 369.629 272.903L363.478 291.292C363.036 293.274 361.508 299.349 360.905 300.912C361.122 296.468 356.972 290.699 351.966 288.653C352.388 293.766 348.469 289.191 340.701 289.061C331.938 288.914 318.43 280.902 310.095 276.869C295.856 268.308 281.58 260.784 274.158 245.226C270.371 237.289 265.491 228.54 268.655 221.607C267.605 224.451 268.943 224.631 270.228 225.433C270.228 222.772 268.677 212.137 267.058 210.519C242.101 185.562 231.236 168.626 212.023 139.684C204.675 137.075 192.771 83.4146 192.182 74.2201C191.871 69.3596 190.092 67.2922 190.073 62.2201C190.06 58.5476 191.211 51.8291 189.027 48.7983C186.884 50.0852 187.895 47.4974 187.246 52.0592C187.143 52.7857 187.247 55.5202 187.258 56.442C187.815 107.313 205.642 151.059 234.363 192.175L241.548 203.025C248.401 213.18 252.644 209.807 252.991 221.739C253.888 226.168 257.275 238.197 257.182 241.841Z" fill="#E88637" stroke="#E88637" stroke-width="0.288" stroke-miterlimit="22.9256"/>
<path fill-rule="evenodd" clip-rule="evenodd" d="M497.302 396.9C494.608 397.554 494.878 398.882 492.158 405.452C474.252 445.534 407.971 508.327 370.125 490.014C361.132 485.663 351.97 479.261 347.481 463.978C341.502 437.346 400.511 401.283 417.756 386.06C418.976 388.591 420.962 397.022 423.484 397.921C424.575 393.49 431.664 383.363 431.581 377.473C441.55 347.318 434.247 336.138 421.131 311.177C422.742 315.665 424.316 320.19 425.988 324.654C431.035 338.203 426.933 355.306 421.85 368.312C417.598 366.773 413.946 361.128 413.946 361.128C392.79 405.187 363.637 397.65 335.816 436.057C326.74 452.736 323.012 464.794 326.38 483.904C329.513 501.682 347.45 519.476 365.781 521.39C378.365 522.705 390.62 520.457 402.144 516.038C448.206 498.374 497.302 448.409 497.302 396.9Z" fill="#AB4737" stroke="#AB4737" stroke-width="0.288" stroke-miterlimit="22.9256"/>
<path fill-rule="evenodd" clip-rule="evenodd" d="M389.738 587.746C394.48 586.911 434.538 567.588 435.603 564.28C383.243 576.029 291.638 538.111 294.66 480.412C282.745 516.966 308.899 554.399 333.519 570.455C344.519 577.629 377.199 589.948 389.738 587.746Z" fill="#E88637" stroke="#E88637" stroke-width="0.288" stroke-miterlimit="22.9256"/>
<path fill-rule="evenodd" clip-rule="evenodd" d="M381.606 217.409L383.043 218.846C377.979 225.124 378.291 224.391 365.801 224.775C351.019 225.229 355.93 223.528 338.604 217.208C322.392 209.937 329.329 213.271 312.28 213.975C311.554 213.019 311.804 213.332 311.43 211.66C304.462 212.727 297 222.258 299.146 233.702C314.573 197.971 365.297 227.758 375.142 229.625L370.486 232.155C356.408 239.899 344.257 238.726 336.935 252.127L346.398 253.058C356.966 250.141 373.632 243.685 385.134 232.468C392.608 227.901 396.08 223.449 396.712 223.301C396.712 223.301 401.216 225.561 404.808 226.328C408.28 227.07 409.437 226.368 413.038 226.321C412.022 225.344 410.635 224.052 408.915 223.378C406.368 219.793 405.504 219.996 407.093 216.691C405.615 215.977 404.143 216.2 402.316 215.399C398.999 213.946 393.886 208.395 392.255 207.276C398.517 205.181 392.255 207.276 383.11 199.928C378.284 196.051 374.251 189.099 371.627 189.323C374.606 191.667 371.962 194.865 374.155 199.815C370.745 199.706 365.016 196.348 362.23 194.363L350.246 181.826C346.709 176.849 338.782 177.441 332.656 170.592C332.691 170.664 340.962 177.016 346.613 181.254C351.369 184.821 353.918 190 354.302 190.102V193.395C356.163 194.575 354.885 194.052 357.177 194.812C359.466 194.023 358.175 194.383 358.25 195.133C359.307 198.715 359.338 196.672 360.59 199.346C356.943 201.303 349.108 197.934 346.609 195.608C343.244 192.476 344.299 193.862 340.38 191.774C338.651 190.853 336.861 189.021 335.057 187.788C321.84 178.754 327.902 182.367 315.796 177.441L311.302 174.938C310.106 174.418 310.691 175.563 310.311 174.513C310.236 174.304 309.975 174.393 309.731 174.066L311.845 172.856C305.975 169.586 294.615 168.485 288.192 169.982C322.612 179.641 345.745 201.575 352.186 206.809C362.813 213.66 379.546 215.232 381.606 217.409Z" fill="#D65E39" stroke="#D65E39" stroke-width="0.288" stroke-miterlimit="22.9256"/>
<path fill-rule="evenodd" clip-rule="evenodd" d="M173.657 71.2489C172.19 74.5825 169.229 87.5969 169.297 92.7563L171.946 89.47C172.027 89.3351 172.118 89.145 172.198 89.0142C173.358 87.1233 176.835 83.1718 178.984 83.2777C182.379 83.4451 180.662 84.3064 182.839 96.2411C185.929 113.182 185.954 108.373 188.997 118.651C189.652 120.859 189.697 122.376 190.39 124.626C192.57 129.729 194.197 134.858 197.014 139.598L201.319 149.742C207.251 160.284 203.351 153.293 207.078 158.379C208.245 159.97 211.008 166.11 211.243 168.545C212.852 182.137 251.218 206.581 257.182 241.841C257.182 241.841 259.74 220.717 252.409 215.046C252.372 214.98 244.047 206.728 241.548 203.025L234.363 192.175C220.021 171.645 214.921 161.415 205.035 138.822C204.207 136.931 202.875 134.77 202.152 133.201C200.342 129.274 199.593 124.964 198.046 120.653C197.502 119.134 196.548 116.916 195.931 114.896C189.034 92.3115 187.518 80.2555 187.258 56.4419C187.247 55.5201 187.143 52.7856 187.246 52.0591C187.895 47.4973 186.884 50.0851 189.027 48.7982C189.194 49.031 193.547 85.1255 193.638 87.3346C194.012 96.4637 206.708 137.796 212.023 139.684C196.792 109.085 192.475 75.7666 191.548 42.1179C178.76 55.5083 174.144 70.1396 173.657 71.2489Z" fill="#D65E39" stroke="#D65E39" stroke-width="0.288" stroke-miterlimit="22.9256"/>
<path fill-rule="evenodd" clip-rule="evenodd" d="M368.675 536.463C393.237 536.463 404.653 537.482 426.721 526.389C430.229 524.543 433.191 524.669 437.423 522.712C452.647 515.673 452.446 515.739 465.742 506.456L472.235 501.257C476.77 496.631 490.179 485.256 493.91 479.294C496.227 475.589 495.254 466.922 495.306 462.448L495.092 452.502C495.089 447.88 493.229 449.615 492.708 448.823C480.772 473.401 428.48 519.778 368.675 536.463Z" fill="#E6A037"/>
<path fill-rule="evenodd" clip-rule="evenodd" d="M248.059 474.446C247.646 476.263 251.069 478.229 248.725 483.921C240.721 503.36 243.433 520.22 247.138 538.779C248.812 547.168 246.486 539.992 249.525 549.446C250.262 551.737 249.845 551.092 250.746 553.218C251.487 554.971 252.549 557.271 253.239 559.179L259.194 576.417C260.465 579.709 278.688 584.892 286.231 584.094C228.913 546.157 268.678 455.444 263.147 459.592C260.902 461.373 249.278 471.857 248.059 474.446Z" fill="#E88637"/>
<path fill-rule="evenodd" clip-rule="evenodd" d="M224.663 238.966C227.559 257.255 250.39 286.882 267.354 295.016C254.653 280.884 233.525 261.76 232.331 241.652C224.798 216.117 186.026 200.454 169.294 167.332C166.13 162.039 156.293 141.863 151.7 133.443C150.644 131.508 149.674 131.078 149.119 130.636C148.919 139.205 149.515 145.627 151.465 151.862C154.879 162.776 154.42 157.047 157.122 162.109C161.968 171.185 164.66 172.587 170.079 179.508C170.21 179.675 170.606 180.12 170.737 180.283L176.698 188.062C177.517 188.888 178.27 189.78 179.044 190.648C180.452 192.558 180.146 192.845 182.33 194.748L202.586 216.021C203.857 217.172 204.411 217.799 205.744 218.796C210.874 222.634 209.054 222.112 211.608 224.263L218.275 229.111C221.624 231.813 224.235 232.335 224.663 238.966Z" fill="#D67939"/>
<path fill-rule="evenodd" clip-rule="evenodd" d="M295.926 480.254C299.59 493.864 314.149 511.095 325.559 508.437C301.325 481.959 312.085 454.634 325.03 435.334C326.159 433.648 326.749 433.236 327.112 430.829C326.947 426.764 325.487 428.999 323.342 430.776C312.581 439.69 305.641 450.977 299.476 462.932C294.204 473.155 295.282 474.815 295.926 480.254Z" fill="#E88637" stroke="#E88637" stroke-width="0.288" stroke-miterlimit="22.9256"/>
<path fill-rule="evenodd" clip-rule="evenodd" d="M224.761 471.586C230.164 466.134 251.773 446.604 253.698 441.589C205.973 462.701 188.124 494.391 184.325 509.483C183.152 515.842 188.355 529.851 194.776 529.994C199.42 508.202 208.313 487.383 224.761 471.586Z" fill="#E88637" stroke="#E88637" stroke-width="0.288" stroke-miterlimit="22.9256"/>
<path fill-rule="evenodd" clip-rule="evenodd" d="M168.617 146.85C169.411 137.574 170.532 137.368 173.219 141.957C191.611 177.284 199.964 193.069 235.736 215.972C234.949 212.595 196.52 165.456 189.547 152.216C186.931 147.332 176.473 111.586 173.387 110.866C172.205 113.102 169.473 121.015 168.832 123.918C168.031 127.553 162.953 146.85 168.617 146.85Z" fill="#C25739"/>
<path fill-rule="evenodd" clip-rule="evenodd" d="M389.514 379.095C391.306 379.051 388.952 380.401 392.008 378.045C401.563 365.206 411.349 354.077 405.583 337.153C404.62 334.327 402.012 329.318 401.729 325.916C404.7 327.906 409.859 330.139 412.089 332.532C417.607 338.456 417.779 335.33 418.975 343.882C421.132 333.341 416.424 322.18 413.52 317.72C408.701 310.085 403.739 309.254 400.694 303.24C398.841 299.58 396.106 286.177 392.707 284.062C392.076 292.252 398.714 304.564 398.574 312.226C389.568 311.579 389.007 308.737 389.007 308.737C387.992 316.805 399.645 339.239 400.224 346.804C400.891 355.534 389.837 376.369 389.514 379.095Z" fill="#E6A037"/>
<path fill-rule="evenodd" clip-rule="evenodd" d="M367.654 536.607C376.402 537.3 405.149 530.242 407.493 526.353C412.733 524.803 411.266 525.772 415.963 523.266C416.864 522.787 415.185 523.3 415.782 523.111C416.38 522.922 417.008 522.758 418.029 522.382C428.095 518.673 450.986 503.17 459.608 494.408C470.436 483.403 466.732 486.865 475.735 476.806L480.791 470.401C484.829 465.4 489.006 457.135 491.588 453.041C493.15 450.565 492.063 451.34 494.427 450.847C494.948 451.638 494.743 451.063 495.092 452.501L495.306 462.447C495.254 466.921 496.227 475.588 493.91 479.292C490.179 485.255 476.77 496.63 472.235 501.256L465.742 506.455C452.446 515.738 452.647 515.672 437.423 522.71C429.909 526.184 431.923 524.147 428.525 525.439L426.721 526.388C421.391 529.068 390.718 534.998 390.93 534.971C432.316 529.842 430.675 526.526 461.091 509.698C475.3 501.838 499.2 481.892 499.2 481.892C499.2 481.892 500.503 462.1 499.226 454.533C498.413 448.84 496.703 443.968 495.864 443.764C464.81 495.098 422.203 517.779 367.654 536.607Z" fill="#E6A037" stroke="#E6A037" stroke-width="0.288" stroke-miterlimit="22.9256"/>
<path fill-rule="evenodd" clip-rule="evenodd" d="M224.663 238.966C224.235 232.335 221.624 231.813 218.275 229.111L211.608 224.264C209.054 222.112 210.874 222.634 205.744 218.796C204.411 217.799 203.857 217.172 202.586 216.022L182.33 194.748C180.146 192.845 180.451 192.558 179.044 190.648L177.054 188.416C176.952 188.313 176.8 188.166 176.698 188.062L170.737 180.283C170.606 180.121 170.21 179.675 170.079 179.508C164.659 172.587 161.968 171.185 157.122 162.109C154.42 157.047 154.878 162.776 151.465 151.862C149.515 145.627 148.919 139.205 149.118 130.636L150.271 131.554C152.716 134.074 153.699 138.188 154.616 141.467L157.795 150.475C157.853 150.604 157.95 150.783 158.015 150.905L159.165 152.526C160.829 154.957 160.535 155.227 161.795 157.876L167.66 167.689C172.946 183.166 170.219 173.335 172.503 173.939C166.762 161.591 158.947 148.62 154.905 135.839L150.223 122.555C107.93 144.935 200.832 222.807 224.663 238.966Z" fill="#D67939" stroke="#D67939" stroke-width="0.288" stroke-miterlimit="22.9256"/>
<path fill-rule="evenodd" clip-rule="evenodd" d="M353.453 292.86C353.997 288.476 349.126 281.845 346.727 281C301.669 265.112 292.042 270.298 270.228 225.433C269.345 224.881 268.58 221.794 268.452 222.225C266.084 230.185 271.995 240.695 274.158 245.226C283.749 265.332 318.115 288.678 340.701 289.06C347.076 289.154 353.453 292.86 353.453 292.86Z" fill="#E6A037"/>
<path fill-rule="evenodd" clip-rule="evenodd" d="M334.107 269.115C336.558 268.852 349.923 269.071 354.572 270.959C354.65 271.15 354.708 271.4 354.743 271.553C356.025 277.153 354.924 279.364 355.164 283.548C355.365 287.037 357.421 289.11 356.18 293.408C356.133 293.574 355.928 294.095 355.888 293.994C355.847 293.891 355.747 294.45 355.559 294.563C356.202 295.473 357.055 296.54 357.863 297.895C359.591 300.792 357.873 300.136 360.905 300.912C361.508 299.349 363.036 293.274 363.478 291.292L369.629 272.903C372.086 266.55 376.075 259.517 380.171 254.063C383.25 250.564 392.211 240.565 392.402 236.881C383.693 243.915 370.078 256.962 359.766 260.221C357.128 261.054 337.901 264.246 334.107 269.115Z" fill="#D65E39" stroke="#D65E39" stroke-width="0.288" stroke-miterlimit="22.9256"/>
<path fill-rule="evenodd" clip-rule="evenodd" d="M239.329 376.935C229.041 376.935 225.544 376.847 217.771 369.75C217.771 369.75 211.043 389.648 225.836 406.857C225.836 406.857 222.083 393.641 222.083 384.84C231.38 387.321 238.216 387.201 248.978 383.132C245.014 375.385 245.06 368.476 245.077 349.417C241.422 363.078 240.698 366.132 239.329 376.935Z" fill="#E88637"/>
<path fill-rule="evenodd" clip-rule="evenodd" d="M262.894 578.794L253.239 559.18C250.333 551.14 248.819 547.209 247.138 538.781C243.433 520.222 240.721 503.361 248.725 483.922C251.069 478.231 257.349 467.859 257.761 466.041C230.843 478.714 232.696 538.21 245.828 564.455C248.955 572.132 252.134 574.379 262.894 578.794Z" fill="#D65E39" stroke="#D65E39" stroke-width="0.288" stroke-miterlimit="22.9256"/>
<path fill-rule="evenodd" clip-rule="evenodd" d="M209.972 446.638C211.907 446.082 211.237 446.119 212.894 445.362C230.079 437.498 302.801 410.704 313.82 409.99L319.14 406.767C317.362 405.763 320.407 405.976 319.595 403.844C313.261 403.989 312.587 406.585 305.419 409.143L301.414 410.951C294.151 414.493 284.908 416.361 277.255 418.396C271.158 420.018 266.627 419.915 259.429 419.949C250.296 419.991 228.361 431.665 219.629 437.02C214.527 440.149 210.193 442.037 209.972 446.638Z" fill="#D67939" stroke="#D67939" stroke-width="0.288" stroke-miterlimit="22.9256"/>
<path fill-rule="evenodd" clip-rule="evenodd" d="M258.012 185.072C264.839 183.481 294.357 185.487 299.295 192.231C293.894 192.68 275.585 198.852 275.091 204.791C282.656 196.06 304.361 198.007 318.373 198.007C306.754 187.631 294.011 178.759 258.012 185.072Z" fill="#E88637"/>
<path fill-rule="evenodd" clip-rule="evenodd" d="M221.444 498.378C220.713 504.392 218.561 506.883 216.784 512.249C216.336 513.602 216.408 513.223 216.076 514.965C215.613 517.402 215.326 519.164 215.292 522.059C215.234 527.094 215.195 532.146 215.21 537.184C215.226 543.038 216.153 546.809 216.334 551.553C219.156 554.726 222.301 555.534 229.269 558.738C218.673 513.245 232.569 484.218 232.862 483.286C229.624 484.041 222.225 494.707 221.444 498.378Z" fill="#D67939"/>
<path fill-rule="evenodd" clip-rule="evenodd" d="M477.903 526.405C475.71 526.742 471.073 529.588 468.762 531.025L456.024 538.289C454.449 539.133 453.086 539.509 451.271 540.175C447.442 541.579 445.671 544.956 441.718 542.21C442.427 541.466 442.043 541.831 443.086 541.118L445.824 539.557C460.377 531.284 472.257 523.794 484.034 511.721C484.769 510.968 484.909 510.868 485.489 510.271C488.742 506.919 492.107 502.834 494.947 502.821C496.585 516.664 481.954 517.994 477.903 526.405ZM417.765 547.959L409.894 550.931C430.768 550.931 447.936 546.219 465.992 536.052C479.307 526.356 497.35 513.137 498.05 509.171C498.05 509.171 496.408 501.719 495.785 498.159C455.612 528.848 439.407 539.344 417.765 547.959Z" fill="#E6A037"/>
<path fill-rule="evenodd" clip-rule="evenodd" d="M351.428 368.081C360.252 347.858 340.724 332.816 327.267 320.885C327.535 323.23 335.297 329.725 337.861 335.212C347.945 365.239 336.43 357.375 329.974 373.29C334.946 373.606 345.184 372.545 349.54 370.277C350.559 369.745 351.239 368.132 351.428 368.081Z" fill="#E88637" stroke="#E88637" stroke-width="0.288" stroke-miterlimit="22.9256"/>
<path fill-rule="evenodd" clip-rule="evenodd" d="M213.475 173.297C212.214 169.014 208.245 159.97 207.078 158.379C203.351 153.293 207.251 160.284 201.319 149.742L197.014 139.598C191.879 130.958 194.826 134.057 192.567 129.724L190.39 124.626C189.696 122.376 189.651 120.859 188.997 118.651C185.954 108.373 185.929 113.182 182.839 96.2413C180.662 84.3067 182.379 83.4453 178.984 83.2779C175.953 83.1286 171.354 90.2027 169.296 92.7565C169.229 87.5971 172.19 74.5827 173.657 71.2491C174.238 69.9259 175.023 69.3401 175.827 67.1521C208.21 20.9705 160.677 65.1033 168.188 103.872C168.188 103.872 172.811 90.0289 178.967 85.9073C178.967 106.309 198.128 157.043 213.475 173.297Z" fill="#D65E39" stroke="#D65E39" stroke-width="0.288" stroke-miterlimit="22.9256"/>
<path fill-rule="evenodd" clip-rule="evenodd" d="M173.171 223.803C167.299 223.193 157.62 202.446 153.372 207.401C152.094 208.844 150.605 209.098 148.612 209.779C145.421 207.431 149.854 217.074 148.204 213.539C146.128 209.089 141.157 195.344 144.475 190.558C147.465 191.053 147.278 191.951 149.041 194.208L170.208 218.216C171.799 220.168 172.978 221.028 173.171 223.803ZM159.566 230.344C150.452 229.88 135.825 191.116 178.344 230.628C174.165 206.176 146.258 185.823 143.038 185.073C136.591 194.704 146.63 230.058 159.566 230.344Z" fill="#E88637"/>
<path fill-rule="evenodd" clip-rule="evenodd" d="M147.962 215.251C149.955 214.569 149.891 210.356 151.169 208.913C154.074 205.524 168.047 223.269 173.171 223.802C172.978 221.027 171.799 220.167 170.208 218.215C166.392 213.885 148.077 189.424 144.179 188.778C141.067 193.267 143.598 212.039 147.962 215.251Z" fill="#E88637" stroke="#E88637" stroke-width="0.288" stroke-miterlimit="22.9256"/>
<path fill-rule="evenodd" clip-rule="evenodd" d="M311.43 211.66C311.922 213.489 309.946 215.789 309.946 215.789C309.946 215.789 320.2 209.834 336.412 217.105C349.301 217.227 351.019 225.229 365.801 224.774C378.291 224.391 377.979 225.124 383.043 218.846L381.606 217.409C357.454 218.827 357.213 222.308 332.941 211.464C325.875 208.307 318.249 208.466 311.43 211.66Z" fill="#D67939" stroke="#D67939" stroke-width="0.288" stroke-miterlimit="22.9256"/>
<path fill-rule="evenodd" clip-rule="evenodd" d="M477.903 526.406C481.929 518.161 496.521 517.088 494.947 502.823C492.107 502.835 488.742 506.92 485.489 510.272C484.909 510.87 484.769 510.968 484.033 511.721C472.257 523.795 460.377 531.284 445.824 539.557L443.086 541.119C442.042 541.832 442.427 541.467 441.717 542.211C445.671 544.957 447.442 541.581 451.271 540.176C457.603 537.851 462.897 534.371 468.762 531.026C471.073 529.589 475.71 526.743 477.903 526.406Z" fill="#E6A037" stroke="#E6A037" stroke-width="0.288" stroke-miterlimit="22.9256"/>
<path fill-rule="evenodd" clip-rule="evenodd" d="M433.38 236.591L434.066 234.654H436.221C437.654 237.306 440.182 238.347 433.38 236.591ZM423.842 231.062C423.192 236.056 418.654 236.366 418.158 241.122C443.817 241.122 435.099 238.118 439.096 236.81C444.208 235.711 446.291 236.101 449.237 239.022C449.419 239.202 449.455 236.996 449.317 236.564C447.18 229.84 437.387 227.928 431.91 224.595C431.91 229.996 430.464 230.559 423.842 231.062Z" fill="#7C6C45"/>
<path fill-rule="evenodd" clip-rule="evenodd" d="M300.144 169.623C312.638 175.414 323.68 180.012 335.057 187.789C336.861 189.022 338.651 190.853 340.38 191.775C352.857 201.413 356.566 198.735 367.194 205.604C360.931 185.836 304.516 167.409 300.144 169.623Z" fill="#E88637" stroke="#E88637" stroke-width="0.288" stroke-miterlimit="22.9256"/>
<path fill-rule="evenodd" clip-rule="evenodd" d="M407.093 216.69C411.371 217.595 423.287 223.654 423.287 228.187C433.018 228.998 431.978 220.651 425.122 217.011C419.672 214.115 397.125 205.263 393.598 205.193L392.255 207.276C393.886 208.395 398.999 213.946 402.316 215.399C404.143 216.2 405.615 215.976 407.093 216.69Z" fill="#E88637"/>
<path fill-rule="evenodd" clip-rule="evenodd" d="M350.246 181.826L362.23 194.364C365.017 196.349 370.745 199.707 374.155 199.816L373.303 197.892C372.851 196.839 373.047 198.158 372.48 195.851C367.44 191.273 357.261 178.768 346.318 171.868C337.52 166.319 330.241 166.554 322.685 167.827C326.326 168.273 348.168 178.902 350.246 181.826Z" fill="#D65E39" stroke="#D65E39" stroke-width="0.288" stroke-miterlimit="22.9256"/>
<path fill-rule="evenodd" clip-rule="evenodd" d="M217.909 552.706C216.797 523.534 218.448 523.074 221.444 498.377C214.307 505.894 206.568 524.943 207.634 540.815C207.76 545.317 213.56 549.014 217.909 552.706Z" fill="#D65E39" stroke="#D65E39" stroke-width="0.288" stroke-miterlimit="22.9256"/>
<path fill-rule="evenodd" clip-rule="evenodd" d="M392.698 585.397C412.662 578.988 446.512 560.292 446.065 560.628C421.996 567.462 411.841 568.313 394.794 567.93C386.272 567.736 375.369 562.973 368.665 562.394C369.728 564.798 372.341 560.604 379.056 564.054C393.827 571.637 416.354 566.092 431.999 567.363C429.305 567.962 426.884 568.759 423.105 570.833C418.678 573.259 415.346 573.543 411.128 576.097C407.047 578.569 395.456 581.144 392.698 585.397Z" fill="#E88637" stroke="#E88637" stroke-width="0.288" stroke-miterlimit="22.9256"/>
<path fill-rule="evenodd" clip-rule="evenodd" d="M179.273 264.411C173.925 264.375 168.071 259.79 167.207 254.544C171.96 254.244 173.45 254.781 177.223 255.594C180.56 256.313 184.248 255.851 187.222 256.601C187.118 256.808 186.955 257.042 186.826 257.171L185.904 258.13C185.714 258.255 185.558 258.353 185.343 258.456L178.347 259.421L179.273 264.411ZM184.284 266.946C184.284 266.946 181.559 263.056 181.123 261.244C190.009 257.906 191.885 258.241 199.088 259.807C186.121 253.131 164.163 252.297 164.163 252.297C163.03 259.506 175.87 266.657 184.284 266.946Z" fill="#E88637"/>
<path fill-rule="evenodd" clip-rule="evenodd" d="M183.997 279.926C183.997 287.617 197.663 286.945 201.333 290.367C201.333 290.367 201.871 288.897 200.926 287.533C200.103 286.345 199.367 286.364 198.369 285.675C197.616 283.829 195.532 281.731 211.251 281.546C203.996 278.107 193.635 275.41 184.21 278.964C183.934 279.068 183.976 279.532 183.997 279.926Z" fill="#D67939"/>
<path fill-rule="evenodd" clip-rule="evenodd" d="M201.961 297.172C204.393 301.765 215.049 307.241 216.02 305.253C213.428 298.95 223.091 298.307 223.224 298.131C223.575 297.666 222.017 295.978 224.238 295.735C219.577 293.117 206.531 293.998 201.961 297.172Z" fill="#C25739"/>
<path fill-rule="evenodd" clip-rule="evenodd" d="M235.736 319.448C227.911 312.094 226.476 307.215 244.359 311.544C235.796 308.085 230.54 308.147 223.519 310.106C214.233 313.336 229.573 319.448 235.736 319.448Z" fill="#C25739"/>
<path fill-rule="evenodd" clip-rule="evenodd" d="M395.981 249.028L396.195 249.242C396.181 249.228 395.909 249.099 395.981 249.028ZM393.873 251.184H395.262C394.991 254.43 393.765 263.607 395.262 264.836C396.985 258.385 401.704 254.213 405.323 249.084C403.377 249.346 402.829 249.628 401.32 250.166C401.876 245.235 403.879 245.44 405.606 240.89C400.314 240.562 394.52 246.202 393.873 251.184Z" fill="#D65E39" stroke="#D65E39" stroke-width="0.288" stroke-miterlimit="22.9256"/>
<path fill-rule="evenodd" clip-rule="evenodd" d="M354.302 293.054C355.16 294.083 355.631 295.348 356.18 293.408C357.421 289.11 356.873 287.102 356.673 283.613C356.432 279.429 356.025 277.153 354.743 271.553C354.708 271.4 354.585 269.12 354.507 268.929C346.735 265.974 335.881 266.225 332.283 269.76C338.047 269.189 343.033 270.68 344.425 271.042C352.534 273.156 357.164 283.83 354.302 293.054Z" fill="#C25739"/>
<path fill-rule="evenodd" clip-rule="evenodd" d="M179.273 264.41L178.347 259.421L185.343 258.455C185.558 258.353 185.714 258.254 185.904 258.13L186.826 257.17C186.955 257.042 187.118 256.807 187.222 256.6C184.248 255.85 180.56 256.312 177.223 255.593C173.45 254.781 171.96 254.243 167.207 254.544C168.071 259.79 173.925 264.374 179.273 264.41Z" fill="#E88637" stroke="#E88637" stroke-width="0.288" stroke-miterlimit="22.9256"/>
<path fill-rule="evenodd" clip-rule="evenodd" d="M274.54 341.725C266.637 337.433 265.405 338.935 279.569 335.975C276.312 336.247 274.615 336.749 270.227 336.693C254.734 336.494 263.128 344.237 274.54 341.725Z" fill="#C25739"/>
<path fill-rule="evenodd" clip-rule="evenodd" d="M296.815 351.067C289.804 346.695 288.239 344.212 301.127 343.882C298.592 343.291 281.303 342.953 284.595 348.033C287.456 352.451 292.497 351.684 296.815 351.067Z" fill="#C25739"/>
<path fill-rule="evenodd" clip-rule="evenodd" d="M256.575 333.102C251.461 330.514 248.576 326.138 262.323 325.915C260.93 325.247 240.974 324.418 245.564 330.333C248.236 333.779 252.986 333.938 256.575 333.102Z" fill="#C25739"/>
<path fill-rule="evenodd" clip-rule="evenodd" d="M408.915 223.378C410.635 224.052 412.022 225.344 413.038 226.321C416.254 226.351 417.029 227.695 421.85 227.888C421.341 225.512 419.453 225.574 417.93 224.471C416.264 223.263 413.227 219.856 413.227 219.856C410.457 220.614 408.43 218.836 408.43 218.836C408.43 218.836 407.223 220.562 408.915 223.378Z" fill="#687E97"/>
<path fill-rule="evenodd" clip-rule="evenodd" d="M395.472 200.108L389.121 194.033L396.3 204.317C395.859 203.838 395.472 200.108 395.472 200.108Z" fill="#C25739"/>
<g clip-path="url(#clip0_1_1975)">
<path d="M185.423 323.442C183.214 323.442 181.423 321.651 181.423 319.442L181.423 318.809C181.423 316.6 183.214 314.809 185.423 314.809L188.99 314.809C190.094 314.809 191.149 315.265 191.905 316.069L194.83 319.181C195.527 319.923 195.915 320.903 195.915 321.921L195.915 326.551C195.915 328.76 197.706 330.551 199.915 330.551L204.896 330.551C206.246 330.551 207.341 331.645 207.341 332.996C207.341 333.644 207.083 334.266 206.625 334.724L203.337 338.012C202.586 338.762 201.569 339.184 200.508 339.184L197.416 339.184C196.355 339.184 195.337 338.762 194.587 338.012L191.755 335.18C191.004 334.429 190.583 333.412 190.583 332.351L190.583 327.442C190.583 325.233 188.792 323.442 186.583 323.442L185.423 323.442ZM202.673 325.326C202.673 324.285 201.829 323.442 200.788 323.442C199.747 323.442 198.903 322.598 198.903 321.557L198.903 317.113C198.903 315.841 199.935 314.809 201.208 314.809C201.821 314.809 202.408 315.053 202.841 315.487L206.175 318.834C206.921 319.583 207.341 320.598 207.341 321.657L207.341 326.85C207.341 328.139 206.296 329.184 205.007 329.184C203.718 329.184 202.673 328.139 202.673 326.85L202.673 325.326ZM181.423 327.143C181.423 325.854 182.468 324.809 183.757 324.809C185.046 324.809 186.091 325.854 186.091 327.143L186.091 336.85C186.091 338.139 185.046 339.184 183.757 339.184C182.468 339.184 181.423 338.139 181.423 336.85L181.423 327.143ZM188.256 368.461C187.195 368.461 186.177 368.04 185.427 367.29L182.594 364.457C181.844 363.707 181.423 362.689 181.423 361.629L181.423 355.951C181.423 354.522 182.581 353.364 184.011 353.364C185.44 353.364 186.599 354.522 186.599 355.951L186.599 356.596C186.599 358.381 188.046 359.828 189.831 359.828L204.896 359.828C206.246 359.828 207.341 360.923 207.341 362.273C207.341 362.921 207.083 363.543 206.625 364.001L203.337 367.29C202.586 368.04 201.569 368.461 200.508 368.461L188.256 368.461ZM183.855 352.035C182.512 352.035 181.423 350.946 181.423 349.603C181.423 348.959 181.678 348.342 182.132 347.886L185.426 344.579C186.177 343.826 187.196 343.403 188.26 343.403L200.504 343.403C201.567 343.403 202.587 343.826 203.338 344.579L206.175 347.427C206.921 348.177 207.341 349.192 207.341 350.25L207.341 355.912C207.341 357.342 206.182 358.5 204.753 358.5C203.324 358.5 202.165 357.342 202.165 355.912L202.165 355.268C202.165 353.483 200.718 352.035 198.933 352.035L183.855 352.035ZM188.256 397.758C187.195 397.758 186.177 397.337 185.427 396.586L182.594 393.754C181.844 393.004 181.423 391.986 181.423 390.925L181.423 385.248C181.423 383.819 182.581 382.66 184.011 382.66C185.44 382.66 186.599 383.819 186.599 385.248L186.599 385.893C186.599 387.678 188.046 389.125 189.831 389.125L204.896 389.125C206.246 389.125 207.341 390.22 207.341 391.57C207.341 392.218 207.083 392.84 206.625 393.298L203.337 396.586C202.586 397.337 201.569 397.758 200.508 397.758L188.256 397.758ZM183.855 381.332C182.512 381.332 181.423 380.243 181.423 378.9C181.423 378.256 181.678 377.639 182.132 377.183L185.426 373.876C186.177 373.123 187.196 372.699 188.26 372.699L200.504 372.699C201.567 372.699 202.587 373.123 203.338 373.876L206.175 376.724C206.921 377.474 207.341 378.489 207.341 379.547L207.341 385.209C207.341 386.639 206.182 387.797 204.753 387.797C203.324 387.797 202.165 386.639 202.165 385.209L202.165 384.565C202.165 382.779 200.718 381.332 198.933 381.332L183.855 381.332ZM185.423 410.629C183.214 410.629 181.423 408.838 181.423 406.629L181.423 405.996C181.423 403.787 183.214 401.996 185.423 401.996L188.99 401.996C190.094 401.996 191.148 402.453 191.904 403.257L194.83 406.369C195.527 407.111 195.915 408.09 195.915 409.108L195.915 413.738C195.915 415.948 197.706 417.738 199.915 417.738L204.896 417.738C206.246 417.738 207.341 418.833 207.341 420.183C207.341 420.831 207.083 421.453 206.625 421.911L203.337 425.2C202.586 425.95 201.569 426.371 200.508 426.371L197.416 426.371C196.355 426.371 195.337 425.95 194.587 425.2L191.755 422.367C191.004 421.617 190.583 420.6 190.583 419.539L190.583 414.629C190.583 412.42 188.792 410.629 186.583 410.629L185.423 410.629ZM202.673 412.514C202.673 411.473 201.829 410.629 200.788 410.629C199.747 410.629 198.903 409.785 198.903 408.744L198.903 404.301C198.903 403.028 199.935 401.996 201.208 401.996C201.821 401.996 202.408 402.24 202.841 402.674L206.175 406.021C206.921 406.771 207.341 407.786 207.341 408.844L207.341 414.037C207.341 415.326 206.296 416.371 205.007 416.371C203.718 416.371 202.673 415.326 202.673 414.037L202.673 412.514ZM181.423 414.33C181.423 413.041 182.468 411.996 183.757 411.996C185.046 411.996 186.091 413.041 186.091 414.33L186.091 424.037C186.091 425.326 185.046 426.371 183.757 426.371C182.468 426.371 181.423 425.326 181.423 424.037L181.423 414.33Z" fill="#E88637"/>
</g>
<defs>
<clipPath id="clip0_1_1975">
<rect width="113" height="27" fill="white" transform="translate(207.923 314.199) rotate(90)"/>
</clipPath>
</defs>
</svg>
