<svg width="726" height="45" viewBox="0 0 726 45" fill="none" xmlns="http://www.w3.org/2000/svg">
<g clip-path="url(#clip0_110_350)">
<path d="M21.3145 25.1445L25.7305 6.65039L31.4746 27.5684L26.7266 45H13.4121L0.230469 0.939453H14.8398L21.3145 25.1445ZM52.459 45H38.4473L26.3613 0.939453H41.1699L52.459 45ZM52.5918 0.939453H65.9727L54.0195 42.709L48.043 19.2344L52.5918 0.939453ZM83.6699 26.9043V45H68.9941V0.939453H83.6699V18.4043H97.7148V26.9043H83.6699ZM85.9941 9.47266V0.939453H108.938V13.6895H95.125V9.47266H85.9941ZM85.9941 45V36.2012H94.2617V31.7852H108.938V45H85.9941ZM162.527 40.1855H148.117L151.172 31.4531H159.141L147.354 0.939453H161.664L179.229 45H164.387L162.527 40.1855ZM144.199 45H130.021L145.76 2.93164L152.268 20.4297L144.199 45ZM183.412 45V0.939453H198.088V45H183.412ZM200.412 9.73828V0.939453H217.18L226.012 9.73828V22.9531L219.238 29.7266L218.773 28.7969L204.994 30.623L205.525 31.7852H200.412V23.252H211.436V9.73828H200.412ZM227.506 45H211.834L205.525 31.7852H217.18L219.238 29.7266L227.506 45ZM247.428 26.9043V45H232.752V0.939453H247.428V18.4043H261.473V26.9043H247.428ZM249.752 9.47266V0.939453H272.695V13.6895H258.883V9.47266H249.752ZM249.752 45V36.2012H258.02V31.7852H272.695V45H249.752ZM311.377 45H305.533L296.701 36.2012V9.73828L305.533 0.939453H311.377V45ZM313.701 9.73828V0.939453H329.34L338.139 9.73828V18.6035H323.463V9.73828H313.701ZM313.701 45V36.2012H323.463V29.7598H338.139V36.2012L329.34 45H313.701ZM372.969 0.939453H387.777V45H373.068V27.1035H362.178V18.2715H372.969V0.939453ZM359.854 45H345.178V0.939453H359.854V45ZM424.434 40.1855H410.023L413.078 31.4531H421.047L409.26 0.939453H423.57L441.135 45H426.293L424.434 40.1855ZM406.105 45H391.928L407.666 2.93164L414.174 20.4297L406.105 45ZM445.352 0.939453H460.957L472.777 20.5293L482.074 4.5918V26.7715L471.482 45L445.352 0.939453ZM484.232 45V0.939453H498.908V45H484.232ZM445.318 45V5.02344L459.031 28.0332V45H445.318ZM506.611 45V0.939453H521.021V45H506.611ZM523.346 9.73828V0.939453H539.814L548.613 9.73828V24.8457L539.814 33.6777H523.346V24.8457H534.004V9.73828H523.346ZM554.424 35.6035H558.84V10.3027H554.424V0.939453H577.932V10.3027H573.516V35.6035H577.932V45H554.424V35.6035ZM598.717 36.0352H604.229V45H592.939L584.008 36.2012V9.73828L592.939 0.939453H604.229V9.87109H598.717V36.0352ZM612.164 9.87109H606.553V0.939453H617.941L626.84 9.73828V36.2012L617.941 45H606.553V36.0352H612.164V9.87109ZM675.947 45H660.342L633.646 0.939453H649.152L675.947 45ZM633.646 45V5.12305L646.43 26.0742V45H633.646ZM675.947 0.939453V40.8164L663.164 19.7656V0.939453H675.947ZM710.943 45V28.498H691.885L683.053 19.666V9.73828L691.885 0.939453H696.865V16.5781H717.119L725.652 25.4102V36.2012L716.854 45H710.943ZM699.189 8.875V0.939453H716.82L724.457 8.60938V13.291H710.943V8.875H699.189ZM683.053 31.7852H697.729V37.0312H708.619V45H690.457L683.053 36.2012V31.7852Z" fill="url(#paint0_linear_110_350)"/>
</g>
<defs>
<linearGradient id="paint0_linear_110_350" x1="720.5" y1="78.9997" x2="-144.5" y2="72.4999" gradientUnits="userSpaceOnUse">
<stop stop-color="#F25F4C"/>
<stop offset="0.625" stop-color="#F25F4C"/>
<stop offset="1" stop-color="#E53170"/>
</linearGradient>
<clipPath id="clip0_110_350">
<rect width="726" height="45" fill="white"/>
</clipPath>
</defs>
</svg>
