<svg width="620" height="153" viewBox="0 0 620 153" fill="none" xmlns="http://www.w3.org/2000/svg">
<path d="M0 6.39999C0 4.15979 0 3.03969 0.435974 2.18404C0.819467 1.43139 1.43139 0.819467 2.18404 0.435974C3.03969 0 4.15979 0 6.4 0H44.5651C46.8053 0 47.9254 0 48.781 0.435974C49.5337 0.819467 50.1456 1.43139 50.5291 2.18404C50.9651 3.03969 50.9651 4.15979 50.9651 6.4V61.9713C50.9651 64.2115 50.9651 65.3316 51.4011 66.1873C51.7845 66.9399 52.3965 67.5518 53.1491 67.9353C54.0048 68.3713 55.1249 68.3713 57.3651 68.3713H91.6105C93.8507 68.3713 94.9708 68.3713 95.8265 68.8073C96.5791 69.1908 97.1911 69.8027 97.5746 70.5553C98.0105 71.411 98.0105 72.5311 98.0105 74.7713V92.0639C98.0105 94.3041 98.0105 95.4242 97.5746 96.2799C97.1911 97.0325 96.5791 97.6445 95.8265 98.028C94.9708 98.4639 93.8507 98.4639 91.6105 98.4639H57.3651C55.1249 98.4639 54.0048 98.4639 53.1491 98.8999C52.3965 99.2834 51.7845 99.8953 51.4011 100.648C50.9651 101.504 50.9651 102.624 50.9651 104.864V146.6C50.9651 148.84 50.9651 149.96 50.5291 150.816C50.1456 151.569 49.5337 152.181 48.781 152.564C47.9254 153 46.8053 153 44.5651 153H6.4C4.15979 153 3.03969 153 2.18404 152.564C1.43139 152.181 0.819467 151.569 0.435974 150.816C0 149.96 0 148.84 0 146.6V6.39999ZM65.4366 30.5532C63.1964 30.5532 62.0762 30.5532 61.2206 30.1173C60.468 29.7338 59.856 29.1218 59.4725 28.3692C59.0366 27.5135 59.0366 26.3934 59.0366 24.1532V6.4C59.0366 4.15979 59.0366 3.03969 59.4725 2.18404C59.856 1.43139 60.468 0.819467 61.2206 0.435974C62.0762 0 63.1964 0 65.4366 0H130.352C132.593 0 133.713 0 134.568 0.435974C135.321 0.819467 135.933 1.43139 136.316 2.18404C136.752 3.03969 136.752 4.15979 136.752 6.4V44.3304C136.752 46.5706 136.752 47.6907 136.316 48.5464C135.933 49.299 135.321 49.9109 134.568 50.2944C133.713 50.7304 132.593 50.7304 130.352 50.7304H92.188C89.9478 50.7304 88.8277 50.7304 87.972 50.2944C87.2194 49.9109 86.6075 49.299 86.224 48.5464C85.788 47.6907 85.788 46.5706 85.788 44.3304V36.9532C85.788 34.713 85.788 33.5929 85.352 32.7373C84.9685 31.9846 84.3566 31.3727 83.604 30.9892C82.7483 30.5532 81.6282 30.5532 79.388 30.5532H65.4366ZM250.213 36.9532C250.213 34.713 250.213 33.5929 249.777 32.7373C249.393 31.9846 248.781 31.3727 248.029 30.9892C247.173 30.5532 246.053 30.5532 243.813 30.5532H218.794C216.554 30.5532 215.434 30.5532 214.578 30.1173C213.825 29.7338 213.213 29.1218 212.83 28.3692C212.394 27.5135 212.394 26.3934 212.394 24.1532V6.4C212.394 4.15979 212.394 3.03969 212.83 2.18404C213.213 1.43139 213.825 0.819467 214.578 0.435974C215.434 0 216.554 0 218.794 0H268.901C269.877 0 270.365 0 270.824 0.10998C271.231 0.207489 271.62 0.368326 271.978 0.586617C272.381 0.832826 272.726 1.17715 273.418 1.86578L300.333 28.6772C301.028 29.3695 301.375 29.7157 301.624 30.12C301.844 30.4785 302.007 30.8695 302.105 31.2786C302.216 31.74 302.216 32.2305 302.216 33.2114V59.0338C302.216 60.0122 302.216 60.5014 302.106 60.9618C302.008 61.3699 301.846 61.7601 301.627 62.118C301.379 62.5217 301.033 62.8676 300.341 63.5594L291.406 72.4939C289.822 74.078 289.03 74.8701 288.733 75.7834C288.472 76.5868 288.472 77.4523 288.733 78.2557C289.03 79.169 289.822 79.9611 291.406 81.5452L300.341 90.4796C301.033 91.1714 301.379 91.5173 301.627 91.921C301.846 92.2789 302.008 92.6691 302.106 93.0772C302.216 93.5376 302.216 94.0268 302.216 95.0052V119.789C302.216 120.77 302.216 121.26 302.105 121.722C302.007 122.131 301.844 122.522 301.624 122.88C301.375 123.284 301.028 123.631 300.333 124.323L273.418 151.134C272.726 151.823 272.381 152.167 271.978 152.413C271.62 152.632 271.231 152.793 270.824 152.89C270.365 153 269.877 153 268.901 153H218.794C216.554 153 215.434 153 214.578 152.564C213.825 152.181 213.213 151.569 212.83 150.816C212.394 149.96 212.394 148.84 212.394 146.6V128.847C212.394 126.607 212.394 125.487 212.83 124.631C213.213 123.878 213.825 123.266 214.578 122.883C215.434 122.447 216.554 122.447 218.794 122.447H243.813C246.053 122.447 247.173 122.447 248.029 122.011C248.781 121.627 249.393 121.016 249.777 120.263C250.213 119.407 250.213 118.287 250.213 116.047V96.2177C250.213 93.9775 250.213 92.8574 249.777 92.0017C249.393 91.2491 248.781 90.6372 248.029 90.2537C247.173 89.8177 246.053 89.8177 243.813 89.8177H218.794C216.554 89.8177 215.434 89.8177 214.578 89.3817C213.825 88.9982 213.213 88.3863 212.83 87.6337C212.394 86.778 212.394 85.6579 212.394 83.4177V69.5823C212.394 67.3421 212.394 66.222 212.83 65.3663C213.213 64.6137 213.825 64.0018 214.578 63.6183C215.434 63.1823 216.554 63.1823 218.794 63.1823H243.813C246.053 63.1823 247.173 63.1823 248.029 62.7463C248.781 62.3628 249.393 61.7509 249.777 60.9983C250.213 60.1426 250.213 59.0225 250.213 56.7823V36.9532ZM153.357 6.39999C153.357 4.15979 153.357 3.03969 153.793 2.18404C154.177 1.43139 154.789 0.819467 155.541 0.435974C156.397 0 157.517 0 159.757 0H197.922C200.162 0 201.282 0 202.138 0.435974C202.89 0.819467 203.502 1.43139 203.886 2.18404C204.322 3.03969 204.322 4.15979 204.322 6.4V146.6C204.322 148.84 204.322 149.96 203.886 150.816C203.502 151.569 202.89 152.181 202.138 152.564C201.282 153 200.162 153 197.922 153H159.757C157.517 153 156.397 153 155.541 152.564C154.789 152.181 154.177 151.569 153.793 150.816C153.357 149.96 153.357 148.84 153.357 146.6V6.39999ZM373.361 115.47C373.361 117.71 373.361 118.831 373.797 119.686C374.18 120.439 374.792 121.051 375.545 121.434C376.401 121.87 377.521 121.87 379.761 121.87H386.101C388.341 121.87 389.461 121.87 390.317 122.306C391.069 122.69 391.681 123.302 392.065 124.054C392.501 124.91 392.501 126.03 392.501 128.27V146.6C392.501 148.84 392.501 149.96 392.065 150.816C391.681 151.569 391.069 152.181 390.317 152.564C389.461 153 388.341 153 386.101 153H355.919C354.951 153 354.467 153 354.011 152.892C353.606 152.795 353.219 152.637 352.864 152.422C352.463 152.179 352.118 151.839 351.428 151.159L324.189 124.327C323.485 123.633 323.133 123.287 322.881 122.88C322.658 122.52 322.493 122.127 322.393 121.715C322.281 121.25 322.281 120.756 322.281 119.768V33.2324C322.281 32.2439 322.281 31.7497 322.393 31.2852C322.493 30.8733 322.658 30.48 322.881 30.1198C323.133 29.7136 323.485 29.3667 324.189 28.6731L351.428 1.84064C352.118 1.16113 352.463 0.821367 352.864 0.578494C353.219 0.363153 353.606 0.20456 354.011 0.108425C354.467 0 354.951 0 355.919 0H386.101C388.341 0 389.461 0 390.317 0.435974C391.069 0.819467 391.681 1.43139 392.065 2.18404C392.501 3.03969 392.501 4.15979 392.501 6.4V24.6156C392.501 26.8558 392.501 27.9759 392.065 28.8316C391.681 29.5842 391.069 30.1962 390.317 30.5797C389.461 31.0156 388.341 31.0156 386.101 31.0156H379.761C377.521 31.0156 376.401 31.0156 375.545 31.4516C374.792 31.8351 374.18 32.447 373.797 33.1997C373.361 34.0553 373.361 35.1754 373.361 37.4156V115.47ZM420.059 37.4156C420.059 35.1754 420.059 34.0553 419.623 33.1997C419.239 32.447 418.628 31.8351 417.875 31.4516C417.019 31.0156 415.899 31.0156 413.659 31.0156H406.973C404.733 31.0156 403.613 31.0156 402.757 30.5797C402.004 30.1962 401.392 29.5842 401.009 28.8316C400.573 27.9759 400.573 26.8558 400.573 24.6156V6.4C400.573 4.15979 400.573 3.03969 401.009 2.18404C401.392 1.43139 402.004 0.819467 402.757 0.435974C403.613 0 404.733 0 406.973 0H437.492C438.463 0 438.948 0 439.405 0.108938C439.81 0.205525 440.198 0.364858 440.554 0.581171C440.956 0.825143 441.301 1.1664 441.992 1.84893L469.123 28.6744C469.824 29.3676 470.175 29.7143 470.426 30.1199C470.648 30.4795 470.812 30.8721 470.911 31.283C471.023 31.7465 471.023 32.2395 471.023 33.2255V119.775C471.023 120.761 471.023 121.254 470.911 121.717C470.812 122.128 470.648 122.521 470.425 122.88C470.175 123.286 469.824 123.632 469.123 124.326L441.992 151.151C441.301 151.834 440.956 152.175 440.554 152.419C440.198 152.635 439.81 152.794 439.405 152.891C438.948 153 438.463 153 437.492 153H406.973C404.733 153 403.613 153 402.757 152.564C402.004 152.181 401.392 151.569 401.009 150.816C400.573 149.96 400.573 148.84 400.573 146.6V128.27C400.573 126.03 400.573 124.91 401.009 124.054C401.392 123.302 402.004 122.69 402.757 122.306C403.613 121.87 404.733 121.87 406.973 121.87H413.659C415.899 121.87 417.019 121.87 417.875 121.434C418.628 121.051 419.239 120.439 419.623 119.686C420.059 118.831 420.059 117.71 420.059 115.47V37.4156ZM527.063 47.6775C527.063 45.4372 527.063 44.3171 527.499 43.4615C527.882 42.7089 528.494 42.0969 529.247 41.7134C530.102 41.2775 531.222 41.2775 533.463 41.2775H573.703C575.943 41.2775 577.063 41.2775 577.919 41.7134C578.672 42.0969 579.284 42.7089 579.667 43.4615C580.103 44.3171 580.103 45.4373 580.103 47.6775V146.6C580.103 148.84 580.103 149.96 579.667 150.816C579.284 151.569 578.672 152.181 577.919 152.564C577.063 153 575.943 153 573.703 153H533.463C531.222 153 530.102 153 529.247 152.564C528.494 152.181 527.882 151.569 527.499 150.816C527.063 149.96 527.063 148.84 527.063 146.6V47.6775ZM487.168 6.4C487.168 4.15979 487.168 3.03969 487.604 2.18404C487.987 1.43139 488.599 0.819467 489.352 0.435974C490.207 0 491.328 0 493.568 0H613.6C615.84 0 616.96 0 617.816 0.435974C618.569 0.819467 619.181 1.43139 619.564 2.18404C620 3.03969 620 4.15979 620 6.4V26.9218C620 29.162 620 30.2821 619.564 31.1378C619.181 31.8904 618.569 32.5023 617.816 32.8858C616.96 33.3218 615.84 33.3218 613.6 33.3218H493.568C491.328 33.3218 490.207 33.3218 489.352 32.8858C488.599 32.5023 487.987 31.8904 487.604 31.1378C487.168 30.2821 487.168 29.162 487.168 26.9218V6.4Z" fill="#E88637"/>
</svg>
