<?xml version="1.0" encoding="UTF-8"?>
<!DOCTYPE svg PUBLIC "-//W3C//DTD SVG 1.1//EN" "http://www.w3.org/Graphics/SVG/1.1/DTD/svg11.dtd">
<!-- Creator: CorelDRAW 2019 (64 Bit) -->
<svg xmlns="http://www.w3.org/2000/svg" xml:space="preserve" width="420mm" height="297mm" version="1.1" style="shape-rendering:geometricPrecision; text-rendering:geometricPrecision; image-rendering:optimizeQuality; fill-rule:evenodd; clip-rule:evenodd"
viewBox="0 0 42000 29700"
 xmlns:xlink="http://www.w3.org/1999/xlink"
 zoomAndPan="magnify">
 <defs>
  <style type="text/css">
   <![CDATA[
    .fil0 {fill:#F2F2F2}
   ]]>
  </style>
 </defs>
 <g id="Camada_x0020_1">
  <metadata id="CorelCorpID_0Corel-Layer"/>
  <g id="_2546171065648">
   <path class="fil0" d="M39194.01 11016.98c-6.62,34.36 -10.28,41.83 -18.37,59.15l-3.23 3290.53 -6.92 2002.95 -2220.05 16.44c-2.04,-3.29 -7.2,4.04 -10.68,6.28 -7.67,201.41 -110.99,470.56 -194.01,617.53 -99.8,176.66 -247.36,322.48 -396.43,441.56 -180.85,144.48 -854.86,599.24 -1030.57,630.48l-2368.47 1372.83c-56.59,34.43 -108.65,58.67 -157.85,93.35l-0.07 3504.97c61.61,-1.96 76.26,-19.48 112.62,-41.32l259.07 -145.54c2.69,-1.56 6.12,-3.74 8.76,-5.34l414.84 -241.22c128.24,-73.46 256.46,-148.78 388.22,-225.99l4647.26 -2737.5 439.8 -341.82c23.01,-20.87 19.14,-15.27 39.35,-30.3 17.32,-12.88 1.13,1.43 23.96,-18.36 1.05,-0.9 18.72,-18.27 21.19,-20.76 182.11,-184.4 351.7,-366.72 480.07,-594.63l104.79 -202.71c7.69,-18.95 10.86,-26.78 20.86,-48.55l99.07 -291.95c105.42,-388.89 172.16,-958.42 170.27,-1365.52 -1,-215.74 14.12,-394.93 13.93,-600.48l-0.01 -5571.2c-86.87,1.76 -340.22,165.23 -424.94,217.25l-301 173.43c-44.58,23.75 -59.88,44.24 -111.46,56.44z"/>
   <path class="fil0" d="M29842.3 18081.79c-98.86,-9.25 -114.24,-31.64 -180.21,-70.88l-453.32 -273.04c-105.85,-68.36 -192.24,-122.72 -291.55,-196.65l-261.7 -207.94c-156.88,-20.04 -1422.54,-5.84 -1689.21,-4.54 -100.58,0.49 -107.86,-19.97 -162.74,-61.79 -40.23,-30.68 -76.85,-59.11 -118.15,-90.83l-707.37 -546.34 -3.87 -1670.91 1.16 -1552.77 -1.26 -2335.24c-7.83,-14.91 -15.68,-28.32 -26,-54.19 -99.88,-51.62 -753.37,-455.04 -839.31,-462.62 24.55,810.58 1.64,1658.56 1.64,2473.28 0,823.81 -0.16,1647.64 0.26,2471.44 0.09,194.23 -13.52,440.07 0.36,627.88 6.72,90.98 13.58,178.88 13.58,293.67 0.08,706.55 43.21,1707.29 449.44,2315.01 44.49,66.57 80.44,116.21 126.61,180.37l552.05 537.09c30.9,22.8 57.18,40.56 88.2,65.28 58.14,46.36 113.66,87.74 176.66,130.38l1531.93 938.92c68.77,41.4 123.97,72.35 193.96,113.27l3122.27 1805.4c65.9,40.6 128.32,70.85 196.05,111.16 34.52,20.55 63.48,35.27 97.46,56.01l486.2 281.53c56.48,30.95 132.48,95.71 209.17,97.53l-0.34 -3504.26 -1262.06 -733.75c-124.8,-73.6 -1210.33,-678.36 -1249.91,-732.47z"/>
   <path class="fil0" d="M26256.59 10682.53c81.59,29.45 632.63,363 762.56,435.83l1150.17 664.82c61.29,35.43 124.96,77.16 186.15,108.65 67.7,34.83 133.48,-32.19 198.75,-68.61 765.85,-427.41 1526.74,-895.93 2300.8,-1329.55 411.2,-230.36 1138.03,-708.02 1709.01,-710.8 573.57,-2.79 1304.14,467.69 1714.97,704.75 737.69,425.67 1549.86,911.41 2291.84,1324.39 234.33,130.43 152.54,117 387.82,-15.25 630.65,-354.48 1299.08,-767.54 1927.35,-1112.84l-2727.78 -1596.67c-21.48,26.43 -28.76,21.74 -103.96,20.7 -37.6,-0.53 -74.84,-0.73 -112.46,-0.73l-6951.02 -17.89c-106.55,41.18 -557.32,319.61 -701.31,401.23l-1356.96 793.25c-114.44,66.89 -222.88,131.19 -343.74,200.81 -97.63,56.24 -252.57,135.63 -332.19,197.91z"/>
   <path class="fil0" d="M24719.77 14647.03c3.1,-1363.58 0.15,-2727.52 0.15,-4091.14 0,-616.06 -91.61,-437.49 251.67,-655.72l1333.62 -774.64c18.64,-8.99 20.19,-7.8 38.22,-17.16 57.74,-29.97 109.5,-64.83 167.77,-97.76l443.27 -254.64c15.02,-9.45 16.77,-10.13 34.59,-21.08l1548.6 -894.33c14.52,-8.45 27.9,-16.25 43.59,-26.51l1790.15 -1030.1c5.16,-2.72 25.91,-11.58 38.1,-17.05l842.56 -427.8c167.95,-85.33 368.93,-152.07 548.36,-220.27 182.51,-69.36 392.14,-90.64 579.57,-117.18 68.22,-9.66 -17.77,-11.59 44.48,-11.6l307.06 0.07c25.47,0 39.13,14.01 97.71,13.95 157.66,-0.14 557.09,117.5 699.86,178.16l28.38 13.74c47.92,22.81 77.96,32.88 129.36,53.17 252.38,99.63 759.81,349.06 982.7,483.04l169.28 96.23c2.74,1.55 6.3,3.49 9.1,4.97l297.55 162.68c75.6,43.7 148.59,86.38 229.47,133.59l1734.81 1001.32c18.12,9.37 19.68,8.11 38.27,17.08l43.59 25.61c2.5,1.69 5.69,4.25 8.2,5.95l355.93 202.14c103.06,89.74 238.68,131.15 353.48,204.98 2.53,1.63 5.76,4.1 8.26,5.77l628.13 363.01c2.5,1.68 5.7,4.21 8.21,5.9 2.52,1.71 5.82,4.14 8.36,5.85l264.3 155.12c18.14,9.44 19.46,8.12 38.24,17.15l384.77 230.07c2.75,1.54 6.35,3.42 9.14,4.9l871.74 495.34c25.42,13.11 5.66,2.27 26.01,15.46l50.69 34.24c79.99,49.41 156.59,85.24 229.03,134.18l0.02 5724.31c0.14,322.74 -14.44,610.69 -13.95,935.51l-12.84 223.92c-13.15,144.65 0.28,313.37 -20.06,454.4l-38.28 339.68c-4.32,42.86 -6.85,52 -13.33,98.25l-68.79 363.99c-12.84,53.9 -26.59,112.65 -43.59,165.84 -82.25,257.44 -188.7,515.73 -361.14,727.55 -0.04,0.05 -21.78,29.85 -23.57,32.55 -5.53,8.42 -20.16,32.41 -21.18,33.77 -17.98,23.93 -29.32,28.46 -49.69,48.74 -29.78,29.64 -24.33,32.11 -49.56,62.31 -178.61,213.77 -412.66,372.97 -628.69,544.2 -48.21,38.21 -77.26,58.39 -129.4,93.87 -47.4,32.26 -75.08,55.01 -122.68,86.52l-120.3 74.88c-2.69,1.56 -6.21,3.59 -8.86,5.19 -2.65,1.58 -6.11,3.74 -8.7,5.37l-390.32 252.19c-188.45,96.92 -352.77,208.8 -535.13,316.08l-500.58 296.17c-2.47,1.67 -5.72,4.14 -8.23,5.76l-739.6 417.81c-2.71,1.54 -6.18,3.64 -8.85,5.23l-926.83 538.97c-17.64,9.97 -17.39,8.6 -36.82,18.67l-376.13 225.52c-2.57,1.54 -6.03,3.67 -8.68,5.13 -2.66,1.48 -6.26,3.34 -8.99,4.74l-633.26 357.29c-17.66,10.86 -5.41,3.91 -25.45,16.59 -89.5,56.68 -181.25,100.14 -272.78,160.09 -3.51,2.29 -13.44,9.19 -16.9,11.52 -2.51,1.7 -5.7,4.23 -8.21,5.9l-734.04 424.67c-108.42,69.92 -236.8,123.02 -346.56,197.67l-329.77 186.11c-24.26,15.35 -38.42,23.92 -60.3,37.26 -92.12,56.19 -142.52,105.19 -200.68,71.6l-858.64 -496.43c-119.51,-82.58 -253.89,-149.47 -379.98,-220.99 -25.35,-14.38 -28.07,-18.75 -61.17,-36.62l-234.02 -128.18c-2.73,-1.41 -6.32,-3.27 -8.99,-4.75 -2.63,-1.47 -6.09,-3.6 -8.66,-5.15 -2.57,-1.55 -5.92,-3.87 -8.44,-5.49 -226.62,-145.84 -463.96,-268.59 -694.6,-409.25 -2.62,-1.6 -6.01,-3.82 -8.68,-5.38l-610.83 -352.13c-34.59,-21.83 8.21,2.21 -35.24,-21.1l-1250.13 -717.78c-23.36,-14.23 -46.22,-29.06 -68.53,-43.07l-376.67 -209.13c-2.73,-1.4 -6.32,-3.27 -8.98,-4.75l-893.31 -531.32c-2.6,-1.65 -6.04,-3.84 -8.66,-5.45l-408.33 -247.73c-22.99,-15.54 -42.29,-30.97 -66.03,-45.68 -30.44,-18.85 -39.63,-20.8 -70.8,-40.87l-571.33 -405.9c-198.9,-156.86 -303.23,-241.72 -472.86,-434.67 -227.37,-258.59 -372.32,-495.81 -487.19,-838.92 -42.08,-125.69 -152.03,-554.27 -151.68,-699.93 0.2,-81.71 -13.91,-95.21 -13.96,-181.51l-41.8 -460.78 -14.12 -2429.55zm-335.11 -4733.43l0.1 6646.35c0.06,61.35 11.87,69.27 14.35,125.34l13.62 572.8c0.04,136.3 56.22,450.53 55.7,558.52 -1,202.68 137.13,740.25 220.3,911.47 23.38,48.13 15.41,20.13 34.87,76.38 91.63,264.89 279.71,480.66 447.4,696.99l208.99 209.75c2.32,1.74 5.84,3.96 8.22,5.64l74.85 64.83c47.01,52.14 108.3,85.46 161.46,130.95l356.62 272.83c50.05,31.79 89.09,58.5 134.21,88.85l346.16 226.02c4.55,3.21 29.74,21.41 32.57,23.31l1178.48 691.27c3.42,2.34 12.95,9.48 16.37,11.86l298.37 176.8c2.57,1.62 5.94,3.92 8.55,5.53 2.61,1.61 6,3.86 8.66,5.42l46.24 23.87c35.26,17.72 45.34,25.42 79.89,45.05 51.91,29.49 91.48,50.27 142.21,81.45l192.27 114.97c29.75,17.11 43.31,20.92 73.73,37.98l733.57 424.85c98.06,58.89 194.35,112.49 292.02,168.54l285.46 160.44c164.5,109.98 343.36,196.9 511.22,299.37l116.83 63.69c19.48,13.11 17.13,12.47 33.75,23.04 22.73,14.45 46.4,27.5 70.45,40.98l590.88 344.78c2.67,1.59 6.13,3.7 8.85,5.23l46.45 23.32c33.06,17.69 47.86,28.8 79.4,46.04l126.9 67.94c2.73,1.4 6.33,3.27 8.99,4.75 2.64,1.47 6.11,3.58 8.68,5.14l288.83 172.78c14.89,9.19 16.5,10.09 34.28,21.4l187.64 105.71c26.58,15.63 38.29,28.21 70.8,40.26 83.21,30.85 270.41,164.1 382.46,218.02 171.34,82.46 117.06,130.8 293.6,11.52l542.61 -307.83c165.96,-91.6 348.55,-221.94 511.5,-298.34l232.94 -129.89c2.65,-1.57 6.03,-3.83 8.65,-5.44l405.38 -236.62c186.08,-96.56 361.97,-217.5 549.68,-315.5l1854.71 -1077.55c250.27,-119.47 484.66,-282.13 727.13,-417.26l175.7 -103.76c22.71,-10.84 17.13,-6.84 37.42,-18.1 26.23,-14.55 41.19,-25.32 70.87,-40.44l1583.23 -1014.12c16.08,-10.67 18.72,-11.22 33.6,-21.68l285.46 -231.46c10.45,-9.78 16.21,-17.04 27.2,-28.47 69.32,-71.99 163.67,-144.45 223.42,-223.74l60.75 -77.03c28.08,-25.54 17.79,-21.12 30.87,-39.52l52.08 -60.12c116.55,-137.34 177.18,-299.2 226.23,-358.82l27.31 -44.07c17.7,-35.5 21.49,-49.42 37.65,-87.88 120.53,-286.85 196.61,-584.26 249.83,-895.06 43.37,-253.19 93.49,-983.92 93.18,-1247.32 -2.66,-2285.11 11.58,-4570.48 -0.31,-6855.56 -106.28,-25.51 -239.65,-132.15 -339.47,-191.12 -19.11,-11.29 -20.55,-11.1 -36.68,-19.42l-125.26 -69.78c-28.28,-16.45 -24.34,-18.16 -61.55,-36.25l-185.77 -107.09c-45.02,-25.42 -79.44,-44.13 -124.24,-71.34l-133.64 -75.05c-80.8,-54.51 -162.96,-93.68 -246.58,-145.07 -19.23,-11.82 -40.9,-25.37 -60.12,-37.47 -234.52,-147.72 -484.18,-265.26 -717.24,-413.43l-470.32 -269.71c-40.89,-24.4 -86.35,-51.87 -123.18,-72.33l-504.61 -290.96c-41.6,-25.24 -84.36,-48.47 -124.13,-71.35l-1056.18 -604.2c-2.63,-1.47 -6.09,-3.6 -8.66,-5.15l-59.19 -39.6c-152.77,-94.57 -471.79,-287.82 -629.89,-361 -0.75,-0.34 -26.45,-12.28 -28.05,-13.17l-33.46 -22.27c-15.7,-11.05 -40.9,-29.67 -58.64,-40.19l-399.48 -228.73c-126.41,-72.79 -257.68,-126.38 -382.44,-202.72l-623.13 -327.04c-42.21,-21.26 -81.94,-44.64 -132.78,-62.53l-272.37 -118.71c-24.08,-8.5 -46.75,-14.36 -71.32,-24.92 -204.37,-87.86 -469.2,-180.6 -698.33,-210.47 -479.68,-62.55 -918.55,-49.87 -1381.43,107.75 -373.64,127.23 -695.2,282.9 -1049.5,457.96l-979.87 541.86c-24.82,14.7 -25.06,15.75 -53.28,30.01l-105.06 63.74c-2.43,1.72 -5.62,4.28 -8.08,5.96 -2.45,1.68 -5.71,4.14 -8.2,5.76 -125.92,81.88 -518.58,281.82 -692.44,395.69 -3.5,2.29 -13.46,9.17 -16.92,11.5l-42.56 27.07c-6.38,3.27 -24.9,10.41 -38.25,16.9 -39.64,19.29 -77.08,43.33 -116.16,65.2l-68.31 44.42c-2.46,1.71 -5.66,4.26 -8.13,5.93 -2.48,1.68 -5.73,4.14 -8.24,5.76l-1116.82 641.16c-42.68,24.78 -82.56,47.39 -124.64,70.95 -18.41,10.31 -32.49,17.98 -52.99,30.41l-51.22 33.6c-99.15,66 -211.86,111.17 -313.29,174.44 -220.19,137.37 -454.6,247.24 -669.49,392.15l-116.64 64.05c-196.5,119.41 -409.13,219.94 -600.9,348.91 -113.23,76.15 -248.84,132.65 -362.95,209.38l-478.63 274.61c-78.63,46.12 -201.63,75.47 -201.63,189.45z"/>
   <path class="fil0" d="M1273.31 15582.1c-20.76,164.93 187.8,784.36 271.62,982.3l151.82 324.42c29.71,42.01 102.25,204.19 170.42,303.28 109.38,159 122.79,202.79 266.95,362.31 24.06,26.64 -1.89,-4.08 22.94,32.23 52,76.09 229.84,266.38 315.71,325.52 41.31,28.44 127.7,137.54 284.05,232.64 67.32,40.95 105.49,94.85 226.58,150.62l44.95 23.97c2.5,1.63 5.68,4.17 8.17,5.83 92.69,61.96 277.83,134.28 388.58,170.97 444.49,147.21 986.42,116.82 1572.42,116.82 2256.31,0 4513.61,-7.18 6769.79,-0.22 -0.19,-100.78 -139.98,-297.3 -190.84,-382.12l-145.71 -231.8c-74.02,-138.02 -101.48,-168.26 -185.07,-289.01 -73.91,-106.79 -124.3,-189.24 -222.57,-280.66 -2.77,-2.57 -21.15,-20.72 -21.22,-20.82 -1.87,-2.21 -4.25,-5.59 -6.02,-7.89 -1.79,-2.31 -3.84,-5.95 -5.58,-8.32 -1.74,-2.37 -3.66,-6.11 -5.41,-8.47 -40.06,-54.2 -31.73,-23.85 -73.43,-64.59 -35.89,-35.07 -37.19,-46.01 -78.11,-76.67 -261.18,-195.73 -510.34,-255.62 -854.62,-291l-403.64 -15.28c-72.26,0.49 -79.69,-7.07 -139.53,-13.08 -162.22,-16.29 -413.97,-1.97 -585.7,-1.84 -190.48,0.15 -3766.79,10.43 -3873.04,-6.35 -43.86,-6.92 -91.24,-5.42 -140.9,-12.77 -117.11,-17.35 -252.44,-40.67 -352.43,-79.86 -36.57,-14.33 -74.2,-33.92 -112.88,-32.71l-1159.68 -3.71c-224.7,0.1 -172.13,9.46 -324.17,-69.29 -131.56,-68.15 -835.44,-508.43 -903.4,-689.03 -28.82,-51.01 -128.89,-156.09 -178.23,-225.74 -34.1,-48.14 -139.17,-206.22 -145.81,-257.4l-360.59 1.96c-19.53,33.82 -4.67,11.94 -25.42,35.76z"/>
   <path class="fil0" d="M20017.92 16503.28l-55.94 100.51c-18.16,28.79 -41.04,65.04 -62.61,90.91 -20.54,24.65 -53.58,56.53 -77.46,75.79l-89.85 63.73c-169.03,92.65 -272.51,88.18 -525.57,88.18l-4648.48 -0.71c-86.59,0.52 -113.75,15.91 -292.71,14.43 -246.88,-2.04 -564.38,43.68 -793.49,128.3 -35.48,13.11 -70.97,26.02 -109.46,44.18 -47.45,22.4 -63.85,35.12 -106.71,60.85l-131.69 91.79c-228.68,201.58 -507.31,585.43 -640.84,839.02 -21.56,40.95 -32.85,59.06 -55.77,97.6l-171.32 289.38c-25.53,40.82 -42.16,56.63 -42.12,125.03 2535.7,-8.56 5072.48,6.32 7607.21,0.75l498.64 -59.98c220.22,-46.32 354.27,-95.68 557.15,-196.54l83.26 -42.2c18.44,-10.96 17.81,-11.64 34.23,-21.89 167.37,-104.63 396.9,-265.81 518.07,-417.02l237.32 -320.95c9.71,-14.63 25.36,-34.78 34.36,-49.67 131.24,-217.03 334.4,-717.54 290.89,-930.71l-1.39 -203.28 -1557.41 3.56c-101.04,59.94 -207.6,149.88 -314.34,216.93 -103.9,65.25 -218.75,136.78 -332.81,189.11 45.36,-43.96 181.76,-196.58 148.84,-277.1z"/>
   <path class="fil0" d="M26199.11 10681.49l57.48 1.04c79.62,-62.28 234.56,-141.67 332.19,-197.91 120.86,-69.62 229.3,-133.92 343.74,-200.81l1356.96 -793.25c143.99,-81.62 594.76,-360.05 701.31,-401.23 17.93,-28.57 1482.49,-866.4 1656.91,-967.49 1699.71,-985.01 2234.09,-898.95 3857.38,3.49 433.83,241.17 827.62,484.14 1246.18,722.28l406.97 239.64 2727.78 1596.67 61.29 -5.84 834.31 -483.81c37.78,-34.19 24.84,1.35 26.65,-71.38 -66.87,-15.3 -851.68,-478.75 -979.67,-555.91 -37.76,-22.77 -69.05,-38.07 -106.97,-60.56 -78.73,-46.68 -143.27,-80.45 -221.19,-127.7 -145.21,-88.06 -284.36,-165.54 -433.09,-250.79l-645.95 -373.35c-74.09,-39.74 -148.81,-83.42 -222.6,-126.29l-1079.75 -623.42c-322.74,-178.74 -782.46,-469.18 -1089.02,-627.92l-439.04 -245.06c-174.23,-106.76 -737.19,-376.15 -920.14,-447.96 -463.56,-181.96 -866.95,-300.88 -1428.9,-220.23 -54.69,7.85 -99.6,17.68 -142.51,24.91 -352.33,59.38 -936.9,316.79 -1238.43,478.78 -38.05,20.44 -62.26,38.13 -106.74,60.57l-443.02 240.91c-40.84,23.77 -71.47,35.49 -109.12,58.5 -412.8,252.15 -984.61,564.37 -1417.39,816 -148.05,86.09 -286.76,162.32 -433.33,250.89l-2982.88 1721.48c-42.17,32.11 -29.94,5.06 -34.77,63.34l754.45 432.09c49.94,28.64 65.7,27.07 110.91,70.32z"/>
   <path class="fil0" d="M12354.36 11378.02c209.69,403.39 582.17,980.17 968.51,1195.05 440.81,245.18 1283,202.42 1961.5,201.99l4062.07 -0.28c89.84,-0.08 192.47,27.08 255.76,21.39 -17.96,-66.28 161.56,37.39 191.71,41.86 98.66,14.62 1671.12,-14.06 1955.7,3.88 -80.89,-321.23 -328.73,-681.71 -502.8,-850.24 -210.69,-203.98 -501.53,-386.86 -860.99,-507.85 -384.27,-129.34 -807.71,-119.78 -1235.16,-119.78 -1026.27,0 -6700.46,-30.14 -6796.3,13.98z"/>
   <path class="fil0" d="M2098.1 12747.99c23.07,22.14 -0.58,10.16 39.3,17.5l7522.01 -20.42c11.48,11.49 19.97,23.12 27.98,33.61 211.41,-79.95 664.56,58.21 1166.96,-344.25 2.26,-1.81 5.61,-4.25 7.93,-6 2.31,-1.75 5.78,-3.99 8.13,-5.69 94.74,-68.76 216.83,-204.88 280.99,-304.14 2.24,-3.44 8.36,-13.48 10.65,-16.87l385.95 -591.04c32.82,-49.76 50.98,-81.43 78.28,-131.54 -72.17,-40.35 -4931.4,-17.95 -5442.35,-17.95 -455.95,0 -911.91,0 -1367.86,0 -469.89,0 -795.69,-4.39 -1231.75,139.9 -174.68,57.8 -326.19,133.77 -468.89,215.27 -122.2,69.81 -303.9,195.77 -399.86,285.05 -184.68,171.79 -538.96,534.22 -617.47,746.57z"/>
   <path class="fil0" d="M28894.27 12189.55c26.48,35.3 63.38,48.72 98.36,68.07l1228.76 711.61c358.24,206.2 298.98,211.89 460,115.56 295.09,-176.55 597.74,-345.43 893.43,-516.72 225.49,-130.61 679.06,-425.59 989.75,-430 305.6,-4.36 767.06,287.28 987.26,417.83 303.92,180.17 603.99,343.71 902.56,521.6 120.4,71.74 111.3,103.23 229.07,31.92 497.38,-301.16 1081.16,-609.69 1575.05,-910.23l-422.37 -252.77c-147.38,-83.5 -291.86,-167.76 -442.27,-255.54l-1766.92 -1011.15c-878.72,-484.24 -1212.84,-480.44 -2073.85,-17.88 -539.56,289.88 -1239.69,700.18 -1777.05,1015.16 -249.55,146.28 -669.83,373.32 -881.78,512.54z"/>
   <path class="fil0" d="M30666.39 18082.46l829.73 481.29c37.28,21.66 59.57,36.03 96.15,57.59l320.02 182.31c102.87,58.84 342.89,225.64 442.65,228l-3.07 -949.74c-33.71,-68.94 -13.9,-750.62 -14.38,-890.4l-450.36 -261.24c-359.27,-209.32 -1071.54,-592.1 -1327.6,-808.93 -299.32,-253.45 -296.29,-609.74 -301.31,-1125.24 -4.66,-478.5 -0.89,-959.43 -0.89,-1438.18 -9.01,-43.24 -1619.1,-941.34 -1620.45,-941.5 -0.16,621.02 -1.65,1242.04 -1.62,1863.05 0.02,483.93 -21.39,1373.23 59.91,1819.28 137.14,752.41 753.24,1052.95 1384.74,1420.24l555.82 323.14c24.46,20.34 19.07,6.75 30.66,40.33z"/>
   <path class="fil0" d="M14363.38 14811.94c51.11,-13.95 4.36,-18.13 112.09,125.35l19.49 23.48c25.44,30.28 30.89,35.16 47.55,66.86l6687.86 1.01 12.49 -55.72c-0.01,-190.94 -34.82,-69.16 157.97,-322.69 192.62,-253.32 393.47,-682.28 416.49,-1020.76 -73.02,41.58 -335.67,16.46 -447.38,16.46l-1349.62 0c14.97,-57.3 59.6,-140.91 24.2,-198.38 -11.38,15.93 -3.26,0.15 -12.42,29.03 -57.07,179.64 -80.54,320.67 -333.05,462.23 -170.12,95.37 -533.19,66.16 -771.71,66.16l-5024.76 -0.21c2.92,110.99 400.36,722.7 460.8,807.18z"/>
   <path class="fil0" d="M28990.79 9089.33l6951.02 17.89c37.62,0 74.86,0.2 112.46,0.73 75.2,1.04 82.48,5.73 103.96,-20.7l-406.97 -239.64c-418.56,-238.14 -812.35,-481.11 -1246.18,-722.28 -1623.29,-902.44 -2157.67,-988.5 -3857.38,-3.49 -174.42,101.09 -1638.98,938.92 -1656.91,967.49z"/>
   <path class="fil0" d="M32790.23 18081.91l-2.38 948.93c66.9,0.86 91.93,-19 161.66,-60.78 2.64,-1.58 5.97,-3.94 8.58,-5.54 28.1,-17.25 24.38,-15.94 53.43,-28.94l103.96 -64.93c203.05,-128.51 507.7,-286.45 726.77,-417.84 25.34,-15.2 21.35,-15.11 52.23,-31.3l108.06 -58.4c5.54,-2.48 25.43,-10.58 29.53,-12.81l74.41 -52.13c75.29,-47.63 328.63,-178.79 370.92,-218.5 15.23,-41.4 105.4,-77.38 146.27,-101.36 319.21,-187.34 810.25,-458.81 1082.16,-649.38 204.7,-143.48 382.2,-278.02 522.26,-468.64 99.2,-135.01 270.28,-512.09 238.13,-749.37 -9.03,-51.51 2.48,-70.6 7.39,-125.55l-1760.44 5c-69.52,59.89 -122.48,125.19 -200.92,187.07 -183.96,145.1 -521.05,328.23 -726.19,446.38 -329.43,189.75 -657.29,391.28 -982.74,566.46 -2.03,145.15 18.73,817.24 -13.09,891.63z"/>
   <path class="fil0" d="M36988.61 14367.98l2183.8 -1.32 3.23 -3290.53c-123.16,39.1 -2029.35,1187.43 -2186.12,1248.46l-0.91 2043.39z"/>
   <path class="fil0" d="M28655.52 17333.28c-53.33,-97.99 -273.91,-228.96 -391.77,-674.11 -63.95,-241.5 -107.38,-672.11 -96.56,-961.93 -47.43,-98.55 -27.68,-589.45 -27.68,-738.37l-2165.33 0 3.87 1670.91 707.37 546.34c41.3,31.72 77.92,60.15 118.15,90.83 54.88,41.82 62.16,62.28 162.74,61.79 266.67,-1.3 1532.33,-15.5 1689.21,4.54z"/>
   <path class="fil0" d="M34713.17 15990.37l1760.44 -5c-4.91,54.95 -16.42,74.04 -7.39,125.55 17.68,-21.12 4.7,6.91 14.41,-29.3 24.53,-91.44 32.08,-718.99 32.14,-806.26 0.17,-297.88 -0.88,-595.75 -1,-893.63 -0.23,-580.94 16.1,-1190.34 -3.14,-1767.84l-1624.88 930.92c-1.56,431.92 -1.54,864.83 -1.87,1297.7 -0.2,256.88 9.13,674.5 -62.03,916.56 -31.25,106.29 -74.05,150.13 -106.68,231.3z"/>
   <path class="fil0" d="M12354.36 11378.02c95.84,-44.12 5770.03,-13.98 6796.3,-13.98 427.45,0 850.89,-9.56 1235.16,119.78 359.46,120.99 650.3,303.87 860.99,507.85 174.07,168.53 421.91,529.01 502.8,850.24 95.37,226.95 75.96,527.89 67.71,787.56 -23.02,338.48 -223.87,767.44 -416.49,1020.76 -192.79,253.53 -157.98,131.75 -157.97,322.69 78.75,171.65 -97.21,646.21 -165.69,758.29 -31.03,100.94 -182.75,282.41 -251.2,353.99 -54.96,57.49 -96.71,98.52 -154.79,153.06 -52.97,49.74 -106.66,85.55 -154.95,136.08l1557.41 -3.56 1.39 203.28c28.81,-31.28 12.93,11.4 20.72,-55.48l-1.05 -209.96c0.22,-264.31 -34.26,-497.82 -116.05,-734.87 -26.44,-76.62 -51.69,-128.22 -80.07,-198.88 -45.25,-112.63 -140.7,-259.04 -210.32,-362.11 -41.97,-62.12 -83.29,-107.6 -122.93,-170.27 118.13,-78.89 280.81,-399.4 344.3,-535.25 309.67,-662.65 237.02,-1509.44 -146.14,-2134.43l-179.71 -253.04c-356.85,-439.57 -846.22,-707.13 -1421.79,-797.83 -260.58,-41.06 -582.36,-21.58 -871.75,-21.58 -2358.89,0 -4717.77,0 -7076.66,0 1.64,71.41 95.33,227.55 140.78,277.66z"/>
   <path class="fil0" d="M36934.76 16392.33c3.48,-2.24 8.64,-9.57 10.68,-6.28l2220.05 -16.44 6.92 -2002.95 -2183.8 1.32c15.33,674.28 4.33,1372.08 -53.85,2024.35z"/>
   <path class="fil0" d="M14363.38 14811.94c150.28,284.63 497.93,636.54 797.22,740.58 388.8,135.16 875.38,141.31 1393.92,141.48l2693.85 0.24c61.42,0 135.12,-3.7 195.04,0.44 57.03,3.93 115.7,26.82 167.7,20.41 32.35,-27.58 -56.55,-8.8 28,-8.69 51.86,0.06 2.08,29.66 307.14,29.64 255.86,-0.01 970.96,15.64 1130.92,-4.83 68.48,-112.08 244.44,-586.64 165.69,-758.29l-12.49 55.72 -6687.86 -1.01c-16.66,-31.7 -22.11,-36.58 -47.55,-66.86l-19.49 -23.48c-107.73,-143.48 -60.98,-139.3 -112.09,-125.35z"/>
   <path class="fil0" d="M1525.57 14601.67l-3.6 144.94 1729.37 0.02c5.67,-111.29 -8.94,-140.99 43.18,-173.72 -4.81,-207.01 109.76,-621.1 204.18,-810.88 175.8,-353.33 240.14,-342.61 378.18,-516.67l47.03 -45.37c131.17,-65.18 254.57,-247.7 696.46,-354.1 315.64,-76 643.94,-55.96 977.33,-55.96l2568.23 0c497.7,0 1027.56,-46.01 1521.46,-11.25 -8.01,-10.49 -16.5,-22.12 -27.98,-33.61l-7522.01 20.42c-39.88,-7.34 -16.23,4.64 -39.3,-17.5 -105.81,70.6 -331.88,660.03 -387.96,831.84 -69.77,213.74 -209.23,806.03 -184.57,1021.84z"/>
   <path class="fil0" d="M25975.34 13406.1l2178.06 0 -13.89 1552.77c0,148.92 -19.75,639.82 27.68,738.37l-6.77 -3363.76c-2.81,-6.8 -2092.07,-1225.16 -2186.34,-1262.62l1.26 2335.24z"/>
   <path class="fil0" d="M1273.31 15582.1c20.75,-23.82 5.89,-1.94 25.42,-35.76l360.59 -1.96c-50.21,-193.52 -156.73,-291.2 -159.86,-687.91 -0.35,-44.69 1.58,-95.11 3.47,-140l22.64 -114.8c-24.66,-215.81 114.8,-808.1 184.57,-1021.84 56.08,-171.81 282.15,-761.24 387.96,-831.84 78.51,-212.35 432.79,-574.78 617.47,-746.57 95.96,-89.28 277.66,-215.24 399.86,-285.05 142.7,-81.5 294.21,-157.47 468.89,-215.27 436.06,-144.29 761.86,-139.9 1231.75,-139.9 455.95,0 911.91,0 1367.86,0 510.95,0 5370.18,-22.4 5442.35,17.95 16.01,-16.39 0.01,2.06 18.83,-23.47l62.02 -105.91c28.44,-53.17 58.18,-73.05 59.99,-149.42 -2515.83,0 -5036.15,14.99 -7551.41,-0.15l-412.86 47.76c-144.58,29.32 -253.5,59.69 -370.76,103.91l-122.74 44.4c-20.64,8.29 -22.44,9.03 -48.21,22.2l-305.91 168.49c-247.36,146.95 -519.98,380.88 -712.09,587.26 -97.02,104.22 53.93,-29.41 -97.16,110.73l-105.89 131.99c-52.34,70.43 -204.93,283.47 -228.97,351.24 -11.06,31.18 5.15,4.04 -10.65,28.44l-16.86 18.76c-65.66,75.48 -168,303.2 -215.61,399.57 -105.5,213.5 -175.43,486.01 -241.4,707.9 -125.04,420.54 -97.5,890.1 -97.27,1326.84 0.1,180.74 -4.74,202.17 27.27,377.86l16.71 54.55z"/>
   <polygon class="fil0" points="25974.18,14958.87 28139.51,14958.87 28153.4,13406.1 25975.34,13406.1 "/>
   <path class="fil0" d="M1525.57 14601.67l-22.64 114.8c-1.89,44.89 -3.82,95.31 -3.47,140 3.13,396.71 109.65,494.39 159.86,687.91 6.64,51.18 111.71,209.26 145.81,257.4 49.34,69.65 149.41,174.73 178.23,225.74 258.07,-6.27 522.17,-1.14 780.93,-1.14 147.78,0 664.2,18.53 767.45,-7.84 -8.34,-35.07 -108.69,-203.65 -168.74,-462.81 -42.1,-181.67 -79.86,-376.51 -82.48,-559.07 -2.13,-149.76 7.43,-295.07 14,-423.75 -52.12,32.73 -37.51,62.43 -43.18,173.72l-1729.37 -0.02 3.6 -144.94z"/>
   <path class="fil0" d="M33655.91 14253.18c-1.3,199.95 -1.06,401.64 -1.66,603.29 -0.63,208.86 4.88,370.38 -107.95,493.7 -93.55,102.24 -585.01,375.59 -741.27,459.49l-2.31 845.54c68,-14.07 602.24,-336.87 703.84,-395.27 217.81,-125.18 512.99,-284.36 679.25,-437.17 233.82,-214.91 219.32,-479.59 219.83,-882.51 0.46,-366.44 9.78,-749.7 -1.94,-1114.26l-747.79 427.19z"/>
   <path class="fil0" d="M30739 13976.81l-0.88 963.44c1.04,712.75 64.48,826.08 548.38,1110.4 118.67,69.72 1001.42,591.64 1048.47,601.29l1.13 -841.28 -571.51 -335.77c-336.33,-203.52 -276.68,-428.96 -276.93,-869.75l-1.26 -359.71 -744.3 -425.6 -3.1 156.98z"/>
   <path class="fil0" d="M31048.42 13440.44l731.85 428.92c101.78,36.4 540.63,-350.19 783.78,-354.81 242.5,-4.6 698.36,380.07 790.58,361.22 20.37,-4.17 333.2,-190.82 373.88,-214.05 123.07,-70.28 250.57,-151.06 368.46,-212.75 -32.49,-44.77 -616.66,-365.3 -719.15,-425.89 -183.73,-108.64 -548.71,-342.96 -799.66,-344.63 -280.71,-1.87 -879.92,380.43 -1166.41,550.44 -113.95,67.62 -256.95,135.61 -363.33,211.55z"/>
   <path class="fil0" d="M19602.2 12796.17c26.14,28.95 90.06,41.94 170.41,97.39 183.99,126.95 272.55,300.84 271.91,553.99 35.4,57.47 -9.23,141.08 -24.2,198.38l1349.62 0c111.71,0 374.36,25.12 447.38,-16.46 8.25,-259.67 27.66,-560.61 -67.71,-787.56 -284.58,-17.94 -1857.04,10.74 -1955.7,-3.88 -30.15,-4.47 -209.67,-108.14 -191.71,-41.86z"/>
   <path class="fil0" d="M1983.36 16027.52c67.96,180.6 771.84,620.88 903.4,689.03 152.04,78.75 99.47,69.39 324.17,69.29l1159.68 3.71 -140.48 -75.13c-231.28,-150.59 -471.83,-327.15 -616.81,-570.67 -8.34,-14.01 -6.1,-11.25 -14.81,-26.91l-60.76 -91.29c-1.12,-1.37 -3.79,-4.87 -6.01,-7.01 -103.25,26.37 -619.67,7.84 -767.45,7.84 -258.76,0 -522.86,-5.13 -780.93,1.14z"/>
   <path class="fil0" d="M19611.11 15715.09c40.27,42.44 354.63,139.04 419.04,509.44 26.01,149.6 -7.57,155.85 -12.23,278.75 32.92,80.52 -103.48,233.14 -148.84,277.1 114.06,-52.33 228.91,-123.86 332.81,-189.11 106.74,-67.05 213.3,-156.99 314.34,-216.93 48.29,-50.53 101.98,-86.34 154.95,-136.08 58.08,-54.54 99.83,-95.57 154.79,-153.06 68.45,-71.58 220.17,-253.05 251.2,-353.99 -159.96,20.47 -875.06,4.82 -1130.92,4.83 -305.06,0.02 -255.28,-29.58 -307.14,-29.64 -84.55,-0.11 4.35,-18.89 -28,8.69z"/>
  </g>
 </g>
</svg>
