<svg width="1681" height="387" viewBox="0 0 1681 387" fill="none" xmlns="http://www.w3.org/2000/svg">
<path d="M1392 127.975C1387.85 127.041 1383.73 125.836 1379.53 125.255C1375.56 124.694 1371.51 124.881 1367.5 124.59C1364.92 124.403 1362.35 123.697 1359.77 123.739C1355.41 123.822 1351 124.029 1346.74 124.777C1342.54 125.504 1338.49 126.978 1334.38 128.12C1333.27 131.028 1330.2 129.533 1328.43 130.758C1325.81 132.564 1323.01 133.935 1320.66 136.448C1318.81 138.421 1315.69 139.77 1314.32 142.304C1312.14 146.291 1308.52 149.448 1308 154.452C1307.71 157.194 1305.88 159.769 1305.05 162.489C1304.51 164.254 1304.39 166.186 1304.3 168.055C1303.64 181.075 1306.61 193.016 1315.17 203.213C1319.62 208.529 1325.19 212.308 1331.4 215.299C1337.82 218.393 1344.72 219.805 1351.67 221.093C1351.75 221.093 1349.21 220.677 1351.91 221.093C1354.62 221.508 1356.64 221.508 1360.23 221.508C1363.81 221.508 1366.05 221.404 1368.94 221.217C1373.09 220.927 1377.29 220.677 1381.4 220.013C1385.56 219.328 1389.63 218.144 1393.71 217.189V200.077C1392.77 200.015 1391.98 199.931 1391.19 199.931C1386.2 199.911 1381.18 199.454 1376.25 200.035C1372.61 200.471 1369.85 199.101 1366.94 197.689C1362.45 195.508 1360.29 191.832 1360.31 186.869C1360.31 179.518 1360.31 172.146 1360.31 164.607H1445.87C1445.99 166.269 1446.2 167.972 1446.2 169.674C1446.22 191.625 1446.2 213.596 1446.26 235.546C1446.26 237.353 1445.81 238.433 1444.12 239.222C1440.99 240.696 1437.85 242.233 1434.88 243.998C1430.2 246.781 1424.92 248.006 1419.93 249.958C1412.83 252.72 1405.39 254.07 1397.9 255.42C1390.44 256.77 1382.92 257.393 1375.38 258.037C1368.1 258.66 1360.87 257.891 1353.64 258.203C1352.25 258.265 1350.85 258.556 1349.46 258.493C1347.34 258.39 1345.22 258.161 1343.1 257.87C1338.93 257.268 1334.73 256.791 1330.61 255.898C1324.96 254.672 1319.37 253.177 1313.78 251.64C1311.37 250.976 1308.96 250.125 1306.69 249.045C1299.67 245.66 1292.54 242.462 1285.83 238.537C1281.46 235.982 1277.62 232.452 1273.8 229.046C1264.32 220.615 1257.61 210.273 1252.52 198.685C1249.94 192.829 1249.4 186.682 1248.01 180.639C1246.8 175.344 1247.38 170.027 1247.99 164.711C1248.34 161.492 1248.4 158.253 1248.86 155.055C1249.09 153.456 1250.06 151.981 1250.38 150.403C1251.81 142.74 1256.21 136.469 1259.91 129.844C1263.55 123.323 1268.6 117.986 1273.9 112.94C1277.02 109.97 1281.03 107.935 1284.6 105.422C1293.48 99.2132 1303.33 94.9768 1313.66 91.9864C1320.22 90.0759 1327.02 88.9129 1333.71 87.397C1335.56 86.9816 1337.39 86.3586 1339.26 86.0471C1340.09 85.9018 1341.32 86.7117 1341.81 86.3379C1343.89 84.8427 1345.99 85.9848 1348.07 85.881C1351.02 85.7356 1353.97 85.1957 1356.92 85.1542C1361.99 85.0919 1367.04 85.3618 1372.11 85.3203C1377.39 85.2788 1382.53 86.4002 1387.72 86.857C1393.77 87.397 1399.65 88.5599 1405.43 90.3458C1409.96 91.758 1414.47 93.2324 1419 94.6653C1421.37 95.4129 1423.78 96.0359 1426.08 96.9289C1427.14 97.3442 1427.93 98.4656 1428.99 98.9017C1434.44 101.082 1438.95 104.758 1443.85 107.831C1445.43 108.828 1447.24 109.472 1448.94 110.282V113.272C1445.85 114.227 1444.73 116.989 1443.27 119.461C1443.02 119.897 1442.56 120.25 1442.21 120.624C1441.73 121.143 1441.28 121.662 1440.8 122.181C1440.36 122.659 1439.93 123.178 1439.45 123.614C1439.24 123.801 1438.62 123.905 1438.62 123.967C1439.05 126.874 1435.94 126.999 1434.71 128.619C1432.96 130.945 1429.91 132.294 1427.44 134.101C1426.58 134.724 1425.79 135.451 1425.02 136.074C1424.34 136.074 1423.45 136.032 1422.57 136.074C1418.89 136.24 1414.92 137.341 1411.64 136.282C1409.36 135.555 1406.05 136.199 1404.35 133.333C1403.97 132.71 1402.25 132.897 1400.88 132.668C1399.09 129.699 1395.7 129.055 1392.27 128.515C1392.21 128.328 1392.13 128.141 1392.07 127.975H1392Z" fill="#52658C"/>
<path d="M1082.92 86.5042C1083.73 86.5042 1084.56 86.5042 1085.37 86.5042C1107.79 86.5042 1130.24 86.5042 1152.66 86.5042C1156.13 86.5042 1159.62 86.8157 1163.09 86.8364C1164.32 86.8364 1165.56 86.4419 1167.08 86.1511C1168.93 87.5217 1176.18 88.1655 1177.39 87.3971C1179.61 87.6879 1181.15 87.8955 1182.71 88.1032C1184.68 89.5984 1187.26 89.3077 1189.73 89.3907C1190.34 89.3907 1190.96 89.5153 1191.54 89.6607C1191.75 89.7022 1191.96 90.1383 1192.1 90.0968C1195.05 89.37 1197.53 91.0728 1200.21 91.6751C1200.77 91.7997 1201.27 92.1942 1201.83 92.3396C1203.33 92.7342 1204.82 93.0457 1206.32 93.4402C1206.9 93.5856 1207.44 93.8763 1207.98 94.1255C1208.85 94.5409 1209.68 95.0808 1210.58 95.3715C1211.89 95.8076 1213.92 94.7278 1214.26 97.1575C1217.37 96.5552 1218.2 100.086 1220.91 100.75C1223.03 101.29 1225.48 102.951 1226.6 105.506C1226.91 106.212 1227.68 106.731 1228.3 107.292C1232.17 110.78 1234.75 115.162 1237.55 119.482C1239.4 122.347 1238.84 125.545 1240.36 128.266C1240.86 129.138 1241.17 130.135 1241.71 131.422C1240.59 133.063 1240.67 134.994 1242.06 137.113C1242.52 137.819 1241.94 139.231 1241.81 140.311C1241.65 141.598 1241.42 142.886 1241.27 144.173C1241.11 145.523 1241.33 147.039 1240.82 148.243C1238.86 152.729 1235.87 156.945 1234.83 161.617C1233.92 165.812 1230.45 166.954 1228.3 169.571C1222.8 176.32 1215.19 180.203 1207.42 183.734C1206.53 184.149 1205.61 184.544 1204.53 185C1225.64 208.778 1246.68 232.452 1267.73 256.168C1267.67 256.168 1267.17 256.375 1266.69 256.375C1248.75 256.375 1230.8 256.666 1212.86 256.23C1206.05 256.064 1199.9 252.97 1195.24 247.633C1191.54 243.376 1187.95 239.035 1184.19 234.82C1180.96 231.206 1177.45 227.821 1174.29 224.166C1171.67 221.134 1169.39 217.791 1166.87 214.655C1165.86 213.388 1164.57 212.329 1163.42 211.146C1162.16 209.837 1160.83 208.591 1159.66 207.2C1158.19 205.435 1156.94 203.462 1155.42 201.738C1152.37 198.25 1149.33 194.719 1143.85 195.716C1142.25 196.007 1140.56 195.758 1138.63 195.758V256.292H1082.92V86.5042ZM1138.76 160.849C1148.79 160.662 1158.77 161.763 1168.47 159.187C1172.3 158.17 1176.14 156.571 1179.49 154.453C1186.66 149.926 1187.68 140.851 1185.06 133.852C1182.94 128.183 1177.78 125.815 1172.26 124.756C1167.62 123.863 1162.86 123.407 1158.13 123.22C1151.7 122.97 1145.28 123.157 1138.74 123.157V160.849H1138.76Z" fill="#52658C"/>
<path d="M929.464 87.397C929.423 88.3938 929.381 89.3906 929.381 90.3666C929.381 123.178 929.152 155.989 929.443 188.801C929.547 200.16 934.68 209.235 945.154 214.655C948.23 216.254 951.41 217.708 954.652 218.933C955.878 219.411 957.416 219.078 958.829 219.141C961.78 219.286 964.752 219.681 967.682 219.598C974.477 219.411 981.128 218.206 987.383 215.444C995.322 211.935 1001.02 206.162 1003.18 197.689C1004.28 193.369 1004.65 188.78 1004.67 184.315C1004.8 152.916 1004.74 121.517 1004.74 90.1174C1004.74 89.1414 1004.74 88.1653 1004.74 87.0024H1060.62C1060.62 87.9577 1060.62 88.8506 1060.62 89.7228C1060.62 121.454 1060.62 153.186 1060.62 184.917C1060.62 187.451 1061.18 190.005 1060.85 192.476C1060.39 195.965 1059.33 199.392 1058.6 202.86C1056.96 210.772 1053.39 217.812 1048.69 224.312C1039.86 236.481 1027.8 244.331 1014.07 249.979C1005.44 253.53 996.402 255.462 987.341 257.331C984.868 257.85 982.25 257.58 979.735 257.933C972.441 258.992 965.126 258.224 957.852 258.203C951.534 258.182 945.217 256.438 938.878 255.586C928.342 254.174 918.928 249.772 909.555 245.12C901.97 241.34 895.652 236.024 889.937 229.919C887.049 226.824 884.306 223.543 881.874 220.096C880.544 218.206 879.962 215.797 879.027 213.617C877.822 210.813 876.45 208.051 875.453 205.165C874.85 203.42 874.746 201.468 874.559 199.599C874.164 195.861 873.561 192.102 873.561 188.344C873.478 155.2 873.52 122.057 873.499 88.9129C873.499 88.3315 873.499 87.7708 873.499 86.8155C874.58 86.8155 875.536 86.8155 876.492 86.8155C892.951 86.8155 909.389 86.8155 925.848 86.8155C926.846 86.8155 927.843 86.7532 928.841 86.7117C929.007 86.7532 929.173 86.8155 929.36 86.857C929.402 87.0232 929.423 87.1893 929.464 87.3762V87.397Z" fill="#52658C"/>
<path d="M702.486 256.583C688.937 256.562 675.408 256.521 661.858 256.5C660.881 256.5 659.904 256.5 658.741 256.5C663.998 246.387 669.173 236.46 674.306 226.492C681.31 212.911 688.313 199.329 695.254 185.706C701.032 174.368 706.705 162.988 712.461 151.628C715.911 144.838 719.444 138.089 722.915 131.319C726.427 124.466 729.897 117.592 733.43 110.76C736.589 104.654 739.81 98.5696 743.011 92.4849C743.156 92.1942 743.447 91.9035 743.468 91.6127C743.696 86.3588 747.333 86.7533 751.053 86.7741C765.018 86.8779 778.963 86.8987 792.928 86.7533C795.921 86.7118 797.563 87.4594 798.976 90.3044C803.735 99.9194 808.93 109.306 813.876 118.817C817.388 125.545 820.817 132.336 824.246 139.127C831.208 152.916 838.066 166.747 845.111 180.494C855.918 201.593 866.849 222.65 877.738 243.708C879.858 247.799 881.916 251.911 884.181 256.334C883.038 256.396 882.186 256.458 881.334 256.458C868.117 256.458 854.92 256.313 841.703 256.542C837.401 256.625 833.39 255.96 829.629 254.091C825.244 251.911 822.127 248.484 820.028 244.019C816.204 235.796 812.234 227.655 808.244 219.515C807.912 218.85 806.79 218.165 806.042 218.165C783.119 218.102 760.176 218.082 737.254 218.165C736.444 218.165 735.28 218.912 734.927 219.639C731.02 227.551 727.029 235.463 723.476 243.542C720.712 249.813 715.911 253.343 709.697 255.379C707.682 256.043 705.583 256.396 703.505 256.895C703.172 256.791 702.84 256.666 702.507 256.562L702.486 256.583ZM791.058 183.9C784.512 170.111 778.152 156.695 771.627 142.969C764.977 156.82 758.493 170.298 751.968 183.9H791.058Z" fill="#52658C"/>
<path d="M601.362 193.286C601.321 199.745 601.258 206.203 601.258 212.661C601.258 226.243 601.258 239.845 601.258 253.426V256.271H545.21V86.7117H691.492V123.24H601.383V155.823H677.444V192.829C676.467 192.829 675.511 192.829 674.535 192.829C651.28 192.829 628.004 192.829 604.75 192.829C603.752 192.829 602.755 192.892 601.757 192.912C601.632 193.037 601.508 193.141 601.362 193.265V193.286Z" fill="#52658C"/>
<path fill-rule="evenodd" clip-rule="evenodd" d="M117.337 250.84C114.301 243.673 116.73 221.398 151.747 191.652C186.763 161.906 242.915 132.548 266.614 121.587C294.192 110.289 347.577 89.2113 382.745 81.8757C417.914 74.5401 488.016 60.6964 506.214 91.4874C512.231 105.255 507.776 115.431 505.961 118.552C503.563 124.294 492.683 141.483 472.311 158.77C435.872 186.68 415.949 197.547 415.949 197.547C424.24 202.67 323.688 247.674 275.216 258.175C268.885 259.547 261.987 261.36 254.582 263.306C224.096 271.319 185.023 281.589 141.626 272.593C122.651 264.246 120.88 261.211 117.337 250.84ZM172.241 211.381C169.812 194.586 212.891 171.838 234.734 162.058C267.879 151.603 339.379 129.681 360.227 125.634C386.287 120.575 449.54 118.552 454.6 133.475C459.66 148.399 432.901 166.688 405.828 181.612C378.756 196.535 338.974 209.358 280.782 221.499C234.228 231.212 200.831 227.738 189.951 224.787C183.711 223.27 171.431 217.654 172.241 211.381Z" fill="#FFFDFD"/>
<path d="M347.534 231.663C347.68 231.601 347.846 231.559 347.992 231.497C349.01 231.04 350.049 230.583 351.067 230.126C351.233 230.168 351.358 230.126 351.483 230.002C352.854 229.379 354.205 228.756 355.577 228.154C355.889 228.029 356.2 227.884 356.533 227.759C357.676 227.24 358.84 226.7 359.983 226.181C360.481 225.973 360.959 225.765 361.458 225.558C362.788 224.935 364.118 224.291 365.469 223.668C366.82 223.066 368.171 222.443 369.521 221.841C371.662 220.802 373.802 219.743 375.943 218.705C379.933 216.711 383.923 214.738 387.913 212.745C389.43 211.976 390.947 211.187 392.464 210.419C393.94 209.65 395.395 208.882 396.87 208.114C398.242 207.345 399.634 206.577 401.006 205.809C401.463 205.58 401.899 205.352 402.357 205.144C403.375 204.583 404.393 204.023 405.411 203.462C405.744 203.275 406.056 203.067 406.388 202.881C407.573 202.195 408.778 201.531 409.963 200.845C410.254 200.679 410.565 200.513 410.856 200.347C412.54 199.392 414.202 198.416 415.885 197.46C416.675 197.876 417.652 198.104 418.234 198.706C420.79 201.365 423.346 204.064 425.715 206.889C427.731 209.297 429.435 211.976 431.409 214.448C432.511 215.818 433.945 216.898 435.108 218.227C436.584 219.888 437.893 221.695 439.348 223.398C440.512 224.748 441.821 225.994 442.985 227.364C444.294 228.901 445.458 230.542 446.767 232.078C448.076 233.615 449.531 235.048 450.84 236.564C451.547 237.374 452.087 238.329 452.773 239.181C454.913 241.86 457.033 244.559 459.236 247.197C461.086 249.398 463.101 251.475 464.951 253.676C465.491 254.299 465.741 255.171 466.26 256.23H282.134C282.612 256.002 283.153 255.711 283.714 255.441C286.062 254.693 288.39 253.925 290.738 253.177C293.045 252.43 295.372 251.682 297.679 250.935C300.007 250.104 302.334 249.294 304.662 248.463C305.805 248.069 306.927 247.674 308.07 247.3C309.109 246.906 310.127 246.511 311.166 246.117C311.831 245.909 312.476 245.681 313.141 245.473C315.51 244.601 317.858 243.729 320.227 242.836C320.393 242.836 320.539 242.753 320.622 242.607C321.62 242.233 322.617 241.86 323.615 241.486C325.132 240.904 326.628 240.302 328.145 239.721C330.639 238.724 333.133 237.727 335.626 236.73C336.458 236.377 337.268 236.045 338.099 235.692C339.762 235.007 341.404 234.321 343.066 233.636C343.399 233.491 343.752 233.345 344.085 233.221C345.248 232.722 346.412 232.224 347.576 231.725L347.534 231.663Z" fill="#F8A617"/>
<path d="M328.041 211.685L327.043 211.789C325.547 212.267 324.051 212.724 322.555 213.201C322.388 213.222 322.222 213.243 322.056 213.284C319.832 213.907 317.608 214.53 315.364 215.153C313.265 215.652 311.187 216.171 309.088 216.669C307.093 217.147 305.098 217.625 303.082 218.102C302.562 218.185 302.043 218.268 301.503 218.372C300.526 218.621 299.57 218.871 298.593 219.12C298.074 219.203 297.554 219.286 297.014 219.369C295.705 219.66 294.416 219.93 293.107 220.22C290.218 220.719 287.33 221.238 284.462 221.757C283.526 222.027 282.57 222.297 281.615 222.546C280.742 222.609 279.848 222.671 278.975 222.733C276.045 223.335 273.094 223.938 270.164 224.54C268.834 224.727 267.525 224.893 266.194 225.08C265.488 225.163 264.802 225.225 264.096 225.308C262.475 225.599 260.833 225.89 259.212 226.201C258.214 226.326 257.217 226.45 256.219 226.575C255.554 226.617 254.889 226.637 254.245 226.679C253.414 226.803 252.582 226.949 251.751 227.073C249.091 227.26 246.431 227.468 243.792 227.655C242.961 227.696 242.129 227.738 241.298 227.78C239.635 227.904 237.973 228.029 236.31 228.153C235.479 228.174 234.648 228.216 233.817 228.236C230.221 228.34 226.626 228.465 223.01 228.506C218.978 228.569 214.926 228.527 210.894 228.548C209.897 228.403 208.899 228.257 207.902 228.133C204.743 227.78 201.584 227.426 198.446 227.073C196.617 226.783 194.789 226.492 192.96 226.201C191.65 225.807 190.32 225.433 189.011 225.038C188.512 224.893 187.993 224.727 187.494 224.581C187.64 223.855 187.556 222.92 187.972 222.422C198.529 209.671 209.19 196.962 219.768 184.232C224.693 178.293 229.515 172.249 234.398 166.269C235.334 165.127 236.352 164.047 237.329 162.946C240.488 159.25 243.688 155.574 246.805 151.836C247.907 150.528 248.821 149.074 249.819 147.683C251.814 145.315 253.809 142.968 255.804 140.601L255.783 140.622C256.032 140.435 256.302 140.269 256.552 140.082C256.801 139.75 257.03 139.417 257.279 139.085C258.11 138.109 258.921 137.112 259.752 136.136C260.583 135.139 261.394 134.163 262.225 133.167V133.146C263.888 131.173 265.529 129.179 267.192 127.207C269.748 123.925 272.242 120.603 274.86 117.363C276.731 115.037 278.767 112.857 280.7 110.572C284.711 105.838 288.722 101.103 292.712 96.3681C295.601 92.9416 298.448 89.4943 301.316 86.0471C304.121 82.6829 306.906 79.3187 309.732 75.9545C310.667 74.8331 311.644 73.7532 312.87 72.3411C320.476 81.3953 328.02 90.3873 335.564 99.3793C337.123 101.248 338.66 103.138 340.219 105.007C340.572 105.422 340.926 105.858 341.279 106.274C344.895 110.614 348.532 114.954 352.148 119.294C353.187 120.499 354.226 121.703 355.265 122.929L355.286 122.991C356.512 124.445 357.717 125.878 358.923 127.331C365.344 135.077 371.745 142.844 378.166 150.59C381.221 154.266 384.235 157.983 387.29 161.658C392.693 168.138 398.138 174.617 403.562 181.096C403.873 181.47 404.123 181.864 404.497 182.425C402.336 183.567 400.32 184.626 398.283 185.706C396.787 186.412 395.291 187.139 393.794 187.845C393.129 188.136 392.464 188.427 391.799 188.717C390.635 189.237 389.492 189.756 388.329 190.296C387.996 190.441 387.684 190.586 387.352 190.711C384.152 192.061 380.951 193.411 377.751 194.761C376.13 195.404 374.488 196.048 372.867 196.692C371.184 197.315 369.521 197.959 367.838 198.582C367.672 198.582 367.526 198.644 367.422 198.789L363.848 200.056C363.411 200.222 362.954 200.388 362.518 200.554C361.333 200.991 360.128 201.427 358.943 201.883C356.948 202.548 354.953 203.233 352.958 203.898C350.776 204.645 348.615 205.372 346.433 206.12C344.625 206.681 342.796 207.262 340.988 207.823C339.99 208.134 338.993 208.446 337.995 208.778C335.668 209.463 333.34 210.128 331.013 210.813C330.015 211.125 329.018 211.415 328.02 211.727L328.041 211.685Z" fill="#F8A617"/>
<path d="M352.127 119.253C348.511 114.913 344.874 110.573 341.258 106.232C342.505 105.734 343.752 105.236 344.999 104.716C346.163 104.363 347.327 104.031 348.49 103.678C349.488 103.367 350.485 103.034 351.483 102.723C356.471 101.29 361.479 99.857 366.467 98.4241C366.778 98.3618 367.111 98.2787 367.422 98.2164C372.41 96.9289 377.398 95.6621 382.385 94.3746C383.57 94.1254 384.775 93.8762 385.96 93.6478C387.082 93.357 388.225 93.0663 389.347 92.7756C390.511 92.5887 391.675 92.4225 392.839 92.2356C395.665 91.5919 398.491 90.9273 401.317 90.2836C402.045 90.2836 402.772 90.2836 403.5 90.2628C404.435 89.9721 405.37 89.6813 406.305 89.4114C408.3 89.2037 410.295 89.0168 412.29 88.8091C414.285 88.4561 416.28 88.1238 418.275 87.7708C418.608 87.7708 418.94 87.7916 419.273 87.8123C421.6 87.4593 423.928 87.127 426.256 86.774C428.749 86.4833 431.243 86.1718 433.737 85.881C434.901 85.881 436.064 85.8395 437.228 85.8187C438.891 85.6526 440.553 85.5072 442.216 85.3411C443.38 85.3411 444.543 85.3203 445.707 85.2996C449.032 85.2996 452.357 85.2996 455.682 85.2996C456.825 85.3619 457.989 85.4242 459.132 85.4865C460.462 85.5488 461.813 85.6111 463.143 85.6734C464.141 85.7357 465.138 85.8187 466.136 85.881C466.468 85.9226 466.78 85.9641 467.112 86.0056C469.876 86.5871 472.661 87.1893 475.425 87.7708C476.651 87.9785 477.877 88.1654 479.103 88.373C481.41 89.266 483.717 90.1382 486.024 91.0312C486.356 91.1973 486.689 91.3634 487.021 91.5296C488.04 92.1526 489.058 92.7548 490.076 93.3778C491.718 95.0391 493.339 96.7212 494.981 98.3826C495.376 99.1925 495.77 100.002 496.144 100.833C496.311 101.996 496.477 103.159 496.643 104.322L496.726 109.285C496.539 109.95 496.352 110.614 496.165 111.279C496.165 111.611 496.165 111.943 496.165 112.275C495.791 113.438 495.417 114.601 495.064 115.743C494.191 117.55 493.318 119.357 492.445 121.164C490.97 123.489 489.494 125.795 487.998 128.12H488.019C485.546 131.132 483.073 134.143 480.6 137.154C479.415 138.421 478.231 139.687 477.046 140.954C475.861 142.138 474.656 143.342 473.472 144.526C471.892 145.98 470.313 147.433 468.754 148.887C467.57 149.946 466.364 151.005 465.18 152.064C464.203 152.895 463.226 153.726 462.249 154.556C461.917 154.806 461.605 155.076 461.273 155.325C460.691 155.823 460.109 156.322 459.506 156.82V156.986C459.506 156.986 459.485 156.82 459.506 156.82C457.802 158.107 456.119 159.437 454.352 160.662C454.02 160.89 452.44 162.136 453.272 160.018C453.417 159.852 453.583 159.686 453.729 159.52C455.184 157.692 456.638 155.865 458.093 154.037C458.987 152.438 459.88 150.839 460.795 149.24C462.686 145.398 463.933 141.453 462.624 137.133C462.624 136.635 462.624 136.136 462.624 135.638C461.855 132.315 460.338 129.429 457.719 127.186C456.909 126.48 456.098 125.774 455.288 125.068C454.581 124.507 453.916 123.905 453.147 123.406C447.702 119.938 441.592 118.277 435.379 116.927C434.693 116.823 434.007 116.72 433.321 116.616C431.326 116.346 429.31 116.097 427.315 115.827C426.983 115.785 426.65 115.764 426.318 115.723C425.32 115.577 424.323 115.453 423.325 115.307C422.66 115.287 421.995 115.245 421.33 115.224C420.166 115.079 419.003 114.934 417.839 114.788C414.514 114.643 411.189 114.497 407.864 114.352H403.874C399.717 114.497 395.561 114.643 391.405 114.809C390.74 114.83 390.075 114.851 389.41 114.871C387.913 115.017 386.417 115.162 384.921 115.328C383.923 115.453 382.926 115.577 381.928 115.702C380.931 115.723 379.933 115.764 378.956 115.785C378.125 115.93 377.273 116.076 376.442 116.221C375.964 116.263 375.465 116.283 374.987 116.325C373.823 116.45 372.659 116.595 371.496 116.72C366.342 117.363 361.167 118.007 356.013 118.651C354.746 118.858 353.457 119.066 352.189 119.274L352.127 119.253Z" fill="#52658C"/>
<path d="M255.741 140.56C253.746 142.927 251.751 145.274 249.756 147.641C244.769 149.739 239.76 151.836 234.773 153.913C234.44 154.058 234.128 154.183 233.796 154.328C232.632 154.868 231.468 155.387 230.305 155.927C229.286 156.384 228.289 156.841 227.27 157.298C222.948 159.437 218.625 161.575 214.303 163.714C213.492 164.151 212.682 164.587 211.871 165.023C210.52 165.77 209.17 166.539 207.819 167.286C207.424 167.515 207.05 167.743 206.655 167.972C203.974 169.571 201.293 171.17 198.612 172.769C198.363 172.935 198.093 173.08 197.844 173.246C195.786 174.638 193.729 176.05 191.651 177.441L191.464 177.524C187.307 180.785 183.151 184.066 178.974 187.326C177.457 188.821 175.96 190.317 174.443 191.791C172.137 194.927 169.809 198.083 167.502 201.219C165.341 204.895 164.011 208.82 164.052 213.139C164.323 214.302 164.593 215.486 164.863 216.649C165.528 218.144 166.214 219.639 166.879 221.134C167.897 222.443 168.936 223.73 169.954 225.038C170.225 225.308 170.516 225.599 170.786 225.869C172.822 227.24 174.88 228.61 176.916 229.981C178.205 230.583 179.514 231.185 180.803 231.788C182.985 232.514 185.187 233.22 187.37 233.947C187.681 234.01 188.014 234.093 188.325 234.155C188.99 234.321 189.656 234.466 190.321 234.633C191.838 235.069 193.334 235.484 194.851 235.92C197.179 236.252 199.506 236.585 201.834 236.917C202.166 236.917 202.499 236.896 202.831 236.875C203.995 237.062 205.159 237.228 206.322 237.415C207.32 237.374 208.318 237.353 209.315 237.312C210.479 237.353 211.643 237.395 212.806 237.436C219.29 237.436 225.774 237.436 232.258 237.436C232.923 237.436 233.588 237.395 234.253 237.374C236.082 237.228 237.911 237.104 239.739 236.958C240.903 236.958 242.067 236.938 243.231 236.917C244.062 236.772 244.893 236.626 245.725 236.481C246.888 236.481 248.052 236.439 249.216 236.419C249.735 236.315 250.234 236.211 250.754 236.107C251.897 236.045 253.061 235.982 254.204 235.92C254.557 235.816 254.889 235.712 255.243 235.609C256.386 235.546 257.549 235.484 258.692 235.422C259.025 235.276 259.357 235.131 259.69 234.965C260.355 234.923 261.02 234.861 261.685 234.82C263.181 234.695 264.678 234.55 266.174 234.425C267.047 234.259 267.94 234.113 268.813 233.947C272.263 233.283 275.692 232.618 279.142 231.933C279.807 231.933 280.472 231.933 281.137 231.933C282.134 231.642 283.132 231.351 284.129 231.061L287.122 230.583L294.125 229.213C295.601 228.943 297.076 228.673 298.552 228.382C299.549 228.07 300.547 227.759 301.544 227.447C302.708 227.281 303.872 227.115 305.036 226.928C306.698 226.471 308.361 226.014 310.023 225.558C312.351 225.018 314.678 224.478 317.006 223.938C320.663 222.962 324.321 221.965 327.979 220.989C328.831 220.76 329.683 220.511 330.535 220.283C331.179 220.054 331.823 219.847 332.467 219.618C333.299 219.411 334.109 219.203 334.941 218.995C336.354 218.559 337.767 218.123 339.159 217.687C339.409 217.625 339.658 217.562 339.907 217.521C341.071 217.168 342.235 216.836 343.399 216.483C345.394 215.839 347.389 215.195 349.384 214.53C351.233 213.887 353.062 213.264 354.912 212.62C356.886 211.955 358.86 211.27 360.855 210.606C362.352 210.086 363.848 209.546 365.344 209.027C365.677 208.903 366.009 208.778 366.342 208.633C367.526 208.217 368.732 207.802 369.916 207.387C370.103 207.387 370.228 207.304 370.332 207.158C371.516 206.722 372.722 206.286 373.906 205.85L377.314 204.542C377.979 204.251 378.644 203.96 379.309 203.67C380.473 203.192 381.658 202.714 382.822 202.237C386.313 200.741 389.804 199.246 393.296 197.751C393.628 197.606 393.94 197.46 394.272 197.336C395.623 196.733 396.995 196.131 398.346 195.529C399.966 194.74 401.608 193.951 403.229 193.162C403.686 193.058 404.123 192.933 404.809 192.767C404.289 193.245 403.957 193.535 403.603 193.847C403.603 193.847 403.437 193.93 403.458 193.93C402.543 194.449 401.608 194.968 400.694 195.487C400.174 195.757 399.655 196.027 399.135 196.318C397.805 197.066 396.454 197.813 395.124 198.582C394.667 198.81 394.231 199.039 393.774 199.267C392.09 200.16 390.386 201.074 388.703 201.967C385.731 203.503 382.759 205.04 379.787 206.577C377.439 207.74 375.112 208.903 372.763 210.066C370.436 211.166 368.108 212.288 365.781 213.388C364.305 214.094 362.83 214.8 361.333 215.507C360.315 215.963 359.317 216.42 358.299 216.877C357.156 217.396 355.992 217.936 354.849 218.455C354.517 218.601 354.164 218.746 353.831 218.891C351.711 219.784 349.571 220.657 347.451 221.57C340.78 224.395 334.13 227.24 327.459 230.064C325.464 230.853 323.469 231.642 321.474 232.431C320.289 232.867 319.105 233.304 317.92 233.719C317.754 233.719 317.609 233.781 317.505 233.927L313.805 235.318C312.372 235.837 310.958 236.377 309.524 236.896C308.194 237.374 306.864 237.851 305.514 238.35C304.849 238.558 304.204 238.786 303.539 238.994C301.004 239.866 298.489 240.738 295.954 241.61C292.816 242.669 289.699 243.749 286.561 244.808C284.503 245.452 282.467 246.117 280.409 246.76C279.64 246.989 278.871 247.196 278.103 247.425C276.71 247.861 275.318 248.318 273.925 248.754C273.655 248.816 273.385 248.879 273.115 248.92C270.954 249.564 268.792 250.208 266.631 250.851C265.301 251.204 263.971 251.557 262.641 251.91C261.124 252.347 259.628 252.762 258.11 253.198C257.799 253.26 257.466 253.343 257.155 253.406C253.331 254.382 249.507 255.358 245.683 256.334C244.498 256.625 243.335 256.894 242.15 257.185C240.508 257.58 238.846 257.954 237.204 258.348C236.83 258.39 236.477 258.431 236.103 258.473C231.655 259.428 227.187 260.383 222.74 261.359C222.075 261.359 221.41 261.359 220.745 261.359C218.584 261.816 216.422 262.273 214.261 262.73C213.243 262.875 212.245 263 211.227 263.145C207.59 263.685 203.953 264.225 200.296 264.744C199.963 264.786 199.631 264.807 199.298 264.848L195.807 265.243C195.308 265.284 194.809 265.305 194.311 265.347C193.147 265.471 191.962 265.616 190.799 265.741C189.489 265.762 188.159 265.783 186.85 265.803C185.852 265.845 184.855 265.866 183.857 265.907C178.039 265.907 172.22 265.907 166.422 265.907C165.757 265.886 165.092 265.866 164.427 265.824C163.429 265.824 162.431 265.824 161.434 265.845C160.27 265.679 159.106 265.492 157.943 265.326C154.618 264.64 151.292 263.976 147.967 263.291C146.97 262.979 145.972 262.668 144.975 262.356C144.663 262.252 144.372 262.128 144.06 262.024C142.876 261.567 141.712 261.11 140.528 260.674C139.883 260.363 139.26 260.051 138.616 259.74C137.764 259.22 136.912 258.722 136.08 258.203V258.224C132.942 255.877 130.677 252.866 129.056 249.335C128.237 246.975 128.3 243.977 129.035 240.447C130.074 237.81 131.134 235.152 132.173 232.514C132.34 232.182 132.506 231.871 132.672 231.538C133.441 230.189 134.21 228.839 134.979 227.489C135.187 227.177 135.394 226.845 135.581 226.534C136.246 225.558 136.912 224.561 137.577 223.585H137.556C139.759 220.864 141.961 218.165 144.164 215.444C144.85 214.697 145.536 213.928 146.201 213.181C149.152 210.232 152.103 207.304 155.054 204.355C155.989 203.503 156.904 202.673 157.839 201.821C158.94 200.845 160.021 199.869 161.122 198.893L161.185 198.852C165.133 195.654 169.082 192.456 173.03 189.237C173.3 189.029 173.591 188.821 173.861 188.634C174.9 187.845 175.96 187.056 176.999 186.267C177.644 185.789 178.288 185.333 178.911 184.855C181.239 183.194 183.566 181.532 185.894 179.892C186.559 179.435 187.245 178.999 187.91 178.542C190.715 176.652 193.521 174.783 196.326 172.893C196.825 172.582 197.345 172.25 197.844 171.938C202.665 168.968 207.486 165.999 212.308 163.029C212.619 162.822 212.952 162.635 213.264 162.427C217.254 160.143 221.265 157.858 225.255 155.595C225.733 155.325 226.211 155.076 226.689 154.806C228.039 154.058 229.39 153.331 230.741 152.584C231.551 152.147 232.362 151.711 233.172 151.296C234.856 150.403 236.56 149.51 238.243 148.617C243.272 146.125 248.281 143.612 253.331 141.162C254.037 140.809 254.848 140.684 255.617 140.456L255.741 140.56Z" fill="#52658C"/>
</svg>
