<svg width="137" height="153" viewBox="0 0 137 153" fill="none" xmlns="http://www.w3.org/2000/svg">
<path d="M0 6.39999C0 4.15979 0 3.03969 0.435974 2.18404C0.819467 1.43139 1.43139 0.819467 2.18404 0.435974C3.03969 0 4.15979 0 6.4 0H44.5651C46.8053 0 47.9254 0 48.781 0.435974C49.5337 0.819467 50.1456 1.43139 50.5291 2.18404C50.9651 3.03969 50.9651 4.15979 50.9651 6.4V61.9713C50.9651 64.2115 50.9651 65.3316 51.4011 66.1873C51.7845 66.9399 52.3965 67.5518 53.1491 67.9353C54.0048 68.3713 55.1249 68.3713 57.3651 68.3713H91.6105C93.8507 68.3713 94.9708 68.3713 95.8265 68.8073C96.5791 69.1908 97.1911 69.8027 97.5746 70.5553C98.0105 71.411 98.0105 72.5311 98.0105 74.7713V92.0639C98.0105 94.3041 98.0105 95.4242 97.5746 96.2799C97.1911 97.0325 96.5791 97.6445 95.8265 98.028C94.9708 98.4639 93.8507 98.4639 91.6105 98.4639H57.3651C55.1249 98.4639 54.0048 98.4639 53.1491 98.8999C52.3965 99.2834 51.7845 99.8953 51.4011 100.648C50.9651 101.504 50.9651 102.624 50.9651 104.864V146.6C50.9651 148.84 50.9651 149.96 50.5291 150.816C50.1456 151.569 49.5337 152.181 48.781 152.564C47.9254 153 46.8053 153 44.5651 153H6.4C4.15979 153 3.03969 153 2.18404 152.564C1.43139 152.181 0.819467 151.569 0.435974 150.816C0 149.96 0 148.84 0 146.6V6.39999ZM65.4366 30.5532C63.1964 30.5532 62.0762 30.5532 61.2206 30.1173C60.468 29.7338 59.856 29.1218 59.4725 28.3692C59.0366 27.5135 59.0366 26.3934 59.0366 24.1532V6.4C59.0366 4.15979 59.0366 3.03969 59.4725 2.18404C59.856 1.43139 60.468 0.819467 61.2206 0.435974C62.0762 0 63.1964 0 65.4366 0H130.352C132.593 0 133.713 0 134.568 0.435974C135.321 0.819467 135.933 1.43139 136.316 2.18404C136.752 3.03969 136.752 4.15979 136.752 6.4V44.3304C136.752 46.5706 136.752 47.6907 136.316 48.5464C135.933 49.299 135.321 49.9109 134.568 50.2944C133.713 50.7304 132.593 50.7304 130.352 50.7304H92.188C89.9478 50.7304 88.8277 50.7304 87.972 50.2944C87.2194 49.9109 86.6075 49.299 86.224 48.5464C85.788 47.6907 85.788 46.5706 85.788 44.3304V36.9532C85.788 34.713 85.788 33.5929 85.352 32.7373C84.9685 31.9846 84.3566 31.3727 83.604 30.9892C82.7483 30.5532 81.6282 30.5532 79.388 30.5532H65.4366Z" fill="#E88637"/>
</svg>
