<svg width="1704" height="387" viewBox="0 0 1704 387" fill="none" xmlns="http://www.w3.org/2000/svg">
<g clip-path="url(#clip0_28_891)">
<path d="M182.411 387C180.756 386.718 179.137 386.261 177.483 386.226C152.912 385.874 129.68 380.029 107.398 369.854C93.1063 363.306 80.0468 354.891 67.7617 345.244C66.1425 343.977 64.4176 342.78 62.7632 341.583C63.08 341.125 63.432 340.667 63.7488 340.209H305.332C303.537 342.146 302.305 343.73 300.791 344.962C273.581 366.967 242.71 380.557 207.966 385.134C202.405 385.874 196.773 385.838 191.176 386.226C189.38 386.366 187.62 386.754 185.825 387H182.446H182.411Z" fill="#DF790F"/>
<path d="M1376.81 371.544C1374.73 371.685 1373.29 371.826 1371.81 371.826C1347.59 371.826 1323.41 371.861 1299.19 371.826C1285.92 371.826 1275.75 366.509 1268.78 354.82C1249.49 322.465 1229.88 290.32 1210.59 257.965C1205.7 249.761 1199.04 245.255 1189.33 245.255C1183.17 245.255 1176.97 244.656 1170.81 244.551C1165.64 244.445 1165.39 244.797 1165.39 250.078C1165.39 288.314 1165.39 326.514 1165.39 364.749C1165.39 369.443 1163.08 371.802 1158.46 371.826C1134.52 371.826 1110.62 371.826 1086.68 371.826C1081.12 371.826 1080.88 371.579 1080.88 366.192C1080.88 255.465 1080.88 144.738 1080.88 34.0103C1080.88 28.87 1081.19 28.5531 1086.44 28.5531C1130.33 28.5531 1174.26 27.7786 1218.16 28.8348C1249.66 29.6094 1280.25 35.9467 1306.97 54.2898C1328.9 69.3233 1340.38 90.5534 1343.51 116.572C1345.73 134.915 1343.75 152.695 1336.61 169.841C1327.77 191.035 1312.81 206.738 1293.14 218.11C1286.98 221.666 1280.43 224.623 1273.67 228.038C1277.3 230.362 1280.92 232.545 1284.41 234.974C1291.69 240.044 1297.15 246.769 1301.87 254.162C1318.76 280.568 1335.73 306.903 1352.7 333.238C1360.16 344.821 1367.62 356.405 1375.05 367.988C1375.61 368.868 1376 369.889 1376.81 371.473V371.544ZM1165.39 138.964C1165.39 154.279 1165.39 169.594 1165.39 184.874C1165.39 187.515 1165.67 189.733 1169.12 189.592C1184.68 188.993 1200.31 188.923 1215.84 187.691C1226.96 186.811 1236.96 182.163 1245.62 174.875C1256.35 165.827 1260.51 153.645 1261.53 140.231C1262.41 128.401 1259.84 117.311 1252.3 107.77C1244.56 97.947 1233.86 92.5602 1221.93 91.2928C1204.92 89.4972 1187.75 89.3916 1170.67 88.441C1166.55 88.1945 1165.32 89.8493 1165.36 93.8277C1165.53 108.861 1165.43 123.895 1165.43 138.893L1165.39 138.964Z" fill="white"/>
<path d="M1700.76 266.203C1700.76 288.419 1700.69 310.6 1700.83 332.816C1700.83 336.618 1699.64 339.012 1696.43 341.125C1670.07 358.482 1640.92 367.882 1609.77 372.037C1588.89 374.818 1567.95 375.029 1547.04 374.255C1526.24 373.515 1506.14 368.727 1486.74 360.946C1460.41 350.419 1437.64 334.752 1419.01 313.416C1398.77 290.285 1385.82 263.422 1380.36 233.144C1374.03 197.936 1376.95 163.503 1390.04 130.091C1398.14 109.389 1410.25 91.152 1426.16 75.7311C1448.55 54.0433 1475.37 40.1716 1505.36 31.7923C1532.33 24.2931 1559.82 23.1312 1587.38 24.6804C1616.7 26.3351 1645.04 33.2358 1670.91 47.6708C1681.05 53.3392 1690.31 60.5567 1699.92 67.1053C1703.08 69.2529 1703.26 71.6471 1700.94 74.8509C1694.11 84.2865 1687.46 93.8981 1680.91 103.545C1671.4 117.522 1658.45 120.269 1643.6 111.889C1635.68 107.383 1627.44 103.263 1619.06 99.7426C1605.19 93.8982 1590.55 91.2224 1575.48 91.0816C1561.54 90.9759 1547.67 90.7999 1534.09 94.9192C1503.53 104.179 1482.41 123.684 1471.89 153.61C1459.64 188.465 1460.62 223.426 1476.29 257.014C1490.93 288.419 1516.7 306.128 1550.84 310.917C1573.97 314.156 1596.85 311.973 1619.1 304.227C1622.58 303.03 1623.99 301.305 1623.95 297.573C1623.78 283.948 1623.92 270.323 1623.88 256.697C1623.88 251.627 1623.57 251.346 1618.25 251.346C1607.83 251.346 1597.41 251.346 1587.03 251.346C1577.38 251.311 1571.68 245.783 1571.57 236.277C1571.47 223.497 1571.65 210.716 1571.5 197.936C1571.47 194.239 1572.88 193.042 1576.47 193.042C1616.28 193.113 1656.13 193.148 1695.94 193.042C1700.02 193.042 1700.87 194.838 1700.87 198.429C1700.76 221.032 1700.83 243.671 1700.83 266.309L1700.76 266.203Z" fill="white"/>
<path d="M1026.91 138.189C1026.91 170.932 1027.16 203.675 1026.84 236.418C1026.56 269.583 1016.25 299.474 994.669 324.859C976.611 346.124 953.273 359.538 926.661 367.565C902.83 374.713 878.366 375.628 853.901 374.114C826.444 372.424 800.396 365.031 777.058 349.891C749.671 332.112 731.367 307.396 722.144 276.097C717.815 261.45 716.02 246.487 716.055 231.207C716.16 165.721 716.09 100.235 716.09 34.7497C716.09 30.0788 718.413 27.7434 723.06 27.7434C746.715 27.7434 770.334 27.7434 793.989 27.7434C798.401 27.7434 800.607 29.9145 800.607 34.2568C800.607 100.728 800.466 167.2 800.713 233.672C800.783 250.078 804.444 265.781 813.913 279.582C825.635 296.658 842.355 305.319 862.631 306.692C871.677 307.29 881.076 307.079 889.876 305.248C918.741 299.193 934.722 280.11 940.425 251.909C941.657 245.889 942.29 239.657 942.325 233.531C942.466 167.341 942.396 101.151 942.396 34.9609C942.396 30.1727 944.801 27.7669 949.612 27.7434C973.408 27.7434 997.168 27.7434 1020.96 27.7434C1026.74 27.7434 1026.91 27.9194 1026.91 33.6583C1026.91 68.5136 1026.91 103.369 1026.91 138.224V138.189Z" fill="white"/>
<path d="M444.973 199.626C444.973 144.808 444.973 90.0254 444.973 35.2074C444.973 30.7948 447.132 28.5767 451.45 28.5532C524.914 28.5532 598.378 28.5532 671.842 28.5532C678.108 28.5532 678.143 28.5884 678.143 34.961C678.143 51.4028 678.143 67.8447 678.143 84.2866C678.143 90.0254 677.967 90.2014 672.194 90.2014C627.172 90.2014 582.115 90.2014 537.094 90.2014C532.588 90.2014 530.335 92.4664 530.335 96.9965C530.335 121.29 530.335 145.618 530.335 169.911C530.335 176.002 530.405 176.108 536.425 176.108C573.28 176.108 610.17 176.108 647.026 176.108C651.414 176.108 653.608 178.29 653.608 182.656C653.608 198.957 653.608 215.258 653.608 231.559C653.608 237.685 653.503 237.756 647.096 237.756C610.382 237.756 573.632 237.756 536.918 237.756C532.529 237.756 530.335 239.927 530.335 244.269C530.335 284.3 530.335 324.366 530.335 364.397C530.335 368.763 528.141 370.945 523.752 370.945C499.534 370.945 475.351 370.945 451.133 370.945C445.114 370.945 444.973 370.84 444.973 364.819C444.973 309.72 444.973 254.655 444.973 199.556V199.626Z" fill="white"/>
<path d="M120.739 136.112C120.739 96.3627 120.809 56.6135 120.668 16.8644C120.668 12.3226 121.971 10.3158 126.547 8.90749C146.506 2.8166 166.887 0.10563 187.691 0.844986C205.502 1.51393 222.856 4.75301 239.682 10.7031C242.217 11.5833 243.308 13.1324 243.167 15.7025C243.097 16.6883 243.167 17.6741 243.167 18.6599C243.167 97.4542 243.167 176.284 243.167 255.078C243.167 259.819 240.738 262.201 235.881 262.225C199.589 262.225 163.297 262.225 127.005 262.225C120.774 262.225 120.704 262.155 120.704 255.817C120.704 215.927 120.704 176.037 120.704 136.147L120.739 136.112Z" fill="#F9B000"/>
<path d="M259.218 35.8059C264.886 38.6225 269.462 40.4533 273.545 43.0586C282.521 48.8327 291.322 54.8883 299.946 61.1905C301.635 62.4227 302.903 65.2393 303.079 67.4574C303.501 73.1962 303.219 78.9702 303.219 84.7442C303.219 159.771 303.219 234.798 303.219 309.825C303.219 314.637 300.826 317.043 296.039 317.043C221.342 317.043 146.611 317.043 71.915 317.043C67.3389 317.043 65.0509 314.813 65.0509 310.353C65.0509 229.975 65.0509 149.632 64.9805 69.253C64.9805 65.2393 65.8957 62.2467 69.4158 60.0638C80.6096 53.0928 91.6979 45.9456 102.857 38.9042C103.631 38.4113 104.652 38.2704 106.13 37.7423C106.271 39.9956 106.447 41.8968 106.447 43.7628C106.447 118.649 106.447 193.535 106.447 268.421C106.447 273.256 108.817 275.674 113.558 275.674C159.987 275.674 206.417 275.674 252.847 275.674C259.183 275.674 259.218 275.674 259.218 269.372C259.218 194.063 259.218 118.755 259.218 43.4459C259.218 41.3687 259.218 39.3267 259.218 35.8411V35.8059Z" fill="#C00A25"/>
<path d="M329.69 313.135V93.1235C352.149 121.43 364.75 153.539 367.214 189.205C370.347 235.009 358.485 276.66 330.746 313.452C330.394 313.346 330.042 313.24 329.69 313.135Z" fill="#DF790F"/>
<path d="M37.383 313.522C15.5585 284.159 2.88624 251.311 0.844589 214.589C-1.65467 169.629 10.4896 128.965 38.439 93.0884V313.1C38.087 313.24 37.735 313.381 37.383 313.522Z" fill="#DF790F"/>
</g>
<defs>
<clipPath id="clip0_28_891">
<rect width="1704" height="387" fill="white"/>
</clipPath>
</defs>
</svg>
