<svg width="1422" height="364" viewBox="0 0 1422 364" fill="none" xmlns="http://www.w3.org/2000/svg">
<g clip-path="url(#clip0_29_1136)">
<path d="M444.375 364C442.441 363.317 440.535 362.407 438.545 361.981C429.643 360.132 421.793 351.516 421.082 342.387C420.713 337.781 420.684 333.174 420.485 328.567C420.286 323.875 421.737 319.922 425.803 317.249C427.737 315.969 427.595 314.917 426.571 312.898C424.467 308.689 422.817 304.253 421.168 299.817C415.394 284.204 409.82 268.507 403.819 252.98C403.108 251.132 400.52 249.653 398.444 248.771C378.906 240.354 362.524 227.756 349.158 211.319C332.236 190.56 322.964 166.729 320.661 139.998C316.196 88.1562 344.949 37.7081 392.301 14.2187C407.317 6.76811 423.045 1.99061 440.052 2.72998C441.957 2.81529 440.821 2.84376 443.665 2.72998L452.197 2.84363C455.041 2.84363 456.49 2.70154 458.509 2.72998C467.155 2.78686 475.744 3.07123 484.162 5.57373C518.489 15.7828 544.427 36.4569 562.23 67.4822C570.364 81.644 575.625 96.8297 577.559 112.868C580.944 140.965 576.137 167.753 562.344 192.692C548.522 217.689 528.187 235.718 502.421 247.634C497.7 249.823 494.77 252.468 493.007 257.644C487.035 275.047 480.38 292.224 473.981 309.485C473.583 310.594 473.099 311.703 472.445 312.67C471.137 314.632 471.478 316.14 473.384 317.505C477.109 320.149 478.389 323.932 478.19 328.339C477.991 333.174 478.105 338.065 477.564 342.871C476.512 352.312 468.719 360.36 459.391 362.294C458.083 362.55 456.917 363.403 455.665 363.972H444.289L444.375 364ZM452.964 212.144C494.514 212.542 534.103 175.09 531.998 127.03C529.922 79.7672 493.263 47.6044 448.669 47.9172C401.686 48.2584 364.885 86.8765 366.705 133.372C368.44 177.222 404.644 214.675 452.964 212.144ZM447.389 284.261C447.389 277.522 447.304 270.782 447.418 264.014C447.475 260.63 445.91 259.322 442.725 259.265C440.962 259.265 439.17 259.208 437.435 258.867C429.102 257.274 420.77 255.568 412.465 253.89C409.308 253.264 408.142 254.373 409.052 257.473C409.621 259.378 410.645 261.17 411.327 263.047C416.589 277.465 421.765 291.911 427.055 306.3C430.382 315.315 430.439 315.287 439.881 315.23C440.706 315.23 441.531 315.23 442.355 315.23C446.821 315.23 447.389 314.632 447.361 310.168C447.333 301.551 447.361 292.935 447.361 284.29L447.389 284.261ZM451.854 287.532C451.854 295.693 451.94 303.855 451.798 312.016C451.741 314.547 452.622 315.429 455.04 315.315C458.111 315.173 461.183 315.201 464.254 315.201C467.241 315.201 469.061 313.836 469.999 310.964C471.933 305.163 473.981 299.39 476.114 293.646C480.465 281.929 484.959 270.27 489.253 258.554C489.737 257.246 489.452 255.653 489.509 254.174C488.059 254.174 486.58 253.975 485.158 254.231C475.289 255.881 465.449 257.729 455.58 259.236C452.821 259.663 451.712 260.544 451.769 263.417C451.911 271.464 451.826 279.512 451.826 287.532H451.854Z" fill="#F37228"/>
<path d="M0.000119691 111.617C0.3414 113.665 0.96708 115.712 0.96708 117.76C0.99552 126.917 0.88176 136.102 0.73956 145.259C0.73956 146.14 0.25608 146.993 -0.0283203 147.875C-0.0283203 135.789 -0.0283203 123.703 -0.0283203 111.617H0.000119691Z" fill="#00374E"/>
<path d="M911.872 128.31C911.872 106.044 911.758 83.777 911.958 61.5104C912.014 56.477 912.469 51.2729 913.806 46.467C916.195 37.9926 922.48 33.471 931.041 32.1629C933.6 31.7648 936.217 31.5942 938.833 31.5942C968.809 31.5373 998.785 31.5373 1028.73 31.5942C1041.3 31.5942 1050.26 37.2817 1054.33 47.6329C1058.71 58.7804 1056.15 70.9801 1047.79 79.0564C1042.53 84.1467 1035.96 85.9098 1028.93 85.9382C1009.51 86.0235 990.082 85.9382 970.658 85.9382C964.628 85.9382 964.685 85.9667 965.169 91.4551C965.425 94.2704 965.282 97.1426 964.97 99.9579C964.628 103.029 965.567 104.224 968.809 104.195C984.195 104.053 999.61 104.081 1015 104.11C1017.84 104.11 1020.68 104.28 1023.5 104.593C1033.34 105.645 1042.1 114.376 1042.92 124.272C1043.41 130.073 1043.35 135.903 1040.39 141.221C1035.39 150.235 1027.31 153.25 1017.47 153.164C1001.37 153.022 985.247 153.164 969.15 152.994C965.908 152.965 964.742 153.79 965.083 157.231C965.453 160.729 965.283 164.34 964.941 167.867C964.657 170.966 965.624 172.132 968.809 172.132C987.295 172.019 1005.78 172.047 1024.24 172.075C1027.91 172.075 1031.63 171.876 1035.22 172.445C1048.58 174.549 1057.09 186.379 1056.23 200.541C1055.35 215.244 1044.52 225.993 1028.13 225.879C1000.78 225.68 973.416 225.879 946.057 225.879C941.791 225.879 937.525 225.879 933.288 225.453C920.546 224.116 912.782 216.097 912.157 203.357C911.758 195.792 911.929 188.199 911.929 180.635C911.929 163.231 911.929 145.799 911.929 128.395C911.929 128.395 911.872 128.395 911.844 128.395L911.872 128.31Z" fill="#00374E"/>
<path d="M1266.97 129.391C1266.97 106.413 1267.43 83.4072 1266.8 60.4581C1266.43 46.9219 1279.06 31.9353 1293.71 31.7078C1308.38 31.4803 1323.14 31.395 1337.7 32.8738C1376.44 36.7697 1410.71 65.4063 1418.16 105.873C1419.5 113.096 1418.93 120.66 1419.61 128.026C1421.97 153.762 1414.09 176.17 1397.54 195.593C1384.2 211.291 1366.8 220.391 1346.69 223.661C1336.03 225.396 1325.02 225.367 1314.16 225.737C1306.59 225.993 1298.94 226.163 1291.43 225.396C1275.9 223.832 1267.03 213.594 1267 197.982C1266.97 175.118 1267 152.254 1267 129.391H1266.97ZM1320.36 128.907C1320.36 128.907 1320.36 128.907 1320.33 128.907C1320.33 142.159 1320.38 155.411 1320.27 168.663C1320.27 171.137 1321.15 172.218 1323.57 172.018C1327.44 171.677 1331.42 171.734 1335.17 170.824C1358.12 165.25 1372.26 143.297 1367.82 120.092C1363.21 96.005 1344.42 86.1941 1323.68 86.1656C1321.18 86.1656 1320.27 87.2178 1320.3 89.8909C1320.44 102.915 1320.36 115.911 1320.36 128.936V128.907Z" fill="#00374E"/>
<path d="M836.022 154.273C830.163 154.273 824.646 154.273 819.1 154.273C811.507 154.273 803.942 154.359 796.348 154.16C793.39 154.074 792.509 154.956 792.537 157.97C792.708 171.933 792.679 185.924 792.622 199.887C792.537 218.883 776.867 231.197 758.551 225.879C744.644 221.841 739.098 213.537 738.956 199.347C738.757 176.853 738.842 154.33 738.871 131.836C738.871 107.323 738.871 82.81 738.928 58.2969C738.928 50.3628 740.748 43.1113 746.976 37.4522C760.258 25.3378 784.545 30.0869 790.831 46.2678C791.997 49.2822 792.537 52.7232 792.566 55.965C792.736 70.4113 792.736 84.8575 792.566 99.3038C792.537 102.574 793.39 103.655 796.718 103.626C808.805 103.484 820.892 103.541 832.95 103.74C835.766 103.797 836.278 102.745 836.278 100.214C836.192 85.995 836.221 71.7763 836.221 57.586C836.221 39.13 849.986 27.8403 868.273 31.3097C878.966 33.3288 886.503 38.9878 889.062 49.9647C889.688 52.6947 889.574 55.6238 889.574 58.4391C889.574 105.219 889.603 151.998 889.517 198.778C889.517 202.532 889.318 206.428 888.238 209.983C884.939 220.988 876.293 225.197 865.77 226.618C851.351 228.581 835.311 217.063 836.079 199.461C836.704 185.27 836.221 171.052 836.192 156.833C836.192 156.122 836.107 155.439 836.022 154.217V154.273Z" fill="#00374E"/>
<path d="M1165.13 30.6839C1176.39 30.0014 1184.21 36.1155 1188.85 47.2914C1198.21 69.9277 1207.7 92.4786 1217.12 115.058C1227.21 139.287 1237.17 163.572 1247.41 187.744C1257.22 210.892 1241.46 225.026 1223.6 226.647C1212.37 227.671 1203.44 222.154 1199 211.746C1196.22 205.233 1193.8 198.551 1191.47 191.839C1190.58 189.28 1189.19 188.341 1186.55 188.37C1169.48 188.427 1152.45 188.341 1135.38 188.455C1134.19 188.455 1132.37 189.507 1131.91 190.531C1129.27 196.475 1126.82 202.503 1124.49 208.561C1117.61 226.533 1099.38 232.221 1083.39 221.329C1072.02 213.594 1068.49 202.333 1074.15 189.735C1086.98 161.155 1100.06 132.661 1113.06 104.138C1121.5 85.6252 1129.95 67.1408 1138.43 48.628C1139.05 47.2346 1139.82 45.8696 1140.47 44.5046C1145.19 34.6083 1153.21 30.3143 1165.13 30.6555V30.6839ZM1164.19 111.987C1163.88 112.072 1163.57 112.129 1163.25 112.214C1158.67 123.333 1154.07 134.452 1149.32 145.998H1175.4C1171.56 134.367 1167.89 123.163 1164.19 111.987Z" fill="#00374E"/>
<path d="M723.2 200.655C722.319 212.997 713.986 222.779 701.131 225.879C687.48 229.149 676.673 223.945 671.041 211.092C668.254 204.722 665.78 198.181 663.391 191.612C662.509 189.166 661.23 188.313 658.727 188.342C642.146 188.398 625.566 188.427 608.957 188.342C605.914 188.342 604.236 189.422 603.184 192.38C600.994 198.494 598.519 204.522 595.988 210.494C589.021 227.017 571.132 230.884 556.002 222.438C553.129 220.846 554.466 219.253 555.859 217.632C564.164 208.106 570.705 197.413 575.91 185.924C587.542 160.188 591.068 133.372 586.262 105.475C585.977 103.854 586.233 101.863 586.888 100.356C595.05 82.2412 603.297 64.1549 611.602 46.0971C619.565 28.7787 635.833 28.0393 649.143 33.2149C654.489 35.2909 657.788 40.1537 660.007 45.4146C667.771 63.6999 675.393 82.0706 683.043 100.384C695.045 129.078 707.075 157.771 718.934 186.522C720.783 191.043 721.807 195.906 723.2 200.598V200.655ZM635.918 111.418C630.941 123.333 626.334 134.452 621.556 145.913H647.351C643.568 134.509 639.957 123.589 635.947 111.418H635.918Z" fill="#00374E"/>
<path d="M1118.32 294.442C1119.03 292.992 1119.91 291.57 1120.42 290.034C1122.73 283.351 1124.83 276.583 1127.19 269.9C1128.98 264.867 1129.69 264.583 1135.58 265.805C1129.95 281.048 1124.38 296.234 1118.77 311.391C1118.4 311.362 1118.03 311.305 1117.66 311.277C1117.04 309.542 1116.36 307.836 1115.76 306.101C1113.28 298.964 1110.87 291.797 1108.28 284.716C1107.88 283.636 1106.86 282.783 1106.09 281.816C1105.24 282.868 1104.07 283.778 1103.61 284.972C1100.63 293.162 1097.78 301.438 1094.88 309.656C1094.74 310.054 1094.4 310.395 1093.43 311.874C1087.57 295.978 1082.03 280.934 1076.51 265.891C1081.63 264.184 1083.08 264.753 1084.73 269.303C1087.26 276.299 1089.65 283.351 1092.18 290.347C1092.69 291.74 1093.52 293.049 1094.66 295.295C1095.45 293.39 1096.02 292.338 1096.36 291.2C1098.78 283.408 1101.11 275.616 1103.56 267.853C1103.96 266.602 1104.89 265.549 1105.6 264.412C1106.06 264.384 1106.49 264.355 1106.94 264.327C1110.41 274.394 1113.85 284.489 1117.32 294.556L1118.32 294.442Z" fill="#00374E"/>
<path d="M1054.5 288.015C1054.38 301.153 1043.43 312.045 1030.49 311.846C1017.53 311.646 1006.06 300.414 1006.18 287.958C1006.26 276.583 1016.02 263.928 1030.52 264.213C1046.22 264.526 1055.21 277.237 1054.5 288.015ZM1013.77 288.84C1013.86 297.797 1021.39 305.106 1030.49 305.049C1039.31 304.992 1047.3 296.831 1047.13 288.072C1046.96 279.057 1039 271.038 1030.35 271.208C1021.02 271.379 1013.69 279.199 1013.77 288.84Z" fill="#00374E"/>
<path d="M740.549 311.618C726.898 311.362 715.92 300.129 716.233 286.735C716.517 275.047 728.974 263.729 741.147 264.127C754.201 264.554 765.264 275.872 764.922 288.498C764.581 301.381 753.546 311.846 740.549 311.618ZM740.293 305.049C749.394 305.049 757.244 297.229 757.3 288.072C757.357 279.484 749.366 271.18 740.947 271.123C731.676 271.038 723.77 279.256 723.883 288.811C723.969 297.541 731.562 305.021 740.293 305.049Z" fill="#00374E"/>
<path d="M1259.27 287.759C1259.27 281.361 1259.32 274.991 1259.24 268.592C1259.21 266.033 1259.98 265.094 1262.74 265.265C1268.51 265.635 1274.34 265.208 1280.08 265.834C1289.58 266.858 1296.01 273.398 1297.46 282.754C1300.08 299.419 1290.81 310.424 1273.94 310.68C1270.27 310.737 1266.6 310.538 1262.93 310.794C1259.86 311.021 1259.12 309.798 1259.18 306.926C1259.35 300.556 1259.24 294.158 1259.24 287.759H1259.27ZM1266.46 288.754C1266.46 288.754 1266.52 288.754 1266.55 288.754C1266.55 292.65 1266.69 296.575 1266.49 300.471C1266.38 302.945 1267.23 304.054 1269.65 303.94C1273.06 303.798 1276.53 303.94 1279.91 303.457C1283.9 302.916 1286.97 300.613 1288.56 296.859C1291.03 291.029 1291.43 284.887 1288.1 279.427C1286.4 276.612 1283.35 273.967 1280.31 272.801C1276.93 271.493 1272.86 271.891 1269.11 271.692C1266.97 271.578 1266.38 272.886 1266.43 274.934C1266.58 279.541 1266.46 284.148 1266.46 288.783V288.754Z" fill="#00374E"/>
<path d="M939.459 264.128C950.579 274.82 961.5 285.313 972.392 295.778L973.274 295.323C973.075 292.935 972.762 290.518 972.734 288.129C972.648 281.617 972.79 275.104 972.648 268.592C972.591 266.203 973.245 265.18 975.805 265.208C978.393 265.265 979.73 265.919 979.701 268.848C979.616 280.195 979.701 291.57 979.701 302.916C979.701 304.566 980.014 306.215 979.957 307.864C979.9 309.258 979.531 310.623 979.303 311.988C978.877 312.13 978.478 312.244 978.052 312.386C967.188 301.807 956.352 291.228 945.488 280.65C945.488 281.474 945.488 282.697 945.488 283.892C945.516 291.939 945.488 299.987 945.659 308.035C945.687 310.452 944.35 310.822 942.502 310.651C940.909 310.481 938.634 311.334 938.662 308.405C938.662 293.987 938.662 279.569 938.691 265.151C938.691 265.066 938.805 264.981 939.43 264.099L939.459 264.128Z" fill="#00374E"/>
<path d="M612.739 279.683C612.739 289.38 612.626 298.11 612.796 306.841C612.853 309.713 612.085 310.822 609.042 310.822C606.255 310.822 605.743 309.741 605.743 307.21C605.857 293.134 605.8 279.057 605.8 263.729C617.631 274.45 628.268 285.314 639.985 296.347V265.72C646.071 264.554 646.526 265.066 646.555 271.038C646.583 283.095 646.811 295.181 646.924 307.239C646.924 308.803 646.725 310.367 646.611 311.903C646.27 312.016 645.929 312.13 645.588 312.244C634.78 301.523 623.973 290.802 612.711 279.654L612.739 279.683Z" fill="#00374E"/>
<path d="M1367.74 287.276C1368.33 294.641 1367.48 301.039 1362.48 306.016C1356.1 312.358 1348.28 313.04 1340.04 310.879C1331.28 308.604 1325.62 302.831 1323.34 294.158C1320.73 284.119 1323.68 275.702 1331.87 269.246C1339.21 263.473 1350.22 262.62 1358.32 267.17C1359.35 267.739 1360.51 268.365 1361.14 269.275C1361.96 270.441 1363.16 272.687 1362.73 273.171C1361.25 274.792 1359.57 276.555 1356.73 274.564C1349.39 269.388 1341.26 269.929 1335.37 275.645C1329.6 281.247 1328.52 290.688 1332.87 297.485C1337.28 304.367 1345.92 307.182 1353.77 304.168C1357.13 302.888 1359.55 300.641 1360.68 297.058C1361.37 294.84 1360.54 293.845 1358.49 293.731C1356.5 293.589 1354.45 293.646 1352.46 293.731C1350.33 293.816 1349.48 292.878 1349.59 290.745C1349.71 288.868 1349.68 287.219 1352.35 287.276C1357.41 287.389 1362.48 287.304 1367.79 287.304L1367.74 287.276Z" fill="#00374E"/>
<path d="M881.839 265.293C883.346 265.293 884.512 265.293 885.707 265.293C887.925 265.293 888.92 266.317 888.75 268.621C888.465 272.261 888.323 275.929 888.181 279.597C888.152 280.564 888.323 281.56 888.494 283.522C890.229 282.157 891.423 281.503 892.276 280.536C895.291 277.038 898.448 273.654 901.064 269.872C904.05 265.578 907.861 264.383 913.237 265.521C912.639 266.488 912.241 267.398 911.616 268.109C907.207 272.915 902.913 277.806 898.277 282.384C895.803 284.83 896.144 286.508 898.22 288.896C903.681 295.266 908.942 301.836 914.289 308.319C914.716 308.86 915.085 309.428 915.512 310.026C910.364 311.846 907.207 311.078 904.221 307.21C900.24 302.063 896.372 296.831 892.362 291.683C891.48 290.546 890.314 289.636 888.437 287.816C888.295 290.034 888.124 291.143 888.153 292.224C888.295 297.541 888.437 302.859 888.693 308.177C888.807 310.992 886.901 310.765 885.109 310.736C883.289 310.736 881.156 311.277 881.156 308.206C881.213 294.811 881.213 281.446 881.242 268.052C881.242 267.256 881.554 266.459 881.81 265.35L881.839 265.293Z" fill="#00374E"/>
<path d="M1393.62 287.844C1393.62 281.332 1393.7 274.82 1393.56 268.308C1393.5 265.947 1394.33 265.18 1396.6 265.237C1403 265.35 1409.4 265.35 1415.8 265.35C1418.19 265.35 1419.16 266.317 1419.16 268.763C1419.16 271.408 1417.56 271.55 1415.66 271.55C1411.88 271.521 1408.06 271.578 1404.28 271.436C1401.81 271.322 1400.95 272.261 1400.98 274.735C1401.13 283.01 1401.07 283.01 1409.32 283.01C1411.45 283.01 1413.58 283.067 1415.72 283.01C1418.08 282.925 1419.13 283.92 1419.13 286.394C1419.13 288.925 1417.68 289.323 1415.69 289.295C1411.79 289.295 1407.87 289.352 1403.97 289.295C1401.86 289.266 1400.98 290.034 1401.1 292.224C1401.24 295.181 1401.24 298.139 1401.04 301.096C1400.87 303.371 1401.86 304.082 1403.91 304.054C1407.81 304.025 1411.73 304.139 1415.63 303.997C1418.47 303.912 1419.21 305.134 1419.18 307.836C1419.18 310.537 1417.96 310.936 1415.72 310.907C1409.54 310.793 1403.4 310.793 1397.23 310.936C1394.58 310.992 1393.42 310.424 1393.53 307.438C1393.76 300.926 1393.59 294.413 1393.62 287.901V287.844Z" fill="#00374E"/>
<path d="M1207.16 287.93C1207.16 281.418 1207.22 274.905 1207.14 268.422C1207.11 265.919 1207.76 264.924 1210.58 265.066C1216.72 265.379 1222.89 265.322 1229.03 265.208C1231.68 265.151 1233.07 265.976 1233.07 268.763C1233.07 271.663 1231 271.464 1229.09 271.493C1225.31 271.55 1221.53 271.521 1217.74 271.578C1215.5 271.578 1214.39 272.517 1214.42 275.048C1214.47 283.01 1214.42 283.01 1222.29 282.953C1224.77 282.953 1227.27 283.038 1229.75 282.896C1231.99 282.783 1233.07 283.749 1233.1 285.939C1233.13 288.271 1232.08 289.408 1229.66 289.352C1225.51 289.266 1221.38 289.352 1217.23 289.295C1215.13 289.295 1214.33 290.006 1214.64 292.309C1214.96 294.755 1214.9 297.286 1214.56 299.731C1214.16 302.859 1215.27 304.111 1218.37 304.025C1221.92 303.94 1225.48 304.224 1229.01 304.054C1231.65 303.94 1232.9 304.651 1232.96 307.552C1233.02 310.452 1231.68 310.822 1229.26 310.765C1223.12 310.651 1216.95 310.651 1210.8 310.822C1207.96 310.907 1207.14 309.912 1207.22 307.125C1207.42 300.755 1207.28 294.357 1207.28 287.958C1207.25 287.958 1207.19 287.958 1207.16 287.958V287.93Z" fill="#00374E"/>
<path d="M553.898 265.35C561.861 265.35 569.284 265.237 576.707 265.493C577.702 265.521 579.124 267.455 579.38 268.706C579.522 269.389 577.702 271.209 576.678 271.294C572.668 271.607 568.63 271.521 564.62 271.408C561.889 271.322 560.866 272.346 560.951 275.161C561.15 282.982 561.036 282.982 568.914 282.982C571.275 282.982 573.635 283.039 576.024 282.982C578.214 282.925 579.864 283.55 579.892 286.024C579.92 288.527 578.072 289.181 576.053 289.238C572.27 289.352 568.488 289.437 564.705 289.238C561.918 289.096 560.837 290.006 561.093 292.878C561.321 295.466 561.235 298.082 561.093 300.67C560.951 303.115 561.946 304.139 564.364 304.111C568.26 304.025 572.156 304.111 576.053 303.969C578.527 303.855 579.437 304.907 579.522 307.267C579.608 309.628 578.897 310.794 576.337 310.765C569.71 310.708 563.084 310.85 556.457 310.68C555.604 310.68 554.012 309.4 554.012 308.718C553.869 294.414 553.898 280.109 553.898 265.379V265.35Z" fill="#00374E"/>
<path d="M799.192 310.282C799.192 304.48 799.363 299.049 799.107 293.617C798.993 291.371 798.51 288.868 797.401 286.963C793.789 280.877 789.75 275.019 785.911 269.047C785.257 268.023 784.745 266.886 784.119 265.692C789.437 264.469 791.428 265.208 793.76 269.076C796.604 273.825 799.42 278.602 802.435 283.692C803.43 282.64 804.34 281.901 804.966 280.962C807.696 276.811 810.312 272.602 812.986 268.422C815.204 264.952 816.655 264.497 821.404 266.09C820.75 267.113 820.153 268.08 819.555 268.99C815.631 275.047 811.592 281.019 807.838 287.19C806.814 288.897 806.388 291.143 806.274 293.191C806.046 297.428 806.217 301.722 806.217 305.959C806.217 310.879 806.217 310.879 801.268 310.594C800.7 310.566 800.131 310.395 799.164 310.225L799.192 310.282Z" fill="#00374E"/>
<path d="M1159.61 265.18C1161.03 265.18 1162 265.265 1162.91 265.18C1165.81 264.895 1166.84 266.033 1166.81 269.047C1166.61 279.342 1166.81 289.664 1166.58 299.959C1166.5 303.144 1167.58 304.196 1170.62 304.054C1173.92 303.912 1177.25 304.139 1180.57 304.054C1183.5 303.997 1183.25 305.931 1183.3 307.893C1183.39 310.026 1182.56 310.822 1180.4 310.765C1174.37 310.651 1168.32 310.651 1162.29 310.765C1159.73 310.822 1159.1 309.77 1159.1 307.352C1159.19 294.669 1159.1 281.986 1159.1 269.332C1159.1 268.052 1159.41 266.801 1159.61 265.18Z" fill="#00374E"/>
<path d="M690.41 285.882C690.41 290.972 690.211 296.063 690.467 301.153C690.95 311.135 682.134 313.296 676.019 310.992C674.91 310.566 673.659 310.196 672.891 309.4C672.037 308.49 670.843 306.641 671.213 306.044C672.236 304.366 673.602 302.461 676.303 303.997C680.513 306.357 683.129 304.992 683.186 299.959C683.328 289.664 683.015 279.37 682.958 269.076C682.958 267.91 683.271 265.805 683.726 265.748C685.746 265.379 687.907 265.436 689.955 265.748C690.381 265.805 690.666 267.767 690.694 268.848C690.779 274.536 690.722 280.195 690.722 285.882H690.41Z" fill="#00374E"/>
<path d="M151.357 129.504C150.333 88.4975 176.299 50.3344 215.831 36.3431C252.888 23.2619 295.861 32.3335 323.448 64.4394C324.927 66.1741 325.353 67.6528 324.273 69.8425C308.716 101.806 306.298 134.936 316.338 168.919C318.329 175.658 321.429 182.114 324.273 188.569C325.239 190.73 324.784 192.095 323.391 193.631C304.876 213.935 281.925 224.855 254.509 226.675C232.497 228.126 212.418 222.353 194.387 210.096C179.655 200.058 168.848 186.408 160.629 170.54C153.746 157.231 151.101 143.183 151.329 129.476L151.357 129.504ZM205.194 129.362C204.768 153.022 224.761 173.838 248.878 173.924C274.161 174.009 293.785 153.363 294.069 130.272C294.354 107.664 276.493 85.4547 249.39 84.886C224.306 84.3741 204.227 107.408 205.166 129.362H205.194Z" fill="#00374E"/>
<path d="M142.314 168.919C142.314 179.924 142.57 190.929 142.257 201.935C141.887 214.163 133.497 222.893 120.301 224.457C111.769 225.481 103.038 225.396 94.4207 225.083C83.8979 224.685 73.3182 224.031 63.3074 220.362C31.028 208.561 10.2952 186.294 3.52648 152.34C1.73476 143.325 2.64484 133.742 2.41732 124.414C2.36044 121.94 2.78704 119.438 2.73016 116.964C2.27512 92.422 12.8548 72.8001 30.317 56.6191C47.58 40.6088 68.7678 33.8691 91.918 32.9023C100.308 32.5326 108.726 32.561 117.144 32.7601C132.872 33.1013 144.788 47.8035 142.171 63.302C139.555 78.7151 130.141 86.6207 114.528 86.7345C105.882 86.7913 97.1509 86.3079 88.6189 87.3316C64.2459 90.2607 48.3479 111.788 52.1304 136.045C54.5194 151.344 61.7716 163.146 76.9017 168.805C80.087 169.999 83.5282 170.511 86.8557 171.336C89.529 171.99 90.3822 170.881 90.3253 168.179C90.1263 158.937 90.0694 149.695 90.1263 140.453C90.1832 127.656 95.8996 119.011 106.536 115.286C118.14 111.248 130.71 114.802 138.133 124.414C141.688 129.021 142.541 134.566 142.598 140.197C142.712 149.78 142.627 159.392 142.627 168.976H142.257L142.314 168.919Z" fill="#00374E"/>
</g>
<defs>
<clipPath id="clip0_29_1136">
<rect width="1422" height="364" fill="white"/>
</clipPath>
</defs>
</svg>
