<svg version="1.2" xmlns="http://www.w3.org/2000/svg" viewBox="0 0 1026 246" width="1026" height="246">
	<title>icourt-svg</title>
	<defs>
		<clipPath clipPathUnits="userSpaceOnUse" id="cp1">
			<path d="m12.42 7.85h228.31v228.22h-228.31z"/>
		</clipPath>
	</defs>
	<style>
		.s0 { fill: #ff914d } 
	</style>
	<path id="Layer" class="s0" d="m345.4 191.3v-150.4c0-3.3-2.8-6.5-6.7-6.5h-13.9c-3.9 0-6.6 3.2-6.6 6.5l0.4 150.4c0 3.3 2.3 6.6 6.2 6.6h13.9c3.9 0 6.7-3.3 6.7-6.6z"/>
	<path id="Layer" class="s0" d="m419.8 31.7c-36.6 0-66.4 30-66.4 66.6v35.6c0 36.6 29.8 66.2 66.4 66.2 27.9 0 54.4-19.8 63.6-46 1.5-3.9 2.7-8.6 2.7-12.6 0-3.3-2.7-6.6-6.5-6.6h-13.7c-3.7 0-5.8 1.9-6.4 5.5l0.2-0.4c-1.6 6.8-3.3 12.1-7.3 17.6-8 10.4-19.5 16.4-32.6 16.4-21.8 0-39.8-18-39.8-40.1v-35.6c0-22 18-40 39.8-40 13.1 0 24.8 5.9 32.1 15.9 3.5 4.7 5 9.6 7.2 16 1.4 2.6 2.9 4.5 6.3 4.5h13.7c3.9 0 5.6-3.3 6.4-6l0.2-2c-6.6-31.9-32.5-55-65.9-55z"/>
	<path id="Layer" fill-rule="evenodd" class="s0" d="m560.9 199.7c-39.2 0-71.5-30.2-71.5-67.8v-32.1c0-37.6 32.5-67.7 71.7-67.7 39.5 0 71.2 30.1 71.2 67.7v32.1c0 37.6-32.1 67.8-71.4 67.8zm0-141.6c-24.1 0-43.9 19-43.9 41.7v32.1c0 22.8 19.8 41.7 43.9 41.7 24 0 43.8-18.9 43.8-41.7v-32.1c0-22.9-19.8-41.7-43.8-41.7z"/>
	<path id="Layer" class="s0" d="m756.4 146v-105.1c0-4.3-2.2-6.5-6.7-6.5h-13.5c-6.4 0-6.8 3.8-6.8 7.9v103.7c0 13.9-11.6 25.1-25.7 25.1h-15.8c-12.3 0-22.9-10-22.9-22.5v-106.3c0-4.1-0.2-7.9-6.5-7.9h-13.7c-4.3 0-6.6 2.2-6.6 6.5v107.7c0 27.8 22.7 49.3 49.7 49.3h15.8c28.6 0 52.7-23.3 52.7-51.9z"/>
	<path id="Layer" fill-rule="evenodd" class="s0" d="m878.9 69.1c0 15.5-8.4 24.5-20 32.5 4.3 11.4 8.3 22.1 12.4 33.5 6.6 18 13.3 36.2 20.5 54.4 2.2 5.5-0.8 8.4-6.4 8.4h-15.5c-4.3 0-5.5-2.5-6.6-5.1l-29.4-77.9c-14.1 7.3-26.6 14.3-41.3 21.9v53.1c0 4.1-0.2 8-6.5 8h-14.6c-3.8 0-6.3-3.3-6.3-6.6l-0.4-150.4c0-3.3 2.9-6.5 6.7-6.5h72.8c18.4 0 34.6 16.1 34.6 34.7zm-86.3 37c16.2-8 52.6-26 56.9-32.7v0.2q1.2-1.8 1.2-4.3c0-4.3-3.3-7.8-8-7.8h-50.1z"/>
	<path id="Layer" class="s0" d="m958.6 60.7h39.3c7.2 0 8-1.4 8-7.9v-10.5c0-4.1-0.4-7.9-6.8-7.9h-109c-6.3 0-6.5 3.8-6.5 7.9v10.5c0 6.5 1 7.9 8.2 7.9h39.6v129.2c0 4.1 0.3 8 6.6 8h14.1c6.3 0 6.5-3.9 6.5-8z"/>
	<g id="Clip-Path" clip-path="url(#cp1)">
		<g id="Layer">
			<path id="Layer" fill-rule="evenodd" class="s0" d="m240.7 122c0 62.9-51.2 114.1-114.1 114.1-63 0-114.2-51.2-114.2-114.1 0-63 51.2-114.1 114.2-114.1 62.9 0 114.1 51.1 114.1 114.1zm-199.7 0c0 19.6 16 35.6 35.6 35.6 19.7 0 35.7-16 35.7-35.6 0-35.4 28.8-64.2 64.2-64.2q3.6 0 7.1 0.4c-15.2-13.6-35.2-21.8-57-21.8-47.2 0-85.6 38.4-85.6 85.6zm171.2 0c0-19.7-16-35.7-35.7-35.7-19.7 0-35.7 16-35.7 35.7 0 35.4-28.8 64.1-64.2 64.1q-3.6 0-7-0.3c15.1 13.5 35.1 21.7 57 21.7 47.2 0 85.6-38.4 85.6-85.5z"/>
		</g>
	</g>
</svg>