<?xml version="1.0" encoding="utf-8"?>
<!-- Generator: Adobe Illustrator 26.3.1, SVG Export Plug-In . SVG Version: 6.00 Build 0)  -->
<svg version="1.1" id="Layer_1" xmlns="http://www.w3.org/2000/svg" xmlns:xlink="http://www.w3.org/1999/xlink" x="0px" y="0px"
	 viewBox="0 0 1771.3 678.1" style="enable-background:new 0 0 1771.3 678.1;" xml:space="preserve">
<style type="text/css">
	.st0{fill:#FFFFFF;}
	.st1{fill:#40AA1D;}
</style>
<g>
	<g>
		<g>
			<path class="st0" d="M621.2,270.4c17.3,0,31.4,5.8,42.2,17.4c10.2,11.1,15.3,25.3,15.3,42.4c0,17.2-5.1,31.3-15.3,42.4
				c-10.8,11.6-24.9,17.4-42.2,17.4c-17.3,0-31.4-5.8-42.2-17.4c-10.2-11.1-15.3-25.3-15.3-42.4c0-17.2,5.1-31.3,15.3-42.4
				C589.8,276.2,603.9,270.4,621.2,270.4z M621.2,374.3c12.5,0,22.4-4.3,29.7-13c7-8.2,10.4-18.6,10.4-31.1s-3.5-22.9-10.4-31.1
				c-7.3-8.7-17.2-13-29.7-13c-12.5,0-22.4,4.3-29.7,13c-7,8.2-10.4,18.6-10.4,31.1s3.5,22.9,10.4,31.1
				C598.8,370,608.7,374.3,621.2,374.3z"/>
			<path class="st0" d="M719.1,272.3v18.1c4.2-5.6,9.3-10.3,15.3-14.1c6-3.9,12.9-5.8,20.6-5.8c7.7,0,14.4,1.1,19.9,3.2
				c5.6,2.2,10.4,5.4,14.6,9.7c9.6,9.4,14.4,21.9,14.4,37.3v67.5h-17.4v-67c0-10.7-3-19.2-9-25.5c-6-6.3-13.8-9.5-23.4-9.5
				c-9.7,0-18,3.2-24.8,9.7c-6.8,6.6-10.2,15.2-10.2,25.5v66.8h-17.4V272.3H719.1z"/>
			<path class="st0" d="M901.1,303.4c-1.5-12.1-11.2-18.1-29.1-18.1s-26.8,5.6-26.8,16.7c0,4.6,1.9,8.2,5.7,10.6
				c3.8,2.4,8.5,4.4,14.3,5.9c5.7,1.5,11.9,3,18.7,4.3c6.7,1.3,12.9,3.2,18.7,5.6c5.7,2.4,10.5,5.7,14.3,9.9
				c3.8,4.2,5.7,9.9,5.7,17.2c0,11.3-4.3,19.9-12.8,25.9c-8.5,6-20,8.9-34.6,8.9c-15.5,0-27.8-3.9-36.9-11.6
				c-8.4-6.8-12.8-15.7-13.5-26.7h18.1c1.1,10.7,7.1,17.9,18.1,21.6c4,1.2,8,1.9,11.9,1.9c3.9,0,7.6-0.2,11-0.7
				c3.4-0.5,6.7-1.3,10-2.6c7.4-2.9,11.1-8,11.1-15.1c0-4.8-1.9-8.5-5.7-11c-3.8-2.6-8.5-4.6-14.3-6.3c-5.7-1.6-11.9-3.1-18.7-4.4
				c-6.7-1.3-13-3.1-18.7-5.4c-5.7-2.3-10.5-5.5-14.3-9.5c-3.8-4-5.7-9.6-5.7-16.7c0-10.5,3.8-18.7,11.5-24.5c7.7-5.8,19-8.7,34-8.7
				c14.2,0,25.4,3.4,33.6,10.2c6.8,5.7,10.7,13.3,11.8,22.7H901.1z"/>
			<path class="st0" d="M962.1,225.9v64.5c4.2-5.6,9.3-10.3,15.3-14.1c6-3.9,12.9-5.8,20.6-5.8c7.7,0,14.4,1.1,19.9,3.2
				c5.6,2.2,10.4,5.4,14.6,9.7c9.6,9.4,14.4,21.9,14.4,37.3v67.5h-17.4v-67c0-10.7-3-19.2-9-25.5c-6-6.3-13.8-9.5-23.4-9.5
				c-9.7,0-18,3.2-24.8,9.7c-6.8,6.6-10.2,15.2-10.2,25.5v66.8h-17.4V225.9H962.1z"/>
			<path class="st0" d="M1166.4,369.7c-9.3,13.6-23.1,20.4-41.5,20.4c-16.7,0-30.3-5.8-40.8-17.4c-10.2-11.4-15.3-25.6-15.3-42.4
				c0-16.8,5.1-31,15.3-42.4c10.5-11.6,24.5-17.4,42-17.4c17.5,0,30.9,6.9,40.3,20.6v-18.8h17.4v115.9h-17.4V369.7z M1127.2,374.3
				c12.5,0,22.4-4.3,29.7-13c7-8.2,10.4-18.6,10.4-31.1s-3.5-22.9-10.4-31.1c-7.3-8.7-17.2-13-29.7-13c-12.4,0-22.4,4.3-30.1,13
				c-7.3,8.2-10.9,18.6-10.9,31.1s3.6,22.9,10.9,31.1C1104.8,370,1114.8,374.3,1127.2,374.3z"/>
			<path class="st0" d="M1231.3,290.9c9.3-13.6,23.1-20.4,41.5-20.4c16.7,0,30.2,5.8,40.6,17.4c10.4,11.4,15.5,25.6,15.5,42.4
				c0,16.9-5.2,31-15.5,42.4c-10.4,11.6-24.3,17.4-41.7,17.4c-17.5,0-30.9-6.9-40.4-20.6v64.7h-17.4V272.3h17.4V290.9z
				 M1270.5,286.2c-12.5,0-22.4,4.3-29.7,13c-7,8.2-10.4,18.6-10.4,31.1s3.5,22.9,10.4,31.1c7.3,8.7,17.2,13,29.7,13
				c12.4,0,22.4-4.3,30.1-13c7.3-8.2,10.9-18.6,10.9-31.1s-3.6-22.9-10.9-31.1C1292.9,290.5,1282.9,286.2,1270.5,286.2z"/>
			<path class="st0" d="M1403.4,374.3c15.6,0,26.8-6.5,33.6-19.5h19c-4,10.5-10.4,19-19.1,25.5c-8.7,6.5-20,9.7-33.7,9.7
				c-17.5,0-31.7-5.8-42.7-17.4c-10.7-11.3-16-25.4-16-42.4c0-17.2,5.1-31.3,15.3-42.4c10.8-11.6,24.9-17.4,42.2-17.4
				c17.3,0,31.4,5.8,42.2,17.4c10.2,11.1,15.3,25.3,15.3,42.4v7h-97.2c1.2,10.7,5.5,19.5,12.8,26.4
				C1382.5,370.8,1392,374.3,1403.4,374.3z M1402,286.2c-10.7,0-19.6,3.3-26.9,10c-6.8,6.3-11,14.6-12.5,24.8h78.8
				c-1.5-10.2-5.7-18.5-12.5-24.8C1421.6,289.5,1412.7,286.2,1402,286.2z"/>
		</g>
		<g>
			<polygon class="st1" points="366.2,208.8 316.4,180.1 187.7,254.5 187.7,321.1 238.7,351.4 238.7,282.6 			"/>
			<polygon class="st1" points="187.7,342.9 187.7,404 317.1,478.7 373.8,446 373.8,383.5 316.5,420.9 			"/>
			<polygon class="st1" points="393.1,285.9 332.8,251.1 386.1,220.2 446.6,254.9 446.6,404 393,434.9 			"/>
			<polygon class="st0" points="336.2,274.7 314.4,262.2 257.7,294.9 257.7,324.1 280.1,337.2 280.1,307.2 			"/>
			<polygon class="st0" points="257.7,335.9 257.7,362.6 316.5,397.9 340.6,382.9 340.6,356.1 316.5,371.6 			"/>
			<polygon class="st0" points="350.4,310.2 323.5,294.8 347.1,281.1 373.8,296.5 373.8,361.9 350.3,376.8 			"/>
		</g>
	</g>
</g>
<g>
	<path class="st0" d="M1469.5,275.6v-2.8h17.3v2.8h-7.2v18.3h-3v-18.3H1469.5z M1507.6,272.8h3.1v21.2h-3v-16.3l-7,9l-7.2-9v16.3h-3
		v-21.2h3.2l7,9.3L1507.6,272.8z"/>
</g>
</svg>
