<svg width="4075" height="2142" viewBox="0 0 4075 2142" fill="none" xmlns="http://www.w3.org/2000/svg">
<g clip-path="url(#clip0_109_3)">
<path fill-rule="evenodd" clip-rule="evenodd" d="M303.062 1306.01C303.062 1306.02 303.062 1306.03 303.062 1306.04L303.064 1306.39C303.064 1313.14 303.296 1320.12 304.694 1326.64C312.611 1364.01 327.281 1375.65 372.571 1381.12C377.38 1381.71 382.189 1382.22 386.993 1382.74L387.014 1382.74C399.533 1384.09 412.018 1385.44 424.382 1387.88C429.389 1388.81 436.258 1394.98 436.956 1399.52C438.237 1407.67 432.416 1412.09 423.218 1412.09C372.125 1412.09 321.062 1412.15 269.998 1412.21C269.921 1412.21 269.843 1412.21 269.765 1412.21C218.624 1412.26 167.482 1412.32 116.312 1412.32C109.035 1412.32 101.759 1412.29 94.4818 1412.26C87.205 1412.24 79.9282 1412.21 72.6514 1412.21C72.3506 1412.2 72.0504 1412.2 71.751 1412.19C64.5198 1412.1 57.8326 1412.01 57.05 1401.73C56.3514 1391.49 62.5221 1389.74 70.4393 1388.69C83.8286 1386.83 97.3343 1384.85 110.607 1382.4C143.207 1376.35 159.624 1355.05 164.63 1323.85C166.609 1311.86 167.774 1299.75 167.774 1287.64C168.006 1086.37 168.123 885.205 167.774 683.927C167.774 673.204 166.207 662.416 164.637 651.611C164.111 647.988 163.584 644.363 163.116 640.737C160.671 620.714 147.515 611.168 128.886 609.073C119.817 608.002 110.679 607.613 101.528 607.223C93.7632 606.893 85.9894 606.562 78.24 605.813C74.7231 605.414 71.3709 603.478 68.0326 601.55C67.8424 601.441 67.6503 601.33 67.4601 601.22C66.127 600.452 64.7947 599.7 63.4536 599.061C64.5232 597.493 65.5054 595.652 66.4906 593.805C68.7226 589.62 70.9696 585.408 74.2814 584.277C88.2707 579.536 102.582 575.706 116.887 571.878C117.31 571.765 117.733 571.652 118.156 571.538C124.501 569.84 130.843 568.137 137.153 566.349C164.536 558.597 191.918 550.718 219.301 542.84C237.558 537.587 255.816 532.334 274.073 527.118C298.406 520.25 300.036 521.414 300.036 546.21C300.036 558.426 299.602 570.593 299.169 582.744C298.929 589.467 298.689 596.185 298.523 602.903C298.444 605.038 298.794 607.173 299.283 610.147M902.794 1424.42C902.792 1424.38 902.789 1424.35 902.787 1424.31H903.136C903.021 1424.35 902.907 1424.38 902.794 1424.42ZM1964.6 1566.22C1964.61 1566.22 1964.61 1566.22 1964.62 1566.22L1964.38 1566.45C1964.46 1566.37 1964.53 1566.29 1964.6 1566.22ZM1620.51 1686.16C1620.49 1686.15 1620.47 1686.14 1620.45 1686.13H1620.57C1620.55 1686.14 1620.53 1686.15 1620.51 1686.16Z" fill="#F2F2F2"/>
<path fill-rule="evenodd" clip-rule="evenodd" d="M68.0326 601.55C67.8424 601.441 67.6503 601.33 67.4601 601.22C66.127 600.452 64.7947 599.7 63.4536 599.061C64.5232 597.493 65.5054 595.652 66.4906 593.805C68.7226 589.62 70.9696 585.408 74.2814 584.277C88.2707 579.536 102.582 575.706 116.887 571.878C117.31 571.765 117.733 571.652 118.156 571.538C124.501 569.84 130.843 568.137 137.153 566.349C164.536 558.597 191.918 550.718 219.301 542.84C237.558 537.587 255.816 532.334 274.073 527.118" fill="#F2F2F2"/>
<path d="M3344.64 922.456C3344.99 888.58 3331.25 869.721 3297.72 859.593C3277.81 853.656 3257.44 848.883 3237.3 843.528C3193.75 832.003 3181.64 808.371 3197.83 766.346C3210.4 733.518 3231.94 706.394 3255.81 681.598C3286.08 650.166 3318.68 621.063 3349.88 590.679C3360.36 580.435 3367.7 582.297 3377.59 592.309C3525.92 741.783 3674.6 890.792 3823.16 1039.92C3841.4 1058.23 3841.33 1076.55 3822.93 1094.86C3756.33 1161.34 3689.85 1227.92 3623.26 1294.4C3538.73 1378.68 3454.09 1462.61 3369.79 1547.13C3361.64 1555.28 3357.45 1550.62 3352.09 1545.27C3317.4 1510.69 3284.1 1474.6 3247.66 1441.89C3224.49 1421.05 3197.13 1404.76 3170.82 1387.64C3163.13 1382.64 3152.54 1380.77 3143.11 1379.96C3097 1375.88 3075.46 1392.65 3066.96 1437.93C3064.17 1452.72 3062.19 1467.62 3058.69 1482.17C3049.38 1520.24 3023.65 1536.77 2985.11 1530.37C2932.72 1521.63 2895.46 1477.4 2895.81 1424.31C2895.93 1401.73 2905.36 1384.03 2927.25 1376.93C2947.85 1370.18 2969.51 1366.57 2990.58 1361.57C2997.22 1360.05 3003.86 1358.66 3010.38 1356.79C3036.57 1349.23 3048.68 1332.35 3050.43 1304.76C3053.11 1265.41 3034.01 1235.03 3011.89 1205.46C2977.08 1158.89 2934.12 1120.36 2892.2 1080.66C2876.02 1065.41 2876.6 1065.06 2890.8 1048.53C2930.27 1002.43 2971.14 957.613 3019.57 920.71C3040.53 904.761 3063.82 894.75 3090.83 895.448C3117.37 896.03 3136.24 910.931 3141.24 937.008C3144.5 954.004 3144.39 971.815 3147.65 988.812C3156.73 1036.42 3198.29 1060.99 3244.98 1047.13C3305.87 1028.97 3344.18 981.245 3344.76 922.456H3344.64Z" fill="#F2F2F2"/>
<path d="M2861.23 2049.92C2855.76 2044.91 2850.06 2040.02 2844.58 2034.55C2709.06 1899.16 2573.54 1763.66 2438.01 1628.15C2420.2 1610.34 2402.04 1592.76 2383.64 1575.53C2375.49 1567.85 2375.73 1562.26 2383.76 1554C2425.67 1510.93 2467.94 1468.2 2507.76 1423.27C2522.77 1406.27 2534.42 1384.73 2542.33 1363.2C2560.26 1314.3 2538.14 1278.91 2487.26 1269.48C2470.61 1266.34 2453.85 1263.31 2437.78 1258.08C2406.58 1248.06 2392.02 1224.55 2395.28 1192.19C2400.64 1139.22 2453.27 1094.63 2506.71 1097.66C2529.53 1098.94 2546.88 1112.33 2553.28 1136.89C2558.52 1157.03 2561.66 1177.63 2564.34 1198.36C2569.7 1239.57 2594.49 1255.17 2639.09 1252.37C2667.26 1250.63 2692.29 1238.17 2712.44 1219.89C2758.31 1178.22 2802.67 1134.79 2846.56 1091.02C2857.16 1080.55 2864.03 1078.33 2874.97 1089.04C2915.49 1128.04 2957.4 1165.64 2996.64 1205.92C3020.39 1230.25 3036.22 1260.4 3031.45 1296.49C3027.72 1324.78 3006.77 1342.82 2978.13 1345.04C2966.48 1345.85 2954.84 1346.43 2943.31 1347.71C2892.2 1353.77 2862.51 1400.45 2880.68 1448.64C2902.45 1506.62 2942.62 1542.47 3006.77 1547.01C3028.54 1548.53 3052.41 1536.89 3060.21 1516.51C3068.48 1494.98 3073.02 1472.04 3079.19 1449.69C3081.4 1441.78 3083.03 1433.63 3085.82 1425.94C3096.65 1395.33 3120.4 1383.92 3151.61 1393.12C3189.56 1404.29 3220.3 1427.57 3247.66 1454.23C3279.56 1485.31 3308.09 1519.66 3338.36 1552.37C3346.39 1560.98 3345.23 1566.92 3336.84 1575.3C3207.61 1703.24 3078.6 1831.53 2949.72 1959.93C2920.26 1989.27 2891.39 2019.3 2861.23 2050.03V2049.92Z" fill="#F2F2F2"/>
<path d="M2692.06 849.583C2692.06 810.119 2711.04 789.747 2744.69 785.556C2757.73 783.926 2770.77 782.762 2783.57 780.317C2833.29 770.888 2858.67 728.979 2844 680.202C2826.07 620.715 2776.12 586.606 2716.63 582.415C2686.24 580.32 2666.56 595.454 2655.74 628.049C2649.57 646.442 2645.14 665.301 2640.37 684.16C2627.33 736.197 2599.5 749.352 2551.07 725.254C2505.08 702.321 2469.1 666.931 2434.64 629.912C2417.76 611.868 2402.15 592.66 2385.97 573.917C2380.27 567.282 2380.5 562.276 2387.37 555.524C2511.95 431.66 2636.18 307.68 2760.4 183.584C2790.56 153.433 2820.6 123.049 2850.05 92.1999C2859.02 82.8869 2865.07 85.3315 2872.87 93.2476C2958.92 179.393 3044.96 265.539 3131.23 351.452C3199.22 419.204 3267.45 486.84 3335.8 554.36C3344.64 563.091 3345.23 569.377 3335.8 578.224C3303.08 609.19 3270.36 640.389 3238.81 672.519C3210.4 701.389 3185.14 733.054 3175.94 773.798C3167.09 812.564 3181.18 850.631 3229.26 859.478C3246.84 862.738 3264.77 865.066 3281.89 870.072C3318.1 880.665 3332.42 905.345 3324.97 942.364C3314.26 996.031 3279.33 1022.92 3227.87 1030.14C3200.39 1033.98 3179.2 1019.43 3170.7 991.491C3165.46 973.912 3162.2 955.635 3159.64 937.475C3152.77 888 3126.11 872.051 3071.73 878.104C3045.31 881.015 3022.72 895.101 3003.97 912.679C2960.55 953.424 2918.51 995.798 2876.13 1037.71C2861.7 1051.91 2862.05 1052.37 2847.84 1038.29C2805.23 995.914 2762.15 954.006 2720.24 910.933C2702.19 892.423 2692.64 869.024 2692.06 850.049V849.583Z" fill="#F2F2F2"/>
<path d="M300.036 615.01C306.44 610.703 311.214 607.909 315.638 604.533C362.326 568.91 411.575 538.41 470.371 527.584C577.719 507.793 668.766 536.78 737.459 622.81C771.106 664.835 787.057 715.591 791.947 769.374C803.939 900.105 723.953 1048.53 606.244 1105.46C506.697 1153.65 407.267 1154.93 312.029 1091.14C310.049 1089.86 307.954 1088.93 304.344 1086.95C303.529 1091.6 302.481 1095.1 302.481 1098.71C302.481 1168.09 302.714 1237.35 302.947 1306.74C302.947 1313.49 303.18 1320.36 304.577 1326.99C312.494 1364.48 327.164 1376 372.455 1381.47C389.803 1383.57 407.151 1384.97 424.266 1388.23C429.272 1389.16 436.025 1395.33 436.84 1399.87C438.121 1408.02 432.299 1412.44 423.101 1412.44C320.761 1412.44 218.536 1412.44 116.196 1412.67C101.642 1412.67 87.0885 1412.67 72.5349 1412.56C64.9671 1412.56 57.7485 1412.9 56.9335 1402.08C56.1185 1391.83 62.4057 1390.09 70.3228 1389.04C83.7121 1387.18 97.1014 1385.2 110.491 1382.75C142.974 1376.7 159.507 1355.4 164.514 1324.2C166.376 1312.32 167.657 1300.1 167.657 1287.99C167.89 1086.72 167.89 885.554 167.657 684.276C167.657 669.84 164.863 655.405 163 641.086C160.439 621.063 147.282 611.517 128.77 609.422C112.004 607.443 94.8892 607.909 78.1235 606.163C73.0007 605.697 68.2271 601.739 63.3371 599.411C66.9464 594.288 69.5078 586.256 74.1649 584.626C94.7728 577.641 116.079 572.636 137.036 566.698C182.676 553.66 228.316 540.506 273.956 527.467C298.29 520.483 300.036 521.647 299.92 546.559C299.92 565.418 298.872 584.277 298.406 603.252C298.406 606.395 299.221 609.538 299.92 615.359L300.036 615.01ZM302.831 840.968C302.831 840.968 302.714 840.968 302.598 840.968C302.598 890.909 302.481 940.85 302.714 990.908C302.714 998.94 303.064 1007.9 306.324 1015.01C317.035 1038.52 333.801 1057.03 356.854 1069.6C396.439 1091.14 439.518 1096.26 482.596 1088.93C556.179 1076.24 604.148 1029.44 633.022 962.852C657.006 907.556 657.356 848.302 652.815 789.629C649.322 744.927 634.769 703.367 603.216 669.608C557.227 620.365 500.876 598.014 433.464 602.903C389.221 606.163 350.916 622.81 318.199 652.495C307.139 662.506 302.249 674.381 302.481 689.747C303.18 740.154 302.714 790.677 302.714 841.084L302.831 840.968Z" fill="#F2F2F2"/>
<path d="M1574.93 626.301C1588.43 615.009 1598.8 606.744 1608.81 598.013C1669.35 545.394 1739.56 519.085 1820.01 523.276C1887.31 526.768 1945.52 549.352 1975.09 615.126C1986.97 641.552 1995.82 671.586 1996.75 700.224C2000.13 799.524 1999.43 898.941 2000.59 998.358C2000.71 1011.4 2001.29 1024.55 2003.15 1037.47C2009.21 1077.63 2024.69 1093.35 2065.09 1101.97C2072.2 1103.48 2079.76 1104.18 2086.17 1106.97C2090.36 1108.83 2092.92 1114.07 2096.18 1117.68C2092.57 1120.82 2089.31 1125.6 2085.12 1126.76C2078.25 1128.74 2070.8 1128.97 2063.46 1128.97C1973.23 1128.97 1883 1128.97 1792.77 1128.74C1784.5 1128.74 1776.23 1128.16 1768.2 1126.41C1764.71 1125.6 1759.82 1121.64 1759.35 1118.5C1758.89 1115.35 1762.38 1109.88 1765.52 1108.48C1772.51 1105.34 1780.19 1103.94 1787.76 1102.08C1799.52 1099.05 1811.28 1096.14 1823.04 1093.47C1848.54 1087.53 1859.71 1069.84 1862.16 1045.39C1863.67 1030.02 1865.19 1014.42 1865.19 999.056C1865.42 904.994 1865.88 810.816 1864.72 716.754C1864.49 698.245 1859.83 679.153 1853.78 661.575C1838.52 617.571 1804.06 599.759 1759.58 596.849C1709.4 593.473 1665.28 609.538 1623.95 636.546C1577.02 667.162 1577.49 666.93 1577.84 722.575C1578.42 817.219 1577.84 911.746 1578.65 1006.39C1578.65 1022.69 1581.68 1039.1 1584.48 1055.28C1587.5 1073.56 1598.21 1086.02 1616.26 1091.37C1629.18 1095.21 1642.34 1098.59 1655.38 1102.2C1661.9 1103.94 1668.89 1104.88 1674.82 1107.9C1678.43 1109.76 1683.09 1115.24 1682.51 1118.15C1681.81 1121.64 1676.34 1125.48 1672.26 1126.41C1664.81 1128.16 1656.89 1128.39 1649.09 1128.39C1556.42 1128.51 1463.74 1128.39 1371.06 1128.39C1364.31 1128.39 1357.32 1128.27 1350.8 1126.64C1346.73 1125.6 1343.35 1121.64 1339.63 1119.08C1342.54 1115.12 1345.1 1110.7 1348.71 1107.32C1350.57 1105.57 1354.06 1105.46 1356.86 1104.76C1362.1 1103.59 1367.34 1102.66 1372.58 1101.62C1426.72 1091.26 1436.96 1079.96 1440.34 1024.55C1441.73 1001.38 1442.78 978.102 1442.78 954.819C1443.02 766.114 1442.9 577.408 1442.78 388.702C1442.78 376.13 1441.5 363.441 1439.29 351.101C1434.52 323.977 1421.24 312.801 1393.65 311.404C1382.47 310.822 1371.3 312.219 1360.23 311.055C1354.53 310.473 1349.17 306.049 1343.59 303.372C1347.89 297.667 1351.15 289.402 1356.86 286.841C1367.8 281.952 1380.14 280.438 1391.9 277.528C1445.93 264.024 1499.95 250.404 1554.09 237.016C1574.35 232.01 1574.93 232.36 1574.93 252.732C1575.05 370.658 1574.93 488.468 1575.05 606.395C1575.05 611.517 1575.05 616.523 1575.05 625.952L1574.93 626.301Z" fill="#F2F2F2"/>
<path d="M1071.84 521.297V640.155C1078.01 634.218 1081.51 630.725 1085.11 627.466C1113.87 602.32 1141.12 575.08 1171.85 552.496C1206.55 527.001 1246.95 516.175 1290.26 526.186C1318.32 532.705 1340.21 547.606 1348.36 577.175C1359.77 618.385 1321.35 661.575 1278.39 653.309C1258.59 649.468 1238.33 640.62 1221.8 629.095C1185.71 603.95 1164.05 605.114 1129.94 631.889C1115.62 643.181 1101.3 656.103 1091.63 671.237C1082.67 685.323 1075.33 703.25 1075.1 719.548C1073.7 815.007 1074.52 910.582 1074.87 1006.16C1074.87 1016.75 1076.38 1027.46 1078.13 1037.94C1083.14 1069.14 1102.11 1088.46 1132.27 1095.56C1149.15 1099.52 1166.73 1100.34 1183.96 1102.55C1189.2 1103.25 1195.14 1103.01 1199.56 1105.34C1203.64 1107.55 1208.41 1112.68 1208.41 1116.52C1208.41 1120.01 1202.71 1125.48 1198.75 1126.41C1189.9 1128.51 1180.47 1128.97 1171.27 1128.97C1086.86 1128.97 1002.45 1128.97 918.039 1128.74C891.843 1128.74 865.647 1127.69 839.567 1127.11C832.581 1126.99 825.944 1127.34 825.479 1117.1C825.013 1106.74 830.601 1103.71 839.334 1102.43C857.496 1099.87 876.009 1098.12 893.706 1093.7C926.306 1085.55 938.298 1071.93 938.88 1038.64C940.51 931.071 941.325 823.505 941.325 715.823C941.325 695.218 937.599 674.264 932.942 654.124C925.957 623.74 904.999 610.12 873.797 612.681C862.736 613.612 851.559 614.777 840.382 614.544C835.841 614.427 831.417 610.586 826.992 608.49C829.787 603.834 831.649 598.246 835.492 594.986C839.334 591.727 845.039 590.446 850.045 588.816C918.039 567.629 986.034 546.442 1054.03 525.371C1058.92 523.858 1064.04 523.043 1071.61 521.413L1071.84 521.297Z" fill="#F2F2F2"/>
<path d="M1032.37 1915.23C1032.37 1875.07 1032.37 1834.9 1032.37 1794.74C1032.37 1787.29 1030.97 1779.96 1042.62 1780.19C1053.33 1780.42 1053.91 1787.06 1053.79 1794.86C1053.33 1848.17 1053.1 1901.49 1052.16 1954.81C1052.16 1959.81 1047.04 1964.7 1044.25 1969.59C1038.19 1965.64 1029.46 1963.19 1026.55 1957.6C1006.18 1919.07 986.965 1879.95 967.289 1840.96C966.241 1838.86 965.309 1836.65 961.467 1834.67C961.234 1839.44 960.768 1844.33 960.768 1849.11C960.768 1884.03 960.768 1918.95 960.768 1953.88C960.768 1960.28 962.981 1968.66 952.502 1969.36C941.907 1969.94 939.695 1962.84 939.811 1954.11C939.928 1901.26 939.811 1848.41 940.393 1795.56C940.393 1790.55 945.284 1785.54 947.961 1780.54C954.249 1784.73 963.33 1787.52 966.474 1793.46C982.541 1823.26 997.094 1853.99 1012.23 1884.26C1017.59 1894.97 1023.52 1905.45 1029.23 1916.16C1030.28 1915.81 1031.32 1915.58 1032.37 1915.23Z" fill="#F2F2F2"/>
<path d="M618.352 1609.53C631.159 1633.74 643.384 1656.09 654.794 1678.91C656.89 1683.22 655.493 1689.27 655.726 1694.51C649.089 1692.99 641.521 1692.99 636.166 1689.39C631.974 1686.59 630.577 1679.61 627.899 1674.37C619.283 1657.6 611.25 1640.49 601.819 1624.19C595.881 1613.95 572.013 1607.9 562.816 1613.95C559.672 1616.05 557.693 1621.98 557.46 1626.29C556.761 1644.68 557.576 1663.19 556.296 1681.47C555.946 1686.59 550.241 1691.36 546.981 1696.37C543.838 1691.25 538.016 1686.24 537.783 1681.12C536.503 1626.41 535.921 1571.69 536.037 1516.98C536.037 1513.02 543.139 1505.69 546.981 1505.69C571.082 1505.69 595.416 1505.8 619.283 1509.06C627.783 1510.23 637.563 1518.72 642.569 1526.52C660.15 1554.23 650.253 1589.97 621.845 1606.96C620.215 1607.9 618.701 1609.06 618.352 1609.29V1609.53ZM581.793 1588.8C590.409 1587.87 599.025 1587.06 607.641 1586.01C620.797 1584.5 626.851 1576.35 628.132 1563.78C630.577 1539.1 621.728 1529.08 596.58 1528.27C571.431 1527.49 558.275 1538.79 557.111 1562.15C555.83 1587.41 556.412 1587.99 581.91 1588.8H581.793Z" fill="#F2F2F2"/>
<path d="M1241.71 1376.47C1241.71 1361.92 1242.29 1347.37 1241.48 1332.93C1241.01 1324.2 1238.45 1313.02 1227.74 1314.19C1220.29 1315 1211.9 1321.99 1207.13 1328.51C1203.29 1333.63 1203.29 1342.36 1203.17 1349.46C1202.59 1372.28 1203.41 1395.09 1202.24 1417.8C1202.01 1422.8 1195.95 1427.57 1192.58 1432.35C1188.97 1427.57 1182.45 1422.8 1182.22 1417.8C1181.05 1393.58 1181.52 1369.37 1181.28 1345.15C1181.28 1339.8 1182.33 1333.74 1180.24 1329.32C1177.44 1323.38 1172.32 1314.77 1167.66 1314.42C1161.61 1313.95 1151.36 1319.08 1149.38 1324.32C1144.84 1336.19 1142.98 1349.46 1142.28 1362.38C1141.12 1381.24 1142.4 1400.22 1141.58 1419.08C1141.35 1423.5 1136.69 1427.81 1134.13 1432.23C1130.29 1427.69 1123.42 1423.27 1123.3 1418.61C1121.79 1383.8 1121.21 1348.88 1121.21 1314.07C1121.21 1294.4 1123.42 1293.47 1141.7 1298.7C1144.84 1299.64 1149.15 1298.12 1152.41 1296.61C1169.76 1288.11 1178.72 1289.39 1193.39 1300.92C1196.07 1303.01 1203.29 1303.13 1206.08 1301.03C1232.51 1280.89 1258.01 1289.86 1261.04 1322.92C1264.06 1355.16 1263.37 1387.64 1263.25 1420.12C1263.25 1424.2 1257.2 1428.27 1254.05 1432.35C1250.21 1428.27 1243.46 1424.55 1243.11 1420.12C1241.71 1405.69 1242.53 1391.14 1242.53 1376.58C1242.29 1376.58 1242.06 1376.58 1241.83 1376.58L1241.71 1376.47Z" fill="#F2F2F2"/>
<path d="M1746.31 1573.21C1747.48 1570.88 1748.29 1567.73 1750.27 1565.76C1759.7 1556.09 1770.65 1551.2 1784.38 1555.86C1798.24 1560.52 1804.53 1571.81 1805.11 1584.73C1806.74 1617.09 1807.32 1649.57 1806.97 1681.94C1806.97 1686.82 1800.22 1691.6 1796.61 1696.37C1793.35 1691.37 1787.41 1686.48 1787.18 1681.47C1786.13 1655.86 1786.83 1630.13 1786.36 1604.4C1786.13 1593 1787.41 1579.72 1770.76 1577.98C1758.3 1576.7 1748.29 1587.64 1747.71 1604.29C1746.89 1627.1 1747.48 1649.81 1747.24 1672.62C1747.24 1677.98 1747.59 1683.57 1745.85 1688.45C1744.68 1691.83 1740.26 1696.02 1737.11 1696.25C1734.09 1696.37 1729.31 1692.53 1727.92 1689.27C1725.94 1684.61 1725.82 1678.91 1725.82 1673.67C1725.59 1649.46 1725.82 1625.24 1725.47 1600.91C1725.35 1590.55 1724.89 1579.61 1711.15 1577.75C1700.21 1576.23 1690.08 1585.2 1689.03 1599.52C1687.17 1623.15 1686.93 1646.9 1686.12 1670.53C1685.89 1675.42 1687.17 1680.66 1685.65 1684.96C1684.14 1689.27 1680.06 1692.76 1677.04 1696.6C1673.78 1692.65 1669.93 1688.92 1667.37 1684.5C1666.09 1682.28 1666.91 1678.79 1666.91 1675.88C1666.56 1640.03 1666.21 1604.29 1665.74 1568.43C1665.63 1558.89 1669.82 1557.96 1677.62 1560.75C1681.81 1562.26 1687.17 1564.01 1691.01 1562.85C1721.75 1553.18 1721.75 1552.95 1746.2 1573.09L1746.31 1573.21Z" fill="#F2F2F2"/>
<path d="M902.787 1424.2C898.363 1425.71 895.219 1426.87 891.959 1427.69C867.043 1434.67 847.949 1425.59 839.45 1399.87C830.252 1372.04 830.252 1343.41 842.477 1316.17C854.003 1290.32 872.865 1284.85 897.897 1298.12C900.691 1299.63 905.348 1298.24 908.841 1297.31C912.8 1296.26 916.409 1294.16 920.135 1292.53C921.998 1297.19 925.491 1301.85 925.491 1306.62C925.491 1343.87 925.025 1381.24 923.861 1418.49C923.395 1431.41 921.765 1444.69 918.039 1457.03C912.218 1476.58 894.404 1486.48 872.283 1484.85C854.702 1483.57 840.847 1471.58 838.169 1454.46C837.587 1450.51 840.265 1446.08 841.429 1441.78C845.504 1443.52 851.675 1444.22 853.421 1447.36C861.455 1461.91 872.632 1467.5 888.466 1462.03C899.294 1458.31 903.835 1446.08 902.438 1424.2H902.787ZM907.095 1359.94C903.951 1348.06 902.554 1335.14 897.198 1324.31C888.932 1307.67 868.208 1307.9 860.524 1324.55C849.463 1348.53 849.696 1373.67 861.571 1397.31C864.482 1403.01 873.68 1409.3 879.501 1408.83C886.138 1408.25 895.103 1401.85 898.013 1395.56C903.02 1384.97 904.068 1372.63 907.095 1359.82V1359.94Z" fill="#F2F2F2"/>
<path d="M535.105 1336.19C535.105 1310.58 535.804 1284.85 534.873 1259.24C534.407 1245.5 539.763 1241.2 552.686 1241.66C568.637 1242.24 584.704 1241.43 600.655 1242.01C623.009 1242.94 636.398 1254.12 642.453 1275.66C652.465 1311.16 637.446 1345.39 607.873 1352.6C597.628 1355.17 586.683 1356.68 576.205 1356.1C562 1355.28 557.227 1361.45 557.227 1374.49C557.227 1389.04 556.878 1403.59 556.645 1418.03C556.645 1424.9 557.11 1432.23 546.865 1432.35C536.619 1432.35 535.222 1425.48 535.222 1417.68C535.222 1404.18 535.222 1390.55 535.222 1377.05C535.222 1363.55 535.222 1349.93 535.222 1336.42C535.222 1336.42 535.105 1336.42 534.989 1336.42L535.105 1336.19ZM557.343 1303.24C557.188 1322.96 567.084 1332 587.033 1330.37C590.409 1330.14 593.785 1330.02 597.162 1329.79C616.605 1328.16 622.776 1320.36 622.66 1297.31C622.66 1275.66 616.023 1266.81 596.813 1266.92C555.364 1267.16 559.206 1258.08 557.46 1303.36L557.343 1303.24Z" fill="#F2F2F2"/>
<path d="M1419.96 1599.17C1419.96 1572.97 1419.5 1546.78 1420.43 1520.7C1420.66 1515.47 1426.25 1510.34 1429.39 1505.22C1432.54 1510.11 1438.13 1514.88 1438.47 1520.01C1439.64 1536.42 1439.41 1552.95 1438.82 1569.36C1438.47 1579.61 1442.55 1583.22 1452.45 1582.87C1467.47 1582.29 1482.48 1581.94 1497.5 1582.52C1508.22 1582.87 1510.78 1578.1 1510.43 1568.55C1509.85 1552.14 1509.5 1535.6 1510.66 1519.19C1511.01 1514.42 1516.48 1509.99 1519.63 1505.45C1523.58 1509.88 1530.92 1514.3 1531.04 1518.84C1531.85 1573.56 1531.85 1628.39 1531.27 1683.1C1531.27 1687.64 1525.21 1692.06 1521.95 1696.6C1518.23 1692.3 1511.59 1688.11 1511.24 1683.57C1509.85 1663.78 1509.73 1643.87 1510.54 1623.96C1511.01 1611.39 1507.05 1606.27 1494.13 1606.97C1480.16 1607.78 1466.07 1607.43 1451.98 1606.97C1442.55 1606.62 1438.94 1610.57 1439.17 1619.89C1439.52 1640.73 1439.64 1661.56 1438.71 1682.4C1438.47 1687.29 1433.35 1691.95 1430.44 1696.72C1426.95 1691.83 1420.66 1687.06 1420.43 1682.05C1419.5 1654.46 1419.96 1626.87 1419.96 1599.17Z" fill="#F2F2F2"/>
<path d="M1083.95 1779.26C1108.63 1780.54 1133.43 1780.31 1157.77 1783.45C1179.65 1786.24 1193.74 1814.3 1190.37 1842.7C1185.94 1878.56 1169.64 1892.99 1130.75 1894.39C1099.09 1895.55 1105.02 1891.25 1101.88 1923.38C1100.72 1934.9 1102.23 1946.66 1101.07 1958.3C1100.72 1962.38 1096.18 1965.98 1093.61 1969.83C1089.54 1966.57 1085.23 1963.42 1081.39 1960.05C1080.57 1959.35 1080.57 1957.25 1080.57 1955.86C1081.04 1899.63 1081.51 1843.4 1082.09 1787.17C1082.09 1785.78 1082.79 1784.38 1084.18 1779.37L1083.95 1779.26ZM1101.41 1837.35C1101.18 1872.85 1104.79 1875.88 1140.65 1869.13C1144.96 1868.31 1149.62 1867.96 1153.23 1865.87C1157.65 1863.31 1163.59 1859.7 1164.52 1855.62C1170.81 1826.87 1168.83 1806.5 1135.41 1805.22C1101.65 1803.82 1101.65 1803.47 1101.41 1837.35Z" fill="#F2F2F2"/>
<path d="M794.625 1961.91C801.378 1938.63 807.549 1917.67 813.603 1896.83C823.616 1862.49 833.279 1828.03 844.224 1793.93C845.97 1788.45 853.421 1781.24 858.195 1781.35C863.318 1781.35 871.119 1788.22 872.865 1793.58C890.213 1847.94 906.629 1902.66 922.813 1957.37C923.861 1960.75 920.834 1965.4 919.786 1969.36C913.731 1966.45 904.766 1965.05 902.321 1960.28C896.966 1949.69 894.521 1937.46 891.61 1925.82C889.165 1916.39 884.159 1912.9 874.146 1912.78C832.464 1912.55 832.464 1912.2 820.123 1952.01C818.609 1957.02 817.212 1962.84 813.719 1966.33C811.041 1969.13 804.987 1970.17 800.912 1969.36C798.118 1968.78 796.255 1963.77 794.858 1961.91H794.625ZM880.084 1890.66C872.749 1863.66 866.345 1840.37 858.894 1813.25C851.559 1838.74 845.155 1860.16 839.566 1881.82C838.984 1884.03 843.409 1889.97 845.854 1890.2C856.216 1891.13 866.578 1890.55 880.084 1890.55V1890.66Z" fill="#F2F2F2"/>
<path d="M1513.69 1299.52C1513.69 1284.04 1512.64 1270.42 1514.15 1257.14C1514.85 1251.44 1521.02 1246.32 1524.63 1240.96C1527.66 1246.32 1533.25 1251.56 1533.36 1257.03C1534.18 1310.35 1534.18 1363.66 1534.18 1416.98C1534.18 1430.6 1530.22 1432.46 1517.06 1429.09C1512.41 1427.92 1506.59 1428.04 1502.05 1429.78C1481.9 1437.12 1465.72 1433.39 1455.94 1414.88C1438.13 1381.12 1437.31 1345.73 1454.78 1311.74C1466.53 1288.93 1481.44 1286.36 1513.57 1299.64L1513.69 1299.52ZM1516.25 1360.64C1512.64 1348.76 1510.31 1334.21 1503.91 1321.87C1496.92 1308.48 1478.76 1308.95 1472.24 1322.45C1460.36 1347.02 1460.48 1373.09 1471.19 1398C1473.75 1403.94 1483.77 1410.34 1490.17 1410.11C1496.57 1409.88 1505.65 1403.13 1508.45 1396.84C1513.11 1386.71 1513.57 1374.72 1516.37 1360.64H1516.25Z" fill="#F2F2F2"/>
<path d="M1894.18 1683.1C1890.92 1685.43 1888.24 1687.29 1885.56 1689.15C1872.29 1698.58 1857.62 1701.26 1843.06 1694.28C1826.18 1686.24 1823.5 1670.18 1824.32 1653.41C1825.02 1637.47 1832.24 1625.24 1847.37 1619.66C1857.73 1615.81 1868.8 1613.83 1879.51 1610.92C1887.66 1608.71 1895.81 1606.5 1894.18 1594.98C1892.66 1584.61 1887.66 1578.21 1876.48 1577.51C1863.91 1576.7 1853.78 1579.26 1848.19 1592.65C1846.56 1596.61 1840.97 1598.82 1837.13 1601.96C1834.8 1597.07 1829.56 1591.25 1830.61 1587.29C1832.94 1578.91 1836.89 1569.36 1843.18 1563.89C1858.08 1551.2 1876.13 1551.32 1893.94 1557.84C1909.08 1563.31 1913.04 1576.47 1913.62 1590.55C1914.9 1622.91 1915.6 1655.39 1916.07 1687.76C1916.07 1691.02 1913.04 1694.28 1911.41 1697.65C1908.15 1695.91 1904.54 1694.63 1901.86 1692.41C1898.95 1690.08 1896.97 1686.71 1894.06 1683.22L1894.18 1683.1ZM1892.66 1631.18C1881.49 1633.86 1870.31 1635.95 1859.48 1639.45C1847.95 1643.17 1844 1652.37 1847.37 1663.66C1850.98 1675.3 1859.83 1678.79 1871.47 1676.12C1887.19 1672.51 1896.16 1654.7 1892.55 1631.18H1892.66Z" fill="#F2F2F2"/>
<path d="M598.676 1836.88C598.676 1820.93 598.909 1806.61 598.676 1792.3C598.559 1784.96 600.422 1778.68 608.805 1780.89C612.531 1781.82 617.537 1787.99 617.537 1791.83C618.119 1847.01 617.887 1902.07 617.887 1957.25C617.887 1967.26 614.51 1970.41 604.497 1965.87C600.772 1964.12 594.601 1965.4 590.409 1967.38C570.733 1976.34 553.851 1972.85 542.79 1954.23C522.648 1920 522.415 1884.15 540.462 1849.11C550.125 1830.25 567.706 1825.47 587.615 1833.04C590.642 1834.2 593.669 1835.25 598.792 1837L598.676 1836.88ZM601.121 1902.19C598.327 1890.32 596.58 1876.23 591.341 1863.66C589.012 1858.07 579.698 1852.13 573.644 1852.25C567.706 1852.25 558.974 1858.53 556.412 1864.36C545.817 1888.22 544.304 1913.25 556.063 1937C559.207 1943.28 568.288 1950.73 574.226 1950.5C581.212 1950.15 590.642 1943.28 593.902 1936.76C598.559 1927.22 598.559 1915.46 601.004 1902.31L601.121 1902.19Z" fill="#F2F2F2"/>
<path d="M1294.1 1339.1C1283.51 1332 1284.67 1323.62 1288.4 1315.23C1297.13 1295.44 1314.48 1287.99 1342.42 1291.6C1359.07 1293.7 1367.92 1302.78 1369.55 1325.6C1371.99 1358.42 1372.46 1391.37 1372.81 1424.31C1372.93 1435.37 1364.43 1434.21 1358.61 1429.44C1350.8 1422.92 1344.75 1424.2 1336.37 1428.27C1313.43 1439.56 1292.12 1433.51 1283.97 1414.77C1273.5 1390.79 1284.09 1362.85 1307.38 1354.58C1316.92 1351.21 1326.94 1349.11 1336.83 1346.67C1344.28 1344.8 1352.67 1342.24 1349.52 1332.93C1347.08 1325.71 1341.84 1316.28 1335.67 1313.95C1323.21 1309.41 1310.87 1312.79 1303.77 1326.41C1301.44 1330.95 1297.71 1334.68 1294.34 1338.98L1294.1 1339.1ZM1348.71 1365.99C1336.95 1368.9 1326.12 1370.06 1316.69 1374.26C1310.64 1376.93 1303.65 1383.69 1302.6 1389.62C1301.56 1395.79 1305.28 1406.85 1310.17 1409.06C1316.69 1412.09 1327.75 1411.51 1334.04 1407.78C1348.24 1399.28 1351.27 1384.38 1348.71 1365.99Z" fill="#F2F2F2"/>
<path d="M1609.04 1369.83C1600.31 1369.83 1591.58 1369.48 1582.96 1370.07C1579.7 1370.3 1574.7 1371.93 1573.77 1374.26C1569.11 1386.71 1587.27 1412.21 1600.89 1410.93C1607.88 1410.34 1616.03 1405.34 1620.57 1399.87C1626.62 1392.53 1631.75 1383.1 1641.76 1387.76C1644.44 1389.04 1643.39 1403.71 1640.36 1410.69C1633.96 1425.83 1621.15 1432.35 1604.5 1433.16C1585.52 1433.98 1570.27 1427.46 1562.59 1410.46C1547.34 1376.47 1546.4 1341.66 1566.31 1309.06C1581.8 1283.69 1619.75 1283.1 1634.19 1309.06C1642.57 1324.43 1644.2 1343.64 1647.7 1361.33C1648.16 1363.55 1641.64 1369.25 1637.92 1369.72C1628.37 1370.88 1618.59 1370.07 1609.04 1370.07C1609.04 1370.07 1609.04 1369.95 1609.04 1369.83ZM1600.89 1347.13C1600.89 1347.13 1600.89 1347.13 1600.89 1347.02C1606.71 1347.02 1612.77 1347.95 1618.24 1346.67C1621.27 1345.97 1625.69 1341.89 1625.93 1339.1C1626.97 1325.71 1613.82 1312.56 1600.43 1312.67C1588.55 1312.67 1575.51 1325.94 1576.33 1339.1C1577.26 1354.23 1589.83 1344.57 1596.7 1347.25C1597.98 1347.71 1599.61 1347.25 1601.01 1347.25L1600.89 1347.13Z" fill="#F2F2F2"/>
<path d="M727.679 1908.13C728.494 1925.01 729.425 1941.89 729.774 1958.88C729.774 1962.26 728.493 1967.26 726.165 1968.78C723.953 1970.17 718.015 1969.01 716.152 1966.91C709.283 1959 703.694 1959.7 695.311 1965.4C675.519 1978.79 653.746 1974.6 643.501 1956.67C631.858 1936.41 639.309 1904.17 658.753 1895.55C669.697 1890.78 682.155 1889.73 693.449 1885.66C698.455 1883.8 706.139 1878.67 706.023 1875.18C705.906 1868.31 702.996 1859.47 697.989 1855.16C688.093 1846.54 671.676 1851.55 665.04 1863.31C663.643 1865.87 662.944 1869.48 660.848 1870.76C657.239 1872.97 651.884 1875.88 648.856 1874.72C645.713 1873.55 643.85 1867.73 642.686 1863.66C641.987 1861.21 643.734 1858.07 644.781 1855.39C652.931 1834.55 673.073 1825.47 700.551 1830.01C717.898 1832.92 727.562 1846.19 728.144 1868.89C728.494 1881.93 728.144 1895.09 728.144 1908.13C728.028 1908.13 727.795 1908.13 727.679 1908.13ZM707.071 1903.94C694.729 1907.31 683.436 1909.76 672.724 1913.6C659.568 1918.37 655.027 1929.55 660.15 1941.3C664.458 1951.08 675.053 1954.34 687.394 1949.8C702.297 1944.21 708.119 1931.29 707.071 1903.94Z" fill="#F2F2F2"/>
<path d="M1081.16 1421.52C1065.55 1425.59 1052.05 1431.06 1038.31 1432C1031.21 1432.46 1021.43 1426.76 1016.42 1420.82C997.443 1398.35 1009.44 1360.98 1037.49 1352.84C1046.81 1350.16 1056.82 1349.58 1065.67 1346.08C1070.33 1344.22 1076.5 1337.58 1076.15 1333.74C1075.45 1326.87 1071.96 1318.03 1066.6 1314.54C1055.54 1307.43 1039.59 1314.07 1033.54 1325.83C1030.63 1331.53 1029.46 1340.26 1019.56 1336.19C1010.02 1332.23 1012.7 1324.78 1015.14 1317.68C1022.59 1295.68 1039.82 1287.41 1069.86 1291.37C1087.21 1293.7 1097.22 1306.04 1098.04 1328.04C1099.2 1359.47 1099.9 1391.02 1100.37 1422.45C1100.37 1425.36 1098.74 1430.48 1096.99 1430.83C1093.85 1431.53 1089.42 1430.37 1086.74 1428.39C1083.48 1425.94 1081.39 1421.87 1081.16 1421.52ZM1080.57 1366.22C1067.77 1368.55 1058.92 1369.95 1050.19 1372.04C1039.36 1374.6 1029.46 1379.61 1029.46 1392.42C1029.46 1401.84 1033.07 1411.04 1044.13 1412.9C1056.82 1415.12 1067.53 1410.34 1072.66 1398.47C1076.5 1389.51 1077.55 1379.26 1080.57 1366.22Z" fill="#F2F2F2"/>
<path d="M729.658 1634.21C719.994 1634.21 710.214 1633.97 700.551 1634.21C693.448 1634.44 689.49 1637.82 692.517 1645.62C694.962 1651.9 696.592 1658.77 700.201 1664.24C710.563 1679.72 726.98 1679.61 738.623 1665.17C744.211 1658.19 749.334 1643.99 760.162 1651.55C772.154 1660.05 760.511 1671.23 755.272 1679.14C737.342 1706.03 696.243 1704.52 681.573 1675.65C664.923 1642.59 665.04 1607.9 682.97 1575.3C699.037 1546.2 738.157 1545.85 753.758 1575.3C761.559 1589.97 762.607 1608.36 765.518 1625.24C765.867 1627.46 759.463 1632.93 755.738 1633.39C747.238 1634.67 738.39 1633.74 729.658 1633.74C729.658 1633.74 729.658 1633.97 729.658 1634.09V1634.21ZM717.549 1611.51C720.46 1611.51 723.487 1611.86 726.281 1611.51C732.103 1610.46 737.924 1609.06 743.746 1607.78C741.65 1600.56 739.554 1593.35 737.226 1586.25C736.876 1584.96 735.363 1584.15 734.198 1583.1C725.35 1575.07 714.522 1574.14 706.488 1581.59C700.201 1587.64 697.873 1597.77 693.798 1606.15C701.249 1607.9 708.584 1609.64 716.036 1611.39C716.501 1611.39 716.967 1611.39 717.433 1611.39L717.549 1611.51Z" fill="#F2F2F2"/>
<path d="M2039.71 1624.54C2043.2 1610.34 2044.83 1594.04 2051.35 1579.96C2066.37 1547.01 2107.47 1544.92 2127.62 1574.95C2144.38 1599.86 2144.26 1651.43 2127.62 1676.35C2117.25 1691.83 2103.28 1699.4 2084.54 1697.3C2066.72 1695.21 2054.85 1684.61 2049.26 1668.78C2044.49 1655.39 2043.09 1640.72 2039.71 1624.54ZM2120.63 1624.54C2117.49 1613.25 2115.86 1600.45 2110.27 1589.74C2100.95 1572.16 2078.25 1572.97 2069.87 1590.9C2058.92 1614.42 2058.11 1639.21 2070.45 1662.26C2073.94 1668.78 2084.65 1674.95 2092.1 1674.95C2098.74 1674.95 2108.06 1667.62 2111.32 1660.98C2116.44 1650.5 2117.49 1637.93 2120.63 1624.43V1624.54Z" fill="#F2F2F2"/>
<path d="M824.082 1363.43C820.356 1378.45 818.609 1392.53 813.37 1405.22C805.802 1423.73 791.482 1434.09 770.292 1433.16C749.567 1432.23 736.993 1421.05 730.473 1402.66C721.159 1376.35 720.577 1349.46 729.891 1323.03C735.945 1305.69 746.773 1292.42 767.148 1291.25C789.269 1289.97 803.939 1297.77 812.788 1319.42C818.493 1333.39 820.589 1348.88 824.198 1363.43H824.082ZM742.232 1361.92C746.54 1375.19 748.752 1389.85 755.738 1401.73C764.587 1416.63 784.729 1415.47 792.529 1400.22C804.987 1375.77 805.453 1349.69 793.228 1325.13C784.845 1308.25 764.237 1307.67 754.807 1323.85C748.636 1334.56 746.773 1347.83 742.232 1362.03V1361.92Z" fill="#F2F2F2"/>
<path d="M1147.29 1626.29C1149.62 1614.88 1151.25 1601.96 1154.97 1589.62C1161.84 1566.92 1179.42 1553.42 1199.1 1553.88C1217.61 1554.35 1238.45 1570.18 1241.36 1591.95C1244.39 1614.53 1244.51 1638.28 1241.01 1660.75C1237.4 1684.5 1219.47 1697.19 1198.75 1697.65C1177.21 1698.12 1159.86 1685.54 1152.88 1662.38C1149.62 1651.44 1149.15 1639.56 1147.17 1626.17L1147.29 1626.29ZM1226.11 1623.61C1224.83 1615.23 1224.71 1605.8 1221.92 1597.3C1217.96 1585.08 1209.11 1575.42 1195.61 1576.12C1182.8 1576.81 1173.37 1586.83 1172.67 1598.93C1171.5 1618.37 1172.32 1638.28 1175.23 1657.49C1176.86 1667.97 1185.48 1676.23 1198.4 1675.42C1211.32 1674.48 1218.54 1665.99 1221.57 1654.69C1224.13 1645.03 1224.6 1634.79 1226.23 1623.73L1226.11 1623.61Z" fill="#F2F2F2"/>
<path d="M1300.04 1697.54C1278.27 1697.3 1267.33 1689.39 1259.52 1669.01C1256.5 1661.21 1256.15 1653.53 1265.23 1651.44C1268.96 1650.62 1276.41 1655.63 1278.39 1659.7C1284.56 1672.86 1294.45 1678.91 1307.49 1674.49C1313.78 1672.27 1319.95 1664.12 1321.93 1657.37C1323.09 1653.53 1317.16 1645.15 1312.27 1642.36C1302.72 1636.88 1291.54 1634.32 1281.41 1629.78C1265 1622.45 1257.31 1606.5 1260.22 1587.76C1263.37 1567.73 1275.59 1555.63 1294.22 1553.77C1312.27 1552.02 1329.27 1561.33 1334.74 1577.86C1336.37 1582.98 1333.34 1589.62 1332.53 1595.56C1327.75 1592.88 1320.88 1591.37 1318.44 1587.18C1311.92 1576.47 1302.72 1574.02 1292.47 1577.63C1287 1579.49 1280.13 1585.66 1279.55 1590.44C1279.08 1595.09 1285.02 1602.19 1289.91 1605.1C1298.53 1610.23 1308.66 1612.79 1317.97 1616.98C1339.05 1626.41 1347.08 1643.75 1341.84 1667.15C1337.42 1686.71 1322.28 1697.77 1300.04 1697.42V1697.54Z" fill="#F2F2F2"/>
<path d="M1094.78 1697.42C1073.01 1697.3 1058.34 1687.52 1053.56 1667.97C1052.28 1662.84 1056.36 1656.56 1057.87 1650.74C1062.53 1653.76 1069.4 1655.63 1071.49 1659.82C1077.55 1672.04 1086.4 1678.68 1099.2 1674.48C1105.26 1672.51 1110.84 1665.52 1114.22 1659.47C1118.53 1651.43 1112.94 1645.61 1105.61 1642.35C1095.48 1637.81 1084.88 1634.09 1074.75 1629.67C1058.34 1622.45 1050.88 1608.01 1053.33 1589.39C1055.89 1569.95 1067.3 1557.14 1084.77 1554.23C1101.76 1551.44 1120.74 1560.4 1126.91 1575.88C1129.01 1581.24 1127.15 1588.22 1127.15 1594.51C1121.67 1591.83 1114.69 1590.43 1111.08 1586.24C1103.63 1577.51 1095.36 1572.16 1084.77 1577.51C1079.53 1580.07 1073.82 1586.36 1072.89 1591.71C1072.19 1595.56 1078.13 1602.31 1082.79 1604.99C1091.52 1609.99 1101.41 1613.02 1110.85 1616.86C1133.55 1626.29 1140.77 1640.72 1135.53 1665.75C1131.22 1686.47 1116.9 1697.65 1094.89 1697.42H1094.78Z" fill="#F2F2F2"/>
<path d="M2192.58 1697.54C2170.11 1697.19 2157.31 1687.29 2152.65 1665.06C2151.72 1660.75 2155.56 1655.51 2157.3 1650.74C2162.08 1653.41 2169.18 1654.93 2171.39 1659C2179.54 1673.9 2187.11 1679.96 2200.85 1674.83C2207.14 1672.51 2213.31 1664.47 2215.29 1657.72C2216.45 1653.88 2210.51 1645.27 2205.74 1642.59C2195.26 1636.77 2183.15 1633.97 2172.32 1628.74C2156.61 1621.05 2150.44 1605.69 2154.04 1586.83C2157.54 1568.43 2168.95 1557.14 2186.76 1554.46C2203.76 1551.9 2221.22 1560.28 2227.28 1575.88C2229.49 1581.47 2226.7 1588.92 2226.23 1595.56C2221.11 1592.65 2215.99 1589.74 2210.86 1586.83C2204.46 1583.1 2197.94 1576.12 2191.77 1576.47C2185.13 1576.81 2178.84 1584.03 2172.44 1588.22C2176.4 1594.16 2179.08 1601.73 2184.43 1605.57C2191.3 1610.57 2200.27 1612.67 2208.3 1615.93C2230.77 1624.89 2239.74 1640.49 2235.2 1662.73C2230.31 1686.83 2216.68 1697.88 2192.47 1697.54H2192.58Z" fill="#F2F2F2"/>
<path d="M1964.38 1566.1C1974.51 1554.81 1988.25 1551.32 2003.74 1558.54C2019.57 1565.99 2023.41 1580.66 2023.76 1596.14C2024.34 1625.24 2024.34 1654.35 2023.65 1683.33C2023.65 1687.87 2018.41 1692.3 2015.61 1696.72C2012.12 1692.41 2005.72 1688.22 2005.48 1683.68C2004.43 1662.38 2005.13 1641.07 2004.78 1619.77C2004.67 1611.04 2005.02 1601.84 2002.11 1593.93C1999.89 1587.76 1993.14 1579.26 1988.13 1579.03C1980.92 1578.56 1970.79 1582.87 1966.36 1588.57C1961.59 1594.74 1960.42 1604.87 1960.19 1613.25C1959.38 1635.95 1959.73 1658.77 1959.73 1681.59C1959.73 1688.8 1958.68 1697.07 1949.6 1695.21C1945.29 1694.27 1939.35 1686.48 1939.23 1681.59C1938.42 1646.66 1938.54 1611.74 1939.23 1576.93C1939.23 1570.64 1942.73 1564.36 1944.59 1558.07C1950.41 1560.4 1956.35 1562.61 1964.62 1565.87L1964.38 1566.1Z" fill="#F2F2F2"/>
<path d="M1620.22 1686.01C1616.03 1688.45 1610.91 1692.18 1605.2 1694.51C1584.36 1703.01 1562.24 1692.18 1560.38 1669.94C1557.58 1636.65 1557.81 1603.12 1557.81 1569.83C1557.81 1565.64 1564.92 1561.45 1568.64 1557.14C1571.79 1561.68 1577.49 1566.1 1577.61 1570.76C1578.54 1596.95 1578.19 1623.15 1578.42 1649.34C1578.42 1661.8 1580.98 1673.2 1596 1675.18C1608.11 1676.81 1619.52 1667.27 1620.69 1652.02C1622.66 1625.94 1622.55 1599.75 1623.25 1573.67C1623.48 1566.69 1621.27 1557.72 1632.68 1557.84C1643.27 1558.07 1642.57 1566.34 1642.57 1573.79C1642.57 1608.71 1642.81 1643.64 1642.23 1678.56C1642.23 1683.8 1638.03 1689.04 1635.71 1694.28C1631.05 1691.83 1626.39 1689.39 1620.1 1686.01H1620.22Z" fill="#F2F2F2"/>
<path d="M948.544 1687.76C934.572 1691.25 922.813 1696.25 910.937 1696.49C897.781 1696.84 885.672 1684.15 884.625 1667.85C882.529 1635.02 882.412 1602.08 882.645 1569.25C882.645 1565.17 890.097 1561.22 894.055 1557.14C896.966 1561.8 902.322 1566.34 902.554 1570.99C903.369 1596.6 902.904 1622.33 903.137 1648.06C903.253 1665.4 909.424 1674.37 920.95 1675.3C933.292 1676.23 944.236 1667.62 945.633 1652.02C947.845 1627.92 947.496 1603.71 948.195 1579.49C948.311 1575.18 947.03 1570.3 948.66 1566.57C950.174 1562.96 954.715 1558.3 957.742 1558.42C961.002 1558.54 966.707 1563.66 966.707 1566.69C967.289 1605.92 967.289 1645.27 966.707 1684.5C966.707 1687.76 961.584 1693.93 960.187 1693.58C955.18 1692.41 950.756 1688.92 948.544 1687.64V1687.76Z" fill="#F2F2F2"/>
<path d="M799.166 1628.27C800.796 1638.05 800.679 1649.81 805.22 1659.47C808.597 1666.45 817.445 1672.62 825.246 1675.18C835.724 1678.68 841.779 1670.06 846.203 1661.45C848.182 1657.61 849.114 1652.95 851.792 1649.69C854.469 1646.43 858.661 1644.45 862.154 1641.77C864.249 1645.85 867.742 1649.69 868.091 1653.88C869.489 1670.41 855.634 1690.43 839.916 1695.9C822.568 1701.96 804.638 1695.91 793.694 1680.77C775.764 1655.63 774.832 1599.4 791.831 1573.9C801.262 1559.82 814.767 1552.48 831.3 1554.58C849.463 1556.79 860.757 1568.78 864.948 1586.24C866.229 1591.48 863.085 1597.65 862.037 1603.36C857.613 1600.45 852.956 1597.89 848.764 1594.63C847.018 1593.23 846.552 1589.97 844.689 1588.69C837.82 1584.26 829.554 1575.77 823.965 1577.28C816.164 1579.26 807.898 1587.76 804.289 1595.44C800.097 1604.64 800.679 1616.16 799.049 1628.15L799.166 1628.27Z" fill="#F2F2F2"/>
<path d="M717.666 1316.17C691.353 1316.86 685.415 1322.69 684.833 1349.46C684.367 1372.28 684.6 1394.98 684.484 1417.8C684.484 1424.78 684.717 1432.23 674.587 1432.11C664.458 1432.11 663.177 1425.01 663.177 1417.1C663.177 1380.31 663.177 1343.41 662.828 1306.62C662.828 1297.07 665.506 1293.58 675.868 1295.91C682.039 1297.31 689.257 1295.56 695.661 1293.93C717.2 1288.58 722.44 1293.47 717.55 1316.05L717.666 1316.17Z" fill="#F2F2F2"/>
<path d="M947.612 1348.76C947.612 1334.79 947.379 1320.71 947.612 1306.74C947.845 1295.91 950.989 1289.97 963.679 1295.91C967.638 1297.77 973.925 1294.51 979.164 1294.28C985.568 1293.93 993.019 1292.3 998.026 1294.98C1001.17 1296.61 1002.22 1305.34 1001.52 1310.46C1001.05 1313.49 994.999 1318.73 992.437 1318.14C974.624 1314.65 971.247 1326.29 970.199 1339.1C968.569 1359.82 968.104 1380.66 967.289 1401.38C967.056 1407.67 968.337 1414.3 966.707 1420.12C965.542 1424.55 960.885 1428.04 957.858 1432C954.598 1427.92 948.66 1424.08 948.544 1419.89C947.612 1396.26 948.078 1372.51 948.078 1348.76C947.962 1348.76 947.729 1348.76 947.612 1348.76Z" fill="#F2F2F2"/>
<path d="M1001.17 1562.73C1008.39 1561.1 1015.49 1558.42 1022.71 1558.07C1029.69 1557.72 1037.38 1558.65 1043.67 1561.45C1046.46 1562.73 1048.79 1570.41 1047.62 1574.02C1046.69 1577.05 1040.41 1580.31 1036.56 1580.31C1021.08 1580.31 1014.44 1588.8 1013.63 1602.77C1012.35 1625.48 1011.65 1648.18 1010.83 1670.88C1010.72 1675.18 1011.88 1680.07 1010.37 1683.8C1008.5 1688.57 1004.55 1692.41 1001.52 1696.6C998.259 1692.53 992.554 1688.57 992.204 1684.26C990.807 1661.1 990.574 1637.81 990.225 1614.53C990.109 1599.98 990.109 1585.43 990.924 1570.99C991.156 1566.57 994.766 1562.38 996.745 1558.07C998.142 1559.59 999.656 1560.98 1001.05 1562.5L1001.17 1562.73Z" fill="#F2F2F2"/>
</g>
<defs>
<clipPath id="clip0_109_3">
<rect width="4075" height="2142" fill="white"/>
</clipPath>
</defs>
</svg>
